<?xml version="1.0" encoding="UTF-8" standalone="no"?>
<!DOCTYPE svg PUBLIC "-//W3C//DTD SVG 1.1//EN"
 "http://www.w3.org/Graphics/SVG/1.1/DTD/svg11.dtd">
<!-- Generated by graphviz version 2.38.0 (20140413.2041)
 -->
<!-- Title: %3 Pages: 1 -->
<svg width="4052pt" height="548pt"
 viewBox="0.00 0.00 4051.77 548.00" xmlns="http://www.w3.org/2000/svg" xmlns:xlink="http://www.w3.org/1999/xlink">
<g id="graph0" class="graph" transform="scale(1 1) rotate(0) translate(4 544)">
<title>%3</title>
<polygon fill="white" stroke="none" points="-4,4 -4,-544 4047.77,-544 4047.77,4 -4,4"/>
<!-- core.atomic -->
<g id="node1" class="node"><title>core.atomic</title>
<ellipse fill="none" stroke="black" cx="2641.77" cy="-18" rx="53.8905" ry="18"/>
<text text-anchor="middle" x="2641.77" y="-14.3" font-family="Times New Roman,serif" font-size="14.00">core.atomic</text>
</g>
<!-- core.internal.traits -->
<g id="node2" class="node"><title>core.internal.traits</title>
<ellipse fill="none" stroke="black" cx="3498.77" cy="-90" rx="75.2868" ry="18"/>
<text text-anchor="middle" x="3498.77" y="-86.3" font-family="Times New Roman,serif" font-size="14.00">core.internal.traits</text>
</g>
<!-- core.stdc.string -->
<g id="node3" class="node"><title>core.stdc.string</title>
<ellipse fill="none" stroke="black" cx="2388.77" cy="-90" rx="67.6881" ry="18"/>
<text text-anchor="middle" x="2388.77" y="-86.3" font-family="Times New Roman,serif" font-size="14.00">core.stdc.string</text>
</g>
<!-- core.sync.condition -->
<g id="node4" class="node"><title>core.sync.condition</title>
<ellipse fill="none" stroke="black" cx="2120.77" cy="-18" rx="83.3857" ry="18"/>
<text text-anchor="middle" x="2120.77" y="-14.3" font-family="Times New Roman,serif" font-size="14.00">core.sync.condition</text>
</g>
<!-- core.sync.mutex -->
<g id="node5" class="node"><title>core.sync.mutex</title>
<ellipse fill="none" stroke="black" cx="2292.77" cy="-18" rx="70.6878" ry="18"/>
<text text-anchor="middle" x="2292.77" y="-14.3" font-family="Times New Roman,serif" font-size="14.00">core.sync.mutex</text>
</g>
<!-- core.thread -->
<g id="node6" class="node"><title>core.thread</title>
<ellipse fill="none" stroke="black" cx="3121.77" cy="-234" rx="51.9908" ry="18"/>
<text text-anchor="middle" x="3121.77" y="-230.3" font-family="Times New Roman,serif" font-size="14.00">core.thread</text>
</g>
<!-- core.time -->
<g id="node7" class="node"><title>core.time</title>
<ellipse fill="none" stroke="black" cx="3235.77" cy="-234" rx="44.393" ry="18"/>
<text text-anchor="middle" x="3235.77" y="-230.3" font-family="Times New Roman,serif" font-size="14.00">core.time</text>
</g>
<!-- rx -->
<g id="node8" class="node"><title>rx</title>
<ellipse fill="none" stroke="black" cx="2701.77" cy="-522" rx="27" ry="18"/>
<text text-anchor="middle" x="2701.77" y="-518.3" font-family="Times New Roman,serif" font-size="14.00">rx</text>
</g>
<!-- rx.algorithm -->
<g id="node9" class="node"><title>rx.algorithm</title>
<ellipse fill="none" stroke="black" cx="1194.77" cy="-450" rx="53.8905" ry="18"/>
<text text-anchor="middle" x="1194.77" y="-446.3" font-family="Times New Roman,serif" font-size="14.00">rx.algorithm</text>
</g>
<!-- rx&#45;&gt;rx.algorithm -->
<g id="edge1" class="edge"><title>rx&#45;&gt;rx.algorithm</title>
<path fill="none" stroke="black" d="M2674.97,-519.755C2499.9,-511.623 1518.24,-466.026 1258.06,-453.94"/>
<polygon fill="black" stroke="black" points="1258.17,-450.442 1248.02,-453.474 1257.85,-457.434 1258.17,-450.442"/>
</g>
<!-- rx.disposable -->
<g id="node23" class="node"><title>rx.disposable</title>
<ellipse fill="none" stroke="black" cx="2496.77" cy="-162" rx="59.5901" ry="18"/>
<text text-anchor="middle" x="2496.77" y="-158.3" font-family="Times New Roman,serif" font-size="14.00">rx.disposable</text>
</g>
<!-- rx&#45;&gt;rx.disposable -->
<g id="edge2" class="edge"><title>rx&#45;&gt;rx.disposable</title>
<path fill="none" stroke="black" d="M2729,-520.986C2916.26,-520.54 4005.77,-512.22 4005.77,-379 4005.77,-379 4005.77,-379 4005.77,-305 4005.77,-262.162 4003.97,-240.414 3968.77,-216 3910.62,-175.669 2852.16,-165.457 2567.02,-163.433"/>
<polygon fill="black" stroke="black" points="2566.83,-159.931 2556.81,-163.361 2566.78,-166.931 2566.83,-159.931"/>
</g>
<!-- rx.observable -->
<g id="node24" class="node"><title>rx.observable</title>
<ellipse fill="none" stroke="black" cx="1539.77" cy="-234" rx="59.5901" ry="18"/>
<text text-anchor="middle" x="1539.77" y="-230.3" font-family="Times New Roman,serif" font-size="14.00">rx.observable</text>
</g>
<!-- rx&#45;&gt;rx.observable -->
<g id="edge3" class="edge"><title>rx&#45;&gt;rx.observable</title>
<path fill="none" stroke="black" d="M2674.45,-520.538C2550.62,-517.512 2031.68,-494.736 1653.77,-324 1635.02,-315.532 1593.58,-281.453 1566.17,-258.011"/>
<polygon fill="black" stroke="black" points="1568.36,-255.28 1558.5,-251.415 1563.8,-260.588 1568.36,-255.28"/>
</g>
<!-- rx.observer -->
<g id="node25" class="node"><title>rx.observer</title>
<ellipse fill="none" stroke="black" cx="1219.77" cy="-162" rx="51.9908" ry="18"/>
<text text-anchor="middle" x="1219.77" y="-158.3" font-family="Times New Roman,serif" font-size="14.00">rx.observer</text>
</g>
<!-- rx&#45;&gt;rx.observer -->
<g id="edge4" class="edge"><title>rx&#45;&gt;rx.observer</title>
<path fill="none" stroke="black" d="M2674.52,-520.546C2442.95,-516.544 801.503,-485.293 316.766,-396 201.371,-374.743 133.523,-417.602 62.766,-324 -8.98689,-229.081 97.2143,-245.803 215.766,-216 395.39,-170.843 967.169,-164.133 1157.48,-163.158"/>
<polygon fill="black" stroke="black" points="1157.61,-166.658 1167.59,-163.11 1157.58,-159.658 1157.61,-166.658"/>
</g>
<!-- rx.range -->
<g id="node26" class="node"><title>rx.range</title>
<ellipse fill="none" stroke="black" cx="2534.77" cy="-378" rx="40.0939" ry="18"/>
<text text-anchor="middle" x="2534.77" y="-374.3" font-family="Times New Roman,serif" font-size="14.00">rx.range</text>
</g>
<!-- rx&#45;&gt;rx.range -->
<g id="edge5" class="edge"><title>rx&#45;&gt;rx.range</title>
<path fill="none" stroke="black" d="M2685.75,-507.384C2656.81,-482.771 2595.54,-430.676 2560.6,-400.967"/>
<polygon fill="black" stroke="black" points="2562.62,-398.091 2552.74,-394.28 2558.09,-403.424 2562.62,-398.091"/>
</g>
<!-- rx.scheduler -->
<g id="node30" class="node"><title>rx.scheduler</title>
<ellipse fill="none" stroke="black" cx="3326.77" cy="-306" rx="55.4913" ry="18"/>
<text text-anchor="middle" x="3326.77" y="-302.3" font-family="Times New Roman,serif" font-size="14.00">rx.scheduler</text>
</g>
<!-- rx&#45;&gt;rx.scheduler -->
<g id="edge6" class="edge"><title>rx&#45;&gt;rx.scheduler</title>
<path fill="none" stroke="black" d="M2726.24,-513.72C2788.15,-495.187 2955.89,-444.271 3093.77,-396 3160.73,-372.555 3237.42,-342.664 3283.96,-324.182"/>
<polygon fill="black" stroke="black" points="3285.42,-327.367 3293.41,-320.417 3282.83,-320.863 3285.42,-327.367"/>
</g>
<!-- rx.subject -->
<g id="node31" class="node"><title>rx.subject</title>
<ellipse fill="none" stroke="black" cx="2836.77" cy="-306" rx="46.2923" ry="18"/>
<text text-anchor="middle" x="2836.77" y="-302.3" font-family="Times New Roman,serif" font-size="14.00">rx.subject</text>
</g>
<!-- rx&#45;&gt;rx.subject -->
<g id="edge7" class="edge"><title>rx&#45;&gt;rx.subject</title>
<path fill="none" stroke="black" d="M2711.91,-504.915C2735.26,-467.903 2792.93,-376.481 2820.97,-332.047"/>
<polygon fill="black" stroke="black" points="2823.94,-333.891 2826.32,-323.566 2818.02,-330.156 2823.94,-333.891"/>
</g>
<!-- rx.util -->
<g id="node32" class="node"><title>rx.util</title>
<ellipse fill="none" stroke="black" cx="2167.77" cy="-90" rx="31.3957" ry="18"/>
<text text-anchor="middle" x="2167.77" y="-86.3" font-family="Times New Roman,serif" font-size="14.00">rx.util</text>
</g>
<!-- rx&#45;&gt;rx.util -->
<g id="edge8" class="edge"><title>rx&#45;&gt;rx.util</title>
<path fill="none" stroke="black" d="M2728.86,-521.222C2882.01,-522.258 3640.33,-524.415 3865.77,-468 3951.57,-446.528 4043.77,-467.449 4043.77,-379 4043.77,-379 4043.77,-379 4043.77,-305 4043.77,-260.676 4035.56,-240.714 3998.77,-216 3842.85,-111.271 2498.97,-123.285 2311.77,-108 2276.57,-105.126 2236.71,-100.298 2207.87,-96.5195"/>
<polygon fill="black" stroke="black" points="2208.14,-93.0252 2197.77,-95.1806 2207.22,-99.9645 2208.14,-93.0252"/>
</g>
<!-- rx.algorithm.all -->
<g id="node10" class="node"><title>rx.algorithm.all</title>
<ellipse fill="none" stroke="black" cx="135.766" cy="-306" rx="64.189" ry="18"/>
<text text-anchor="middle" x="135.766" y="-302.3" font-family="Times New Roman,serif" font-size="14.00">rx.algorithm.all</text>
</g>
<!-- rx.algorithm&#45;&gt;rx.algorithm.all -->
<g id="edge9" class="edge"><title>rx.algorithm&#45;&gt;rx.algorithm.all</title>
<path fill="none" stroke="black" d="M1140.87,-448.211C1021.64,-445.761 726.847,-435.825 483.766,-396 376.499,-378.426 253.975,-343.524 186.697,-323.038"/>
<polygon fill="black" stroke="black" points="187.369,-319.583 176.782,-320.001 185.319,-326.276 187.369,-319.583"/>
</g>
<!-- rx.algorithm.any -->
<g id="node11" class="node"><title>rx.algorithm.any</title>
<ellipse fill="none" stroke="black" cx="639.766" cy="-306" rx="69.5877" ry="18"/>
<text text-anchor="middle" x="639.766" y="-302.3" font-family="Times New Roman,serif" font-size="14.00">rx.algorithm.any</text>
</g>
<!-- rx.algorithm&#45;&gt;rx.algorithm.any -->
<g id="edge10" class="edge"><title>rx.algorithm&#45;&gt;rx.algorithm.any</title>
<path fill="none" stroke="black" d="M1149.29,-440.297C1099.38,-430.51 1017.01,-413.662 946.766,-396 856.532,-373.31 752.806,-342.164 691.967,-323.372"/>
<polygon fill="black" stroke="black" points="692.803,-319.967 682.215,-320.352 690.732,-326.654 692.803,-319.967"/>
</g>
<!-- rx.algorithm.buffer -->
<g id="node12" class="node"><title>rx.algorithm.buffer</title>
<ellipse fill="none" stroke="black" cx="1169.77" cy="-306" rx="78.7863" ry="18"/>
<text text-anchor="middle" x="1169.77" y="-302.3" font-family="Times New Roman,serif" font-size="14.00">rx.algorithm.buffer</text>
</g>
<!-- rx.algorithm&#45;&gt;rx.algorithm.buffer -->
<g id="edge11" class="edge"><title>rx.algorithm&#45;&gt;rx.algorithm.buffer</title>
<path fill="none" stroke="black" d="M1191.75,-431.871C1187.49,-407.67 1179.66,-363.211 1174.59,-334.393"/>
<polygon fill="black" stroke="black" points="1177.97,-333.431 1172.79,-324.189 1171.08,-334.645 1177.97,-333.431"/>
</g>
<!-- rx.algorithm.combineLatest -->
<g id="node13" class="node"><title>rx.algorithm.combineLatest</title>
<ellipse fill="none" stroke="black" cx="1990.77" cy="-306" rx="109.681" ry="18"/>
<text text-anchor="middle" x="1990.77" y="-302.3" font-family="Times New Roman,serif" font-size="14.00">rx.algorithm.combineLatest</text>
</g>
<!-- rx.algorithm&#45;&gt;rx.algorithm.combineLatest -->
<g id="edge12" class="edge"><title>rx.algorithm&#45;&gt;rx.algorithm.combineLatest</title>
<path fill="none" stroke="black" d="M1244.54,-443.025C1316.37,-434.159 1453.16,-416.359 1568.77,-396 1693.13,-374.1 1836.77,-342.43 1920.33,-323.367"/>
<polygon fill="black" stroke="black" points="1921.25,-326.747 1930.22,-321.106 1919.69,-319.923 1921.25,-326.747"/>
</g>
<!-- rx.algorithm.debounce -->
<g id="node14" class="node"><title>rx.algorithm.debounce</title>
<ellipse fill="none" stroke="black" cx="2992.77" cy="-378" rx="92.0841" ry="18"/>
<text text-anchor="middle" x="2992.77" y="-374.3" font-family="Times New Roman,serif" font-size="14.00">rx.algorithm.debounce</text>
</g>
<!-- rx.algorithm&#45;&gt;rx.algorithm.debounce -->
<g id="edge13" class="edge"><title>rx.algorithm&#45;&gt;rx.algorithm.debounce</title>
<path fill="none" stroke="black" d="M1248.08,-447.031C1432.88,-440.192 2063.23,-416.749 2583.77,-396 2689.43,-391.788 2810.43,-386.729 2893.25,-383.231"/>
<polygon fill="black" stroke="black" points="2893.57,-386.721 2903.41,-382.802 2893.27,-379.727 2893.57,-386.721"/>
</g>
<!-- rx.algorithm.filter -->
<g id="node15" class="node"><title>rx.algorithm.filter</title>
<ellipse fill="none" stroke="black" cx="799.766" cy="-306" rx="72.5877" ry="18"/>
<text text-anchor="middle" x="799.766" y="-302.3" font-family="Times New Roman,serif" font-size="14.00">rx.algorithm.filter</text>
</g>
<!-- rx.algorithm&#45;&gt;rx.algorithm.filter -->
<g id="edge14" class="edge"><title>rx.algorithm&#45;&gt;rx.algorithm.filter</title>
<path fill="none" stroke="black" d="M1159.36,-436.273C1088.58,-410.827 929.478,-353.631 848.747,-324.608"/>
<polygon fill="black" stroke="black" points="849.896,-321.302 839.301,-321.213 847.528,-327.889 849.896,-321.302"/>
</g>
<!-- rx.algorithm.fold -->
<g id="node16" class="node"><title>rx.algorithm.fold</title>
<ellipse fill="none" stroke="black" cx="1502.77" cy="-306" rx="71.4873" ry="18"/>
<text text-anchor="middle" x="1502.77" y="-302.3" font-family="Times New Roman,serif" font-size="14.00">rx.algorithm.fold</text>
</g>
<!-- rx.algorithm&#45;&gt;rx.algorithm.fold -->
<g id="edge15" class="edge"><title>rx.algorithm&#45;&gt;rx.algorithm.fold</title>
<path fill="none" stroke="black" d="M1211.45,-432.731C1235.23,-409.851 1278.05,-369.854 1296.77,-360 1309.77,-353.153 1386.26,-334.327 1442.25,-321.068"/>
<polygon fill="black" stroke="black" points="1443.17,-324.448 1452.09,-318.743 1441.56,-317.635 1443.17,-324.448"/>
</g>
<!-- rx.algorithm.groupby -->
<g id="node17" class="node"><title>rx.algorithm.groupby</title>
<ellipse fill="none" stroke="black" cx="1392.77" cy="-378" rx="87.1846" ry="18"/>
<text text-anchor="middle" x="1392.77" y="-374.3" font-family="Times New Roman,serif" font-size="14.00">rx.algorithm.groupby</text>
</g>
<!-- rx.algorithm&#45;&gt;rx.algorithm.groupby -->
<g id="edge16" class="edge"><title>rx.algorithm&#45;&gt;rx.algorithm.groupby</title>
<path fill="none" stroke="black" d="M1230.62,-436.324C1261.49,-425.412 1306.41,-409.531 1341.14,-397.251"/>
<polygon fill="black" stroke="black" points="1342.39,-400.523 1350.65,-393.89 1340.05,-393.923 1342.39,-400.523"/>
</g>
<!-- rx.algorithm.map -->
<g id="node18" class="node"><title>rx.algorithm.map</title>
<ellipse fill="none" stroke="black" cx="441.766" cy="-306" rx="72.2875" ry="18"/>
<text text-anchor="middle" x="441.766" y="-302.3" font-family="Times New Roman,serif" font-size="14.00">rx.algorithm.map</text>
</g>
<!-- rx.algorithm&#45;&gt;rx.algorithm.map -->
<g id="edge17" class="edge"><title>rx.algorithm&#45;&gt;rx.algorithm.map</title>
<path fill="none" stroke="black" d="M1144.25,-443.478C1071.37,-435.162 932.634,-418.026 815.766,-396 702.383,-374.631 571.588,-341.539 498.598,-322.3"/>
<polygon fill="black" stroke="black" points="499.253,-318.853 488.691,-319.68 497.463,-325.62 499.253,-318.853"/>
</g>
<!-- rx.algorithm.merge -->
<g id="node19" class="node"><title>rx.algorithm.merge</title>
<ellipse fill="none" stroke="black" cx="1784.77" cy="-306" rx="78.7863" ry="18"/>
<text text-anchor="middle" x="1784.77" y="-302.3" font-family="Times New Roman,serif" font-size="14.00">rx.algorithm.merge</text>
</g>
<!-- rx.algorithm&#45;&gt;rx.algorithm.merge -->
<g id="edge18" class="edge"><title>rx.algorithm&#45;&gt;rx.algorithm.merge</title>
<path fill="none" stroke="black" d="M1243.24,-441.993C1301.81,-433.129 1403.15,-416.518 1488.77,-396 1575.34,-375.252 1674.02,-344.018 1732.75,-324.602"/>
<polygon fill="black" stroke="black" points="1734.15,-327.828 1742.53,-321.356 1731.94,-321.184 1734.15,-327.828"/>
</g>
<!-- rx.algorithm.scan -->
<g id="node20" class="node"><title>rx.algorithm.scan</title>
<ellipse fill="none" stroke="black" cx="1339.77" cy="-306" rx="73.387" ry="18"/>
<text text-anchor="middle" x="1339.77" y="-302.3" font-family="Times New Roman,serif" font-size="14.00">rx.algorithm.scan</text>
</g>
<!-- rx.algorithm&#45;&gt;rx.algorithm.scan -->
<g id="edge19" class="edge"><title>rx.algorithm&#45;&gt;rx.algorithm.scan</title>
<path fill="none" stroke="black" d="M1201.77,-431.853C1210.34,-412.533 1226.38,-381.082 1247.77,-360 1261.37,-346.587 1279.05,-335.347 1295.26,-326.719"/>
<polygon fill="black" stroke="black" points="1297.29,-329.614 1304.59,-321.944 1294.1,-323.382 1297.29,-329.614"/>
</g>
<!-- rx.algorithm.tee -->
<g id="node21" class="node"><title>rx.algorithm.tee</title>
<ellipse fill="none" stroke="black" cx="284.766" cy="-306" rx="66.8882" ry="18"/>
<text text-anchor="middle" x="284.766" y="-302.3" font-family="Times New Roman,serif" font-size="14.00">rx.algorithm.tee</text>
</g>
<!-- rx.algorithm&#45;&gt;rx.algorithm.tee -->
<g id="edge20" class="edge"><title>rx.algorithm&#45;&gt;rx.algorithm.tee</title>
<path fill="none" stroke="black" d="M1141.63,-446.396C1043.49,-441.023 827.418,-426.564 647.766,-396 536.344,-377.044 408.495,-342.681 338.156,-322.653"/>
<polygon fill="black" stroke="black" points="338.781,-319.191 328.204,-319.805 336.856,-325.921 338.781,-319.191"/>
</g>
<!-- rx.algorithm.uniq -->
<g id="node22" class="node"><title>rx.algorithm.uniq</title>
<ellipse fill="none" stroke="black" cx="962.766" cy="-306" rx="72.2875" ry="18"/>
<text text-anchor="middle" x="962.766" y="-302.3" font-family="Times New Roman,serif" font-size="14.00">rx.algorithm.uniq</text>
</g>
<!-- rx.algorithm&#45;&gt;rx.algorithm.uniq -->
<g id="edge21" class="edge"><title>rx.algorithm&#45;&gt;rx.algorithm.uniq</title>
<path fill="none" stroke="black" d="M1169.94,-433.804C1128.43,-408.396 1044.84,-357.234 997.508,-328.265"/>
<polygon fill="black" stroke="black" points="999.187,-325.188 988.83,-322.953 995.532,-331.159 999.187,-325.188"/>
</g>
<!-- rx.algorithm.all&#45;&gt;rx.disposable -->
<g id="edge22" class="edge"><title>rx.algorithm.all&#45;&gt;rx.disposable</title>
<path fill="none" stroke="black" d="M181.948,-293.426C190.813,-291.437 200.05,-289.524 208.766,-288 478.117,-240.918 547.089,-236.337 819.766,-216 1441.65,-169.618 2196.21,-163.746 2426.63,-163.067"/>
<polygon fill="black" stroke="black" points="2426.89,-166.566 2436.88,-163.039 2426.87,-159.566 2426.89,-166.566"/>
</g>
<!-- rx.algorithm.all&#45;&gt;rx.observable -->
<g id="edge23" class="edge"><title>rx.algorithm.all&#45;&gt;rx.observable</title>
<path fill="none" stroke="black" d="M181.081,-293.05C190.191,-291.043 199.739,-289.22 208.766,-288 333.867,-271.097 1213.84,-244.472 1469.98,-237.005"/>
<polygon fill="black" stroke="black" points="1470.37,-240.495 1480.27,-236.706 1470.17,-233.498 1470.37,-240.495"/>
</g>
<!-- rx.algorithm.all&#45;&gt;rx.observer -->
<g id="edge24" class="edge"><title>rx.algorithm.all&#45;&gt;rx.observer</title>
<path fill="none" stroke="black" d="M157.437,-288.929C187.271,-267.818 243.486,-231.602 297.766,-216 459.79,-169.428 977.779,-163.606 1157.58,-163.011"/>
<polygon fill="black" stroke="black" points="1157.68,-166.511 1167.67,-162.982 1157.66,-159.511 1157.68,-166.511"/>
</g>
<!-- rx.algorithm.all&#45;&gt;rx.util -->
<g id="edge25" class="edge"><title>rx.algorithm.all&#45;&gt;rx.util</title>
<path fill="none" stroke="black" d="M144.179,-287.995C162.401,-253.325 209.217,-175.123 274.766,-144 296.415,-133.721 1850.23,-98.1718 2126.12,-91.9371"/>
<polygon fill="black" stroke="black" points="2126.57,-95.4279 2136.48,-91.703 2126.41,-88.4297 2126.57,-95.4279"/>
</g>
<!-- std.functional -->
<g id="node36" class="node"><title>std.functional</title>
<ellipse fill="none" stroke="black" cx="437.766" cy="-162" rx="59.5901" ry="18"/>
<text text-anchor="middle" x="437.766" y="-158.3" font-family="Times New Roman,serif" font-size="14.00">std.functional</text>
</g>
<!-- rx.algorithm.all&#45;&gt;std.functional -->
<g id="edge26" class="edge"><title>rx.algorithm.all&#45;&gt;std.functional</title>
<path fill="none" stroke="black" d="M156.558,-288.963C182.547,-269.529 228.957,-236.81 272.766,-216 308.109,-199.212 350.124,-185.803 382.911,-176.673"/>
<polygon fill="black" stroke="black" points="384.049,-179.99 392.773,-173.977 382.204,-173.238 384.049,-179.99"/>
</g>
<!-- std.range -->
<g id="node39" class="node"><title>std.range</title>
<ellipse fill="none" stroke="black" cx="1337.77" cy="-90" rx="44.393" ry="18"/>
<text text-anchor="middle" x="1337.77" y="-86.3" font-family="Times New Roman,serif" font-size="14.00">std.range</text>
</g>
<!-- rx.algorithm.all&#45;&gt;std.range -->
<g id="edge27" class="edge"><title>rx.algorithm.all&#45;&gt;std.range</title>
<path fill="none" stroke="black" d="M120.331,-288.243C112.322,-278.445 103.288,-265.397 98.766,-252 83.4083,-206.504 62.3296,-178.464 95.766,-144 141.783,-96.5684 1219.64,-119.202 1284.77,-108 1288.62,-107.337 1292.58,-106.459 1296.52,-105.45"/>
<polygon fill="black" stroke="black" points="1297.5,-108.808 1306.18,-102.722 1295.6,-102.072 1297.5,-108.808"/>
</g>
<!-- rx.algorithm.any&#45;&gt;rx.disposable -->
<g id="edge28" class="edge"><title>rx.algorithm.any&#45;&gt;rx.disposable</title>
<path fill="none" stroke="black" d="M689.566,-293.432C698.907,-291.466 708.612,-289.558 717.766,-288 846.672,-266.054 884.19,-288.453 1009.77,-252 1045.66,-241.58 1049.46,-224.883 1085.77,-216 1216.4,-184.038 2159.87,-167.928 2426.66,-163.978"/>
<polygon fill="black" stroke="black" points="2427.04,-167.473 2436.98,-163.827 2426.93,-160.474 2427.04,-167.473"/>
</g>
<!-- rx.algorithm.any&#45;&gt;rx.observable -->
<g id="edge29" class="edge"><title>rx.algorithm.any&#45;&gt;rx.observable</title>
<path fill="none" stroke="black" d="M688.662,-293.168C698.264,-291.178 708.296,-289.33 717.766,-288 994.428,-249.156 1327.54,-238.733 1469.82,-235.974"/>
<polygon fill="black" stroke="black" points="1470.21,-239.467 1480.14,-235.781 1470.08,-232.469 1470.21,-239.467"/>
</g>
<!-- rx.algorithm.any&#45;&gt;rx.observer -->
<g id="edge30" class="edge"><title>rx.algorithm.any&#45;&gt;rx.observer</title>
<path fill="none" stroke="black" d="M671.398,-289.807C714.244,-269.856 793.567,-235.126 864.766,-216 966.294,-188.726 1088.18,-174.383 1159.5,-167.771"/>
<polygon fill="black" stroke="black" points="1160,-171.24 1169.64,-166.852 1159.37,-164.269 1160,-171.24"/>
</g>
<!-- rx.algorithm.any&#45;&gt;rx.util -->
<g id="edge31" class="edge"><title>rx.algorithm.any&#45;&gt;rx.util</title>
<path fill="none" stroke="black" d="M658.93,-288.446C700.269,-253.903 802.313,-174.802 903.766,-144 1022.87,-107.839 1922.12,-94.1617 2126.52,-91.5033"/>
<polygon fill="black" stroke="black" points="2126.59,-95.0028 2136.54,-91.3746 2126.5,-88.0034 2126.59,-95.0028"/>
</g>
<!-- rx.algorithm.any&#45;&gt;std.functional -->
<g id="edge32" class="edge"><title>rx.algorithm.any&#45;&gt;std.functional</title>
<path fill="none" stroke="black" d="M582.933,-295.555C518.956,-284.348 422.476,-265.485 411.766,-252 397.247,-233.718 407.523,-207.586 419.161,-188.366"/>
<polygon fill="black" stroke="black" points="422.202,-190.109 424.699,-179.813 416.326,-186.304 422.202,-190.109"/>
</g>
<!-- rx.algorithm.any&#45;&gt;std.range -->
<g id="edge33" class="edge"><title>rx.algorithm.any&#45;&gt;std.range</title>
<path fill="none" stroke="black" d="M583.738,-295.311C517.64,-283.459 414.894,-263.551 400.766,-252 362.009,-220.311 334.068,-180.088 368.766,-144 404.064,-107.288 1234.61,-116.859 1284.77,-108 1288.62,-107.32 1292.57,-106.43 1296.51,-105.413"/>
<polygon fill="black" stroke="black" points="1297.5,-108.77 1306.17,-102.674 1295.59,-102.035 1297.5,-108.77"/>
</g>
<!-- rx.algorithm.buffer&#45;&gt;rx.disposable -->
<g id="edge34" class="edge"><title>rx.algorithm.buffer&#45;&gt;rx.disposable</title>
<path fill="none" stroke="black" d="M1201.21,-289.297C1245.08,-268.251 1327.75,-231.725 1402.77,-216 1599.51,-174.756 2217.5,-165.487 2426.72,-163.51"/>
<polygon fill="black" stroke="black" points="2427,-167.007 2436.97,-163.416 2426.93,-160.008 2427,-167.007"/>
</g>
<!-- rx.algorithm.buffer&#45;&gt;rx.observable -->
<g id="edge35" class="edge"><title>rx.algorithm.buffer&#45;&gt;rx.observable</title>
<path fill="none" stroke="black" d="M1227.98,-293.711C1237.92,-291.796 1248.14,-289.835 1257.77,-288 1334.63,-273.353 1423.33,-256.728 1480.41,-246.066"/>
<polygon fill="black" stroke="black" points="1481.15,-249.488 1490.34,-244.211 1479.87,-242.607 1481.15,-249.488"/>
</g>
<!-- rx.algorithm.buffer&#45;&gt;rx.observer -->
<g id="edge36" class="edge"><title>rx.algorithm.buffer&#45;&gt;rx.observer</title>
<path fill="none" stroke="black" d="M1175.8,-287.871C1184.39,-263.457 1200.25,-218.426 1210.39,-189.635"/>
<polygon fill="black" stroke="black" points="1213.69,-190.784 1213.71,-180.189 1207.09,-188.459 1213.69,-190.784"/>
</g>
<!-- rx.algorithm.buffer&#45;&gt;std.range -->
<g id="edge37" class="edge"><title>rx.algorithm.buffer&#45;&gt;std.range</title>
<path fill="none" stroke="black" d="M1161.97,-287.896C1148.76,-256.035 1126.37,-186.945 1158.77,-144 1193.84,-97.5035 1229.03,-124.896 1284.77,-108 1288.06,-107.003 1291.46,-105.954 1294.87,-104.888"/>
<polygon fill="black" stroke="black" points="1295.97,-108.211 1304.46,-101.864 1293.87,-101.535 1295.97,-108.211"/>
</g>
<!-- rx.algorithm.combineLatest&#45;&gt;rx.disposable -->
<g id="edge38" class="edge"><title>rx.algorithm.combineLatest&#45;&gt;rx.disposable</title>
<path fill="none" stroke="black" d="M2044.3,-290.217C2082.6,-279.624 2135.37,-264.991 2181.77,-252 2274.43,-226.054 2382.32,-195.495 2444.75,-177.776"/>
<polygon fill="black" stroke="black" points="2446.08,-181.037 2454.75,-174.939 2444.17,-174.303 2446.08,-181.037"/>
</g>
<!-- rx.algorithm.combineLatest&#45;&gt;rx.observable -->
<g id="edge39" class="edge"><title>rx.algorithm.combineLatest&#45;&gt;rx.observable</title>
<path fill="none" stroke="black" d="M1913.22,-293.158C1843.49,-282.485 1738.26,-266.316 1646.77,-252 1632.04,-249.696 1616.19,-247.191 1601.31,-244.828"/>
<polygon fill="black" stroke="black" points="1601.62,-241.333 1591.19,-243.22 1600.52,-248.247 1601.62,-241.333"/>
</g>
<!-- rx.algorithm.combineLatest&#45;&gt;rx.observer -->
<g id="edge40" class="edge"><title>rx.algorithm.combineLatest&#45;&gt;rx.observer</title>
<path fill="none" stroke="black" d="M1960.49,-288.652C1920.57,-267.93 1847.57,-232.881 1780.77,-216 1603.84,-171.289 1386.89,-163.596 1282.18,-162.713"/>
<polygon fill="black" stroke="black" points="1282.12,-159.213 1272.1,-162.647 1282.08,-166.213 1282.12,-159.213"/>
</g>
<!-- rx.algorithm.combineLatest&#45;&gt;rx.util -->
<g id="edge41" class="edge"><title>rx.algorithm.combineLatest&#45;&gt;rx.util</title>
<path fill="none" stroke="black" d="M2047.64,-290.539C2069.85,-282.402 2093.97,-270.121 2110.77,-252 2145.84,-214.165 2159.57,-153.384 2164.76,-118.328"/>
<polygon fill="black" stroke="black" points="2168.25,-118.707 2166.12,-108.328 2161.31,-117.769 2168.25,-118.707"/>
</g>
<!-- std.meta -->
<g id="node37" class="node"><title>std.meta</title>
<ellipse fill="none" stroke="black" cx="2059.77" cy="-234" rx="41.6928" ry="18"/>
<text text-anchor="middle" x="2059.77" y="-230.3" font-family="Times New Roman,serif" font-size="14.00">std.meta</text>
</g>
<!-- rx.algorithm.combineLatest&#45;&gt;std.meta -->
<g id="edge42" class="edge"><title>rx.algorithm.combineLatest&#45;&gt;std.meta</title>
<path fill="none" stroke="black" d="M2007.47,-288.055C2016.37,-279.027 2027.44,-267.792 2037.11,-257.987"/>
<polygon fill="black" stroke="black" points="2039.64,-260.408 2044.16,-250.829 2034.65,-255.494 2039.64,-260.408"/>
</g>
<!-- rx.algorithm.combineLatest&#45;&gt;std.range -->
<g id="edge43" class="edge"><title>rx.algorithm.combineLatest&#45;&gt;std.range</title>
<path fill="none" stroke="black" d="M1965.45,-288.313C1936.75,-269.689 1888.28,-239.135 1844.77,-216 1776.99,-179.96 1761.32,-165.961 1687.77,-144 1585.54,-113.48 1461.02,-99.9812 1391.45,-94.4528"/>
<polygon fill="black" stroke="black" points="1391.41,-90.9401 1381.18,-93.6632 1390.88,-97.9195 1391.41,-90.9401"/>
</g>
<!-- std.typecons -->
<g id="node40" class="node"><title>std.typecons</title>
<ellipse fill="none" stroke="black" cx="1713.77" cy="-234" rx="57.6901" ry="18"/>
<text text-anchor="middle" x="1713.77" y="-230.3" font-family="Times New Roman,serif" font-size="14.00">std.typecons</text>
</g>
<!-- rx.algorithm.combineLatest&#45;&gt;std.typecons -->
<g id="edge44" class="edge"><title>rx.algorithm.combineLatest&#45;&gt;std.typecons</title>
<path fill="none" stroke="black" d="M1933.71,-290.581C1884.77,-278.213 1814.78,-260.528 1766.99,-248.449"/>
<polygon fill="black" stroke="black" points="1767.69,-245.017 1757.14,-245.96 1765.98,-251.804 1767.69,-245.017"/>
</g>
<!-- rx.algorithm.debounce&#45;&gt;core.thread -->
<g id="edge45" class="edge"><title>rx.algorithm.debounce&#45;&gt;core.thread</title>
<path fill="none" stroke="black" d="M3014.87,-360.495C3027.48,-350.577 3043.23,-337.327 3055.77,-324 3074.57,-304.01 3092.91,-278.662 3105.47,-260.135"/>
<polygon fill="black" stroke="black" points="3108.5,-261.9 3111.14,-251.641 3102.68,-258.011 3108.5,-261.9"/>
</g>
<!-- rx.algorithm.debounce&#45;&gt;core.time -->
<g id="edge46" class="edge"><title>rx.algorithm.debounce&#45;&gt;core.time</title>
<path fill="none" stroke="black" d="M3020.99,-360.835C3039.22,-350.374 3063.42,-336.436 3084.77,-324 3125.51,-300.257 3172.26,-272.646 3202.81,-254.551"/>
<polygon fill="black" stroke="black" points="3204.93,-257.364 3211.75,-249.255 3201.36,-251.341 3204.93,-257.364"/>
</g>
<!-- rx.algorithm.debounce&#45;&gt;rx.disposable -->
<g id="edge47" class="edge"><title>rx.algorithm.debounce&#45;&gt;rx.disposable</title>
<path fill="none" stroke="black" d="M3084.08,-375.265C3316.54,-370.403 3914.51,-354.935 3943.77,-324 3976.75,-289.127 3977.08,-250.557 3943.77,-216 3895.51,-165.944 2849.69,-162.823 2566.79,-162.898"/>
<polygon fill="black" stroke="black" points="2566.65,-159.398 2556.65,-162.902 2566.65,-166.398 2566.65,-159.398"/>
</g>
<!-- rx.algorithm.debounce&#45;&gt;rx.observable -->
<g id="edge48" class="edge"><title>rx.algorithm.debounce&#45;&gt;rx.observable</title>
<path fill="none" stroke="black" d="M2903.41,-373.261C2820.55,-369.799 2693.83,-364.521 2583.77,-360 2485.21,-355.952 1788.77,-359.557 1696.77,-324 1673.52,-315.015 1674.8,-301.368 1653.77,-288 1632.02,-274.183 1606.1,-261.84 1584.46,-252.549"/>
<polygon fill="black" stroke="black" points="1585.75,-249.291 1575.17,-248.63 1583.03,-255.741 1585.75,-249.291"/>
</g>
<!-- rx.algorithm.debounce&#45;&gt;rx.observer -->
<g id="edge49" class="edge"><title>rx.algorithm.debounce&#45;&gt;rx.observer</title>
<path fill="none" stroke="black" d="M2904.22,-372.87C2821.39,-369.114 2694.22,-363.619 2583.77,-360 2542.05,-358.633 1110.92,-353.862 1081.77,-324 1034.26,-275.343 1127.16,-213.081 1182.58,-182.179"/>
<polygon fill="black" stroke="black" points="1184.36,-185.191 1191.45,-177.318 1181,-179.052 1184.36,-185.191"/>
</g>
<!-- rx.algorithm.debounce&#45;&gt;rx.scheduler -->
<g id="edge50" class="edge"><title>rx.algorithm.debounce&#45;&gt;rx.scheduler</title>
<path fill="none" stroke="black" d="M3053.25,-364.324C3115.45,-351.288 3211.48,-331.162 3271.64,-318.553"/>
<polygon fill="black" stroke="black" points="3272.64,-321.92 3281.71,-316.443 3271.2,-315.069 3272.64,-321.92"/>
</g>
<!-- rx.algorithm.debounce&#45;&gt;std.range -->
<g id="edge51" class="edge"><title>rx.algorithm.debounce&#45;&gt;std.range</title>
<path fill="none" stroke="black" d="M2977.88,-360.134C2936.15,-314.301 2812.25,-187.958 2677.77,-144 2615.76,-123.732 1634.98,-98.3232 1391.93,-92.3154"/>
<polygon fill="black" stroke="black" points="1392.01,-88.8162 1381.92,-92.0686 1391.83,-95.8141 1392.01,-88.8162"/>
</g>
<!-- rx.algorithm.filter&#45;&gt;rx.disposable -->
<g id="edge52" class="edge"><title>rx.algorithm.filter&#45;&gt;rx.disposable</title>
<path fill="none" stroke="black" d="M853.092,-293.705C862.631,-291.753 872.485,-289.781 881.766,-288 972.185,-270.653 1001.68,-289.488 1085.77,-252 1109.48,-241.429 1107.39,-224.937 1131.77,-216 1253.65,-171.313 2165.53,-164.296 2426.93,-163.201"/>
<polygon fill="black" stroke="black" points="2427.07,-166.701 2437.05,-163.16 2427.04,-159.701 2427.07,-166.701"/>
</g>
<!-- rx.algorithm.filter&#45;&gt;rx.observable -->
<g id="edge53" class="edge"><title>rx.algorithm.filter&#45;&gt;rx.observable</title>
<path fill="none" stroke="black" d="M851.649,-293.231C861.607,-291.26 871.98,-289.403 881.766,-288 1095.34,-257.38 1350.65,-243.133 1470.8,-237.737"/>
<polygon fill="black" stroke="black" points="1471.12,-241.226 1480.96,-237.288 1470.81,-234.233 1471.12,-241.226"/>
</g>
<!-- rx.algorithm.filter&#45;&gt;rx.observer -->
<g id="edge54" class="edge"><title>rx.algorithm.filter&#45;&gt;rx.observer</title>
<path fill="none" stroke="black" d="M819.029,-288.355C843.677,-267.988 888.498,-233.999 932.766,-216 1007.2,-185.737 1099.54,-172.63 1159.05,-167.037"/>
<polygon fill="black" stroke="black" points="1159.39,-170.52 1169.03,-166.139 1158.76,-163.548 1159.39,-170.52"/>
</g>
<!-- rx.algorithm.filter&#45;&gt;rx.util -->
<g id="edge55" class="edge"><title>rx.algorithm.filter&#45;&gt;rx.util</title>
<path fill="none" stroke="black" d="M810.573,-288.017C833.718,-253.387 891.864,-175.257 963.766,-144 1018.17,-120.351 1921.23,-97.0049 2126.49,-91.9879"/>
<polygon fill="black" stroke="black" points="2126.64,-95.4853 2136.55,-91.7429 2126.47,-88.4873 2126.64,-95.4853"/>
</g>
<!-- rx.algorithm.filter&#45;&gt;std.functional -->
<g id="edge56" class="edge"><title>rx.algorithm.filter&#45;&gt;std.functional</title>
<path fill="none" stroke="black" d="M746.645,-293.673C737.36,-291.744 727.787,-289.788 718.766,-288 633.173,-271.038 602.849,-292.891 525.766,-252 496.748,-236.607 471.315,-208.358 455.351,-187.805"/>
<polygon fill="black" stroke="black" points="458.127,-185.673 449.308,-179.801 452.541,-189.891 458.127,-185.673"/>
</g>
<!-- rx.algorithm.filter&#45;&gt;std.range -->
<g id="edge57" class="edge"><title>rx.algorithm.filter&#45;&gt;std.range</title>
<path fill="none" stroke="black" d="M745.133,-294.033C703.939,-284.526 652.444,-269.555 639.766,-252 630.399,-239.029 631.245,-229.542 639.766,-216 679.149,-153.411 718.304,-163.015 789.766,-144 1002.93,-87.2802 1068.22,-149.982 1284.77,-108 1288.45,-107.287 1292.23,-106.399 1295.99,-105.407"/>
<polygon fill="black" stroke="black" points="1297.2,-108.701 1305.85,-102.583 1295.28,-101.972 1297.2,-108.701"/>
</g>
<!-- rx.algorithm.fold&#45;&gt;rx.disposable -->
<g id="edge58" class="edge"><title>rx.algorithm.fold&#45;&gt;rx.disposable</title>
<path fill="none" stroke="black" d="M1561.47,-295.699C1618.01,-286.296 1705.76,-270.534 1780.77,-252 1834,-238.847 1844.95,-226.477 1898.77,-216 2087.51,-179.259 2314.79,-167.948 2427.03,-164.496"/>
<polygon fill="black" stroke="black" points="2427.31,-167.989 2437.21,-164.195 2427.11,-160.992 2427.31,-167.989"/>
</g>
<!-- rx.algorithm.fold&#45;&gt;rx.observable -->
<g id="edge59" class="edge"><title>rx.algorithm.fold&#45;&gt;rx.observable</title>
<path fill="none" stroke="black" d="M1511.72,-288.055C1515.98,-280.007 1521.16,-270.205 1525.9,-261.226"/>
<polygon fill="black" stroke="black" points="1529.06,-262.752 1530.63,-252.275 1522.87,-259.481 1529.06,-262.752"/>
</g>
<!-- rx.algorithm.fold&#45;&gt;rx.observer -->
<g id="edge60" class="edge"><title>rx.algorithm.fold&#45;&gt;rx.observer</title>
<path fill="none" stroke="black" d="M1472.21,-289.669C1419.95,-263.446 1313.58,-210.075 1257.05,-181.705"/>
<polygon fill="black" stroke="black" points="1258.59,-178.565 1248.08,-177.209 1255.45,-184.822 1258.59,-178.565"/>
</g>
<!-- rx.algorithm.groupby&#45;&gt;rx.disposable -->
<g id="edge61" class="edge"><title>rx.algorithm.groupby&#45;&gt;rx.disposable</title>
<path fill="none" stroke="black" d="M1478.98,-375.364C1837.3,-368.475 3198.97,-341.385 3390.77,-324 3598.17,-305.201 3718.3,-410.165 3853.77,-252 3864.17,-239.848 3864.86,-227.532 3853.77,-216 3808.81,-169.258 2838.55,-163.712 2566.89,-163.077"/>
<polygon fill="black" stroke="black" points="2566.77,-159.576 2556.76,-163.054 2566.75,-166.576 2566.77,-159.576"/>
</g>
<!-- rx.algorithm.groupby&#45;&gt;rx.observable -->
<g id="edge62" class="edge"><title>rx.algorithm.groupby&#45;&gt;rx.observable</title>
<path fill="none" stroke="black" d="M1461.23,-366.765C1509.4,-358.002 1567.83,-343.672 1582.77,-324 1598.02,-303.909 1581.58,-277.545 1564.81,-258.738"/>
<polygon fill="black" stroke="black" points="1567.1,-256.062 1557.7,-251.18 1562,-260.86 1567.1,-256.062"/>
</g>
<!-- rx.algorithm.groupby&#45;&gt;rx.observer -->
<g id="edge63" class="edge"><title>rx.algorithm.groupby&#45;&gt;rx.observer</title>
<path fill="none" stroke="black" d="M1306.85,-374.66C1099.35,-368.59 586.021,-350.915 560.766,-324 508.279,-268.063 591.712,-255.629 760.766,-216 900.687,-183.2 1069.57,-170.352 1158.35,-165.593"/>
<polygon fill="black" stroke="black" points="1158.7,-169.08 1168.51,-165.066 1158.34,-162.089 1158.7,-169.08"/>
</g>
<!-- rx.algorithm.groupby&#45;&gt;rx.subject -->
<g id="edge64" class="edge"><title>rx.algorithm.groupby&#45;&gt;rx.subject</title>
<path fill="none" stroke="black" d="M1479.88,-376.651C1743.45,-375.123 2529.76,-366.989 2781.77,-324 2785.87,-323.3 2790.09,-322.379 2794.28,-321.326"/>
<polygon fill="black" stroke="black" points="2795.23,-324.695 2803.95,-318.674 2793.38,-317.944 2795.23,-324.695"/>
</g>
<!-- rx.algorithm.groupby&#45;&gt;rx.util -->
<g id="edge65" class="edge"><title>rx.algorithm.groupby&#45;&gt;rx.util</title>
<path fill="none" stroke="black" d="M1479.81,-376.526C1791.1,-374.496 2833.77,-364.675 2891.77,-324 2932.46,-295.462 2942.05,-260.913 2920.77,-216 2899.13,-170.334 2879.74,-162.62 2832.77,-144 2724.88,-101.238 2427.32,-118.806 2311.77,-108 2276.61,-104.712 2236.74,-99.9231 2207.89,-96.2654"/>
<polygon fill="black" stroke="black" points="2208.15,-92.7701 2197.78,-94.9739 2207.26,-99.7136 2208.15,-92.7701"/>
</g>
<!-- rx.algorithm.groupby&#45;&gt;std.functional -->
<g id="edge66" class="edge"><title>rx.algorithm.groupby&#45;&gt;std.functional</title>
<path fill="none" stroke="black" d="M1305.67,-376.807C1016.76,-375.743 105.847,-368.832 62.766,-324 -33.7613,-223.549 239.22,-182.426 371.034,-168.754"/>
<polygon fill="black" stroke="black" points="371.443,-172.23 381.039,-167.74 370.737,-165.266 371.443,-172.23"/>
</g>
<!-- rx.algorithm.groupby&#45;&gt;std.range -->
<g id="edge67" class="edge"><title>rx.algorithm.groupby&#45;&gt;std.range</title>
<path fill="none" stroke="black" d="M1305.7,-376.869C1013.5,-376.007 83.683,-369.671 39.766,-324 0.110964,-282.761 -38.0268,-235.408 74.766,-144 127.015,-101.657 1218.48,-119.382 1284.77,-108 1288.62,-107.338 1292.58,-106.461 1296.52,-105.452"/>
<polygon fill="black" stroke="black" points="1297.5,-108.81 1306.18,-102.725 1295.6,-102.074 1297.5,-108.81"/>
</g>
<!-- rx.algorithm.map&#45;&gt;rx.disposable -->
<g id="edge68" class="edge"><title>rx.algorithm.map&#45;&gt;rx.disposable</title>
<path fill="none" stroke="black" d="M502.27,-296.103C521.009,-293.415 541.731,-290.513 560.766,-288 692.588,-270.597 726.868,-275.359 857.766,-252 926.111,-239.804 940.965,-225.281 1009.77,-216 1288.78,-178.36 2170.74,-166.393 2426.57,-163.669"/>
<polygon fill="black" stroke="black" points="2426.88,-167.166 2436.84,-163.561 2426.81,-160.167 2426.88,-167.166"/>
</g>
<!-- rx.algorithm.map&#45;&gt;rx.observable -->
<g id="edge69" class="edge"><title>rx.algorithm.map&#45;&gt;rx.observable</title>
<path fill="none" stroke="black" d="M500.657,-295.543C519.787,-292.751 541.139,-289.929 560.766,-288 900.778,-254.575 1309.45,-240.983 1470.09,-236.671"/>
<polygon fill="black" stroke="black" points="1470.41,-240.164 1480.31,-236.4 1470.22,-233.166 1470.41,-240.164"/>
</g>
<!-- rx.algorithm.map&#45;&gt;rx.observer -->
<g id="edge70" class="edge"><title>rx.algorithm.map&#45;&gt;rx.observer</title>
<path fill="none" stroke="black" d="M483.067,-291.224C543.401,-271.618 659.485,-235.848 760.766,-216 901.987,-188.325 1070.69,-173.41 1159,-166.963"/>
<polygon fill="black" stroke="black" points="1159.38,-170.444 1169.11,-166.236 1158.88,-163.462 1159.38,-170.444"/>
</g>
<!-- rx.algorithm.map&#45;&gt;rx.util -->
<g id="edge71" class="edge"><title>rx.algorithm.map&#45;&gt;rx.util</title>
<path fill="none" stroke="black" d="M388.752,-293.657C349.156,-283.984 299.877,-268.976 287.766,-252 245.2,-192.334 360.583,-147.25 368.766,-144 410.969,-127.239 1860.72,-97.2 2126.23,-91.8323"/>
<polygon fill="black" stroke="black" points="2126.65,-95.3246 2136.58,-91.6234 2126.51,-88.326 2126.65,-95.3246"/>
</g>
<!-- rx.algorithm.map&#45;&gt;std.functional -->
<g id="edge72" class="edge"><title>rx.algorithm.map&#45;&gt;std.functional</title>
<path fill="none" stroke="black" d="M391.394,-292.99C354.474,-283.048 308.93,-268.005 297.766,-252 288.612,-238.877 288.673,-229.165 297.766,-216 314.669,-191.527 344.439,-178.343 372.193,-171.246"/>
<polygon fill="black" stroke="black" points="373.352,-174.57 382.3,-168.896 371.767,-167.751 373.352,-174.57"/>
</g>
<!-- rx.algorithm.map&#45;&gt;std.range -->
<g id="edge73" class="edge"><title>rx.algorithm.map&#45;&gt;std.range</title>
<path fill="none" stroke="black" d="M389.107,-293.622C379.683,-291.679 369.944,-289.731 360.766,-288 313.162,-279.023 177.064,-288.975 145.766,-252 114.754,-215.363 112.365,-178.473 145.766,-144 189.82,-98.5319 1222.38,-118.773 1284.77,-108 1288.62,-107.335 1292.58,-106.455 1296.52,-105.445"/>
<polygon fill="black" stroke="black" points="1297.5,-108.802 1306.18,-102.715 1295.6,-102.066 1297.5,-108.802"/>
</g>
<!-- rx.algorithm.merge&#45;&gt;rx.disposable -->
<g id="edge74" class="edge"><title>rx.algorithm.merge&#45;&gt;rx.disposable</title>
<path fill="none" stroke="black" d="M1816.14,-289.379C1858.66,-268.949 1937.49,-233.684 2008.77,-216 2154.81,-179.767 2331.54,-168.302 2427.15,-164.676"/>
<polygon fill="black" stroke="black" points="2427.41,-168.169 2437.28,-164.31 2427.16,-161.174 2427.41,-168.169"/>
</g>
<!-- rx.algorithm.merge&#45;&gt;rx.observable -->
<g id="edge75" class="edge"><title>rx.algorithm.merge&#45;&gt;rx.observable</title>
<path fill="none" stroke="black" d="M1737.53,-291.503C1695.6,-279.524 1634.47,-262.059 1591.3,-249.723"/>
<polygon fill="black" stroke="black" points="1592.13,-246.321 1581.55,-246.939 1590.21,-253.052 1592.13,-246.321"/>
</g>
<!-- rx.algorithm.merge&#45;&gt;rx.observer -->
<g id="edge76" class="edge"><title>rx.algorithm.merge&#45;&gt;rx.observer</title>
<path fill="none" stroke="black" d="M1736.61,-291.64C1709.05,-282.77 1674.55,-269.52 1646.77,-252 1627.09,-239.592 1629.75,-226.054 1608.77,-216 1552.06,-188.823 1374.99,-173.288 1280.54,-166.732"/>
<polygon fill="black" stroke="black" points="1280.77,-163.239 1270.55,-166.051 1280.29,-170.223 1280.77,-163.239"/>
</g>
<!-- rx.algorithm.merge&#45;&gt;rx.util -->
<g id="edge77" class="edge"><title>rx.algorithm.merge&#45;&gt;rx.util</title>
<path fill="none" stroke="black" d="M1803.16,-288.483C1824.93,-269.461 1862.78,-238.01 1898.77,-216 1978.42,-167.281 2080.18,-124.869 2132.78,-104.27"/>
<polygon fill="black" stroke="black" points="2134.26,-107.448 2142.32,-100.563 2131.73,-100.923 2134.26,-107.448"/>
</g>
<!-- rx.algorithm.merge&#45;&gt;std.range -->
<g id="edge78" class="edge"><title>rx.algorithm.merge&#45;&gt;std.range</title>
<path fill="none" stroke="black" d="M1789.4,-287.898C1793.59,-268.328 1796.91,-236.362 1780.77,-216 1731.82,-154.262 1495.45,-113.471 1389.42,-97.986"/>
<polygon fill="black" stroke="black" points="1389.67,-94.486 1379.27,-96.5234 1388.67,-101.414 1389.67,-94.486"/>
</g>
<!-- rx.algorithm.scan&#45;&gt;rx.disposable -->
<g id="edge79" class="edge"><title>rx.algorithm.scan&#45;&gt;rx.disposable</title>
<path fill="none" stroke="black" d="M1357.52,-288.146C1381.2,-266.879 1425.42,-231.239 1470.77,-216 1560.75,-185.762 2210.6,-169.163 2426.93,-164.43"/>
<polygon fill="black" stroke="black" points="2427.28,-167.924 2437.21,-164.207 2427.13,-160.925 2427.28,-167.924"/>
</g>
<!-- rx.algorithm.scan&#45;&gt;rx.observable -->
<g id="edge80" class="edge"><title>rx.algorithm.scan&#45;&gt;rx.observable</title>
<path fill="none" stroke="black" d="M1380.24,-290.834C1412.76,-279.454 1458.47,-263.452 1492.64,-251.495"/>
<polygon fill="black" stroke="black" points="1494.11,-254.688 1502.39,-248.081 1491.8,-248.081 1494.11,-254.688"/>
</g>
<!-- rx.algorithm.scan&#45;&gt;rx.observer -->
<g id="edge81" class="edge"><title>rx.algorithm.scan&#45;&gt;rx.observer</title>
<path fill="none" stroke="black" d="M1321.55,-288.481C1310.73,-278.345 1296.98,-264.879 1285.77,-252 1267.85,-231.429 1249.54,-206.341 1236.76,-188.051"/>
<polygon fill="black" stroke="black" points="1239.52,-185.899 1230.95,-179.669 1233.77,-189.883 1239.52,-185.899"/>
</g>
<!-- rx.algorithm.scan&#45;&gt;rx.util -->
<g id="edge82" class="edge"><title>rx.algorithm.scan&#45;&gt;rx.util</title>
<path fill="none" stroke="black" d="M1347.02,-287.922C1356.64,-267.44 1375.64,-233.664 1402.77,-216 1524.49,-136.739 1984.91,-102.267 2126.25,-93.4082"/>
<polygon fill="black" stroke="black" points="2126.87,-96.8768 2136.63,-92.7677 2126.44,-89.89 2126.87,-96.8768"/>
</g>
<!-- rx.algorithm.scan&#45;&gt;std.functional -->
<g id="edge83" class="edge"><title>rx.algorithm.scan&#45;&gt;std.functional</title>
<path fill="none" stroke="black" d="M1286.47,-293.523C1276.93,-291.591 1267.07,-289.672 1257.77,-288 976.724,-237.484 639.095,-190.23 501.149,-171.492"/>
<polygon fill="black" stroke="black" points="501.552,-168.015 491.172,-170.139 500.611,-174.951 501.552,-168.015"/>
</g>
<!-- rx.algorithm.scan&#45;&gt;std.range -->
<g id="edge84" class="edge"><title>rx.algorithm.scan&#45;&gt;std.range</title>
<path fill="none" stroke="black" d="M1333.11,-287.628C1329.56,-277.421 1325.56,-264.171 1323.77,-252 1316.84,-205.118 1325.15,-150.014 1331.6,-117.946"/>
<polygon fill="black" stroke="black" points="1335.06,-118.505 1333.7,-107.999 1328.21,-117.064 1335.06,-118.505"/>
</g>
<!-- rx.algorithm.scan&#45;&gt;std.typecons -->
<g id="edge85" class="edge"><title>rx.algorithm.scan&#45;&gt;std.typecons</title>
<path fill="none" stroke="black" d="M1393.76,-293.764C1403.41,-291.806 1413.38,-289.816 1422.77,-288 1503.07,-272.465 1596.1,-255.743 1654.93,-245.326"/>
<polygon fill="black" stroke="black" points="1655.55,-248.771 1664.79,-243.583 1654.33,-241.878 1655.55,-248.771"/>
</g>
<!-- rx.algorithm.tee&#45;&gt;rx.disposable -->
<g id="edge86" class="edge"><title>rx.algorithm.tee&#45;&gt;rx.disposable</title>
<path fill="none" stroke="black" d="M332.411,-293.259C341.767,-291.261 351.54,-289.386 360.766,-288 461.943,-272.795 726.275,-293.563 819.766,-252 841.024,-242.549 836.296,-224.96 857.766,-216 931.079,-185.405 2122.76,-167.868 2426.67,-163.879"/>
<polygon fill="black" stroke="black" points="2427.15,-167.373 2437.1,-163.743 2427.06,-160.374 2427.15,-167.373"/>
</g>
<!-- rx.algorithm.tee&#45;&gt;rx.observable -->
<g id="edge87" class="edge"><title>rx.algorithm.tee&#45;&gt;rx.observable</title>
<path fill="none" stroke="black" d="M331.969,-293.098C341.451,-291.088 351.385,-289.25 360.766,-288 577.31,-259.141 1251.14,-241.586 1470.2,-236.527"/>
<polygon fill="black" stroke="black" points="1470.37,-240.024 1480.28,-236.295 1470.21,-233.026 1470.37,-240.024"/>
</g>
<!-- rx.algorithm.tee&#45;&gt;rx.observer -->
<g id="edge88" class="edge"><title>rx.algorithm.tee&#45;&gt;rx.observer</title>
<path fill="none" stroke="black" d="M325.271,-291.637C387.15,-271.789 509.267,-234.841 615.766,-216 811.827,-181.315 1047.9,-168.951 1157.82,-164.859"/>
<polygon fill="black" stroke="black" points="1158.19,-168.348 1168.06,-164.489 1157.94,-161.353 1158.19,-168.348"/>
</g>
<!-- rx.algorithm.tee&#45;&gt;rx.util -->
<g id="edge89" class="edge"><title>rx.algorithm.tee&#45;&gt;rx.util</title>
<path fill="none" stroke="black" d="M279.947,-287.808C271.406,-253.15 258.492,-175.519 303.766,-144 323.123,-130.524 1853.13,-97.6373 2126.28,-91.8703"/>
<polygon fill="black" stroke="black" points="2126.62,-95.364 2136.55,-91.6538 2126.47,-88.3655 2126.62,-95.364"/>
</g>
<!-- rx.algorithm.tee&#45;&gt;std.functional -->
<g id="edge90" class="edge"><title>rx.algorithm.tee&#45;&gt;std.functional</title>
<path fill="none" stroke="black" d="M280.068,-287.76C275.878,-268.354 272.505,-236.825 287.766,-216 306.981,-189.78 340.233,-176.467 370.554,-169.735"/>
<polygon fill="black" stroke="black" points="371.586,-173.097 380.699,-167.695 370.206,-166.235 371.586,-173.097"/>
</g>
<!-- rx.algorithm.tee&#45;&gt;std.range -->
<g id="edge91" class="edge"><title>rx.algorithm.tee&#45;&gt;std.range</title>
<path fill="none" stroke="black" d="M238.289,-292.849C192.682,-280.463 128.938,-261.731 121.766,-252 93.2862,-213.359 87.3522,-178.463 120.766,-144 165.801,-97.5502 1221.01,-118.987 1284.77,-108 1288.62,-107.336 1292.58,-106.457 1296.52,-105.448"/>
<polygon fill="black" stroke="black" points="1297.5,-108.805 1306.18,-102.718 1295.6,-102.069 1297.5,-108.805"/>
</g>
<!-- rx.algorithm.uniq&#45;&gt;rx.disposable -->
<g id="edge92" class="edge"><title>rx.algorithm.uniq&#45;&gt;rx.disposable</title>
<path fill="none" stroke="black" d="M1002.79,-290.956C1063.67,-270.316 1183.56,-232.458 1288.77,-216 1510.41,-181.327 2203.99,-167.607 2426.97,-164.022"/>
<polygon fill="black" stroke="black" points="2427.29,-167.517 2437.23,-163.859 2427.18,-160.518 2427.29,-167.517"/>
</g>
<!-- rx.algorithm.uniq&#45;&gt;rx.observable -->
<g id="edge93" class="edge"><title>rx.algorithm.uniq&#45;&gt;rx.observable</title>
<path fill="none" stroke="black" d="M1023.26,-296.039C1042,-293.349 1062.72,-290.461 1081.77,-288 1221.32,-269.961 1385.17,-251.705 1474.15,-242.036"/>
<polygon fill="black" stroke="black" points="1474.8,-245.486 1484.36,-240.928 1474.05,-238.527 1474.8,-245.486"/>
</g>
<!-- rx.algorithm.uniq&#45;&gt;rx.observer -->
<g id="edge94" class="edge"><title>rx.algorithm.uniq&#45;&gt;rx.observer</title>
<path fill="none" stroke="black" d="M951.581,-287.934C940.325,-268.397 926.859,-236.462 943.766,-216 970.48,-183.668 1085.78,-170.859 1158.64,-165.933"/>
<polygon fill="black" stroke="black" points="1158.88,-169.426 1168.63,-165.289 1158.42,-162.44 1158.88,-169.426"/>
</g>
<!-- rx.algorithm.uniq&#45;&gt;rx.util -->
<g id="edge95" class="edge"><title>rx.algorithm.uniq&#45;&gt;rx.util</title>
<path fill="none" stroke="black" d="M948.583,-288.18C934.36,-269.16 916.697,-237.984 932.766,-216 994.974,-130.893 1055.06,-162.92 1158.77,-144 1349.16,-109.267 1960.96,-95.0337 2126.26,-91.7656"/>
<polygon fill="black" stroke="black" points="2126.57,-95.2605 2136.5,-91.5661 2126.43,-88.2618 2126.57,-95.2605"/>
</g>
<!-- rx.algorithm.uniq&#45;&gt;std.functional -->
<g id="edge96" class="edge"><title>rx.algorithm.uniq&#45;&gt;std.functional</title>
<path fill="none" stroke="black" d="M910.094,-293.689C900.672,-291.739 890.936,-289.771 881.766,-288 791.369,-270.542 766.622,-276.104 677.766,-252 606.544,-232.68 526.736,-200.976 479.449,-181.083"/>
<polygon fill="black" stroke="black" points="480.725,-177.823 470.152,-177.148 477.997,-184.269 480.725,-177.823"/>
</g>
<!-- rx.algorithm.uniq&#45;&gt;std.range -->
<g id="edge97" class="edge"><title>rx.algorithm.uniq&#45;&gt;std.range</title>
<path fill="none" stroke="black" d="M910.833,-293.499C850.549,-279.904 758.687,-258.324 753.766,-252 743.941,-239.372 743.642,-228.39 753.766,-216 906.147,-29.5061 1051.75,-168.87 1284.77,-108 1288.14,-107.118 1291.62,-106.148 1295.1,-105.13"/>
<polygon fill="black" stroke="black" points="1296.3,-108.425 1304.85,-102.174 1294.27,-101.726 1296.3,-108.425"/>
</g>
<!-- rx.disposable&#45;&gt;core.atomic -->
<g id="edge98" class="edge"><title>rx.disposable&#45;&gt;core.atomic</title>
<path fill="none" stroke="black" d="M2546.18,-151.787C2572.63,-144.337 2603.62,-131.125 2622.77,-108 2636.98,-90.8282 2641.3,-65.5498 2642.31,-46.3169"/>
<polygon fill="black" stroke="black" points="2645.82,-46.1584 2642.57,-36.0715 2638.82,-45.9781 2645.82,-46.1584"/>
</g>
<!-- rx.disposable&#45;&gt;core.internal.traits -->
<g id="edge99" class="edge"><title>rx.disposable&#45;&gt;core.internal.traits</title>
<path fill="none" stroke="black" d="M2554.24,-156.985C2723.56,-145.156 3220.92,-110.41 3417.49,-96.6781"/>
<polygon fill="black" stroke="black" points="3417.73,-100.17 3427.47,-95.9811 3417.25,-93.1866 3417.73,-100.17"/>
</g>
<!-- rx.disposable&#45;&gt;core.stdc.string -->
<g id="edge100" class="edge"><title>rx.disposable&#45;&gt;core.stdc.string</title>
<path fill="none" stroke="black" d="M2472.8,-145.465C2457.91,-135.813 2438.55,-123.266 2422.16,-112.647"/>
<polygon fill="black" stroke="black" points="2423.71,-109.479 2413.42,-106.977 2419.9,-115.353 2423.71,-109.479"/>
</g>
<!-- rx.disposable&#45;&gt;core.sync.mutex -->
<g id="edge101" class="edge"><title>rx.disposable&#45;&gt;core.sync.mutex</title>
<path fill="none" stroke="black" d="M2450.53,-150.372C2398.94,-138.111 2321.4,-118.318 2311.77,-108 2296.39,-91.5318 2292.25,-65.7966 2291.6,-46.2273"/>
<polygon fill="black" stroke="black" points="2295.1,-46.0694 2291.54,-36.0878 2288.1,-46.1059 2295.1,-46.0694"/>
</g>
<!-- rx.disposable&#45;&gt;rx.util -->
<g id="edge102" class="edge"><title>rx.disposable&#45;&gt;rx.util</title>
<path fill="none" stroke="black" d="M2451.01,-150.331C2441.67,-148.198 2431.91,-146 2422.77,-144 2346.47,-127.31 2257.06,-109.016 2206.95,-98.8794"/>
<polygon fill="black" stroke="black" points="2207.37,-95.3933 2196.87,-96.8436 2205.98,-102.255 2207.37,-95.3933"/>
</g>
<!-- std.concurrency -->
<g id="node34" class="node"><title>std.concurrency</title>
<ellipse fill="none" stroke="black" cx="2543.77" cy="-90" rx="69.5877" ry="18"/>
<text text-anchor="middle" x="2543.77" y="-86.3" font-family="Times New Roman,serif" font-size="14.00">std.concurrency</text>
</g>
<!-- rx.disposable&#45;&gt;std.concurrency -->
<g id="edge103" class="edge"><title>rx.disposable&#45;&gt;std.concurrency</title>
<path fill="none" stroke="black" d="M2508.14,-144.055C2513.74,-135.715 2520.61,-125.491 2526.81,-116.252"/>
<polygon fill="black" stroke="black" points="2529.82,-118.042 2532.49,-107.789 2524.01,-114.14 2529.82,-118.042"/>
</g>
<!-- rx.observable&#45;&gt;rx.disposable -->
<g id="edge104" class="edge"><title>rx.observable&#45;&gt;rx.disposable</title>
<path fill="none" stroke="black" d="M1589.71,-224.054C1607.65,-221.109 1628.07,-218.063 1646.77,-216 1935.78,-184.104 2282.35,-169.936 2427.5,-165.082"/>
<polygon fill="black" stroke="black" points="2427.72,-168.577 2437.6,-164.748 2427.49,-161.58 2427.72,-168.577"/>
</g>
<!-- rx.observable&#45;&gt;rx.observer -->
<g id="edge105" class="edge"><title>rx.observable&#45;&gt;rx.observer</title>
<path fill="none" stroke="black" d="M1492.89,-222.746C1434.1,-209.886 1333.6,-187.9 1272.28,-174.487"/>
<polygon fill="black" stroke="black" points="1272.93,-171.047 1262.41,-172.329 1271.43,-177.885 1272.93,-171.047"/>
</g>
<!-- rx.observable&#45;&gt;rx.util -->
<g id="edge106" class="edge"><title>rx.observable&#45;&gt;rx.util</title>
<path fill="none" stroke="black" d="M1584.91,-222.077C1655.87,-204.978 1797.9,-171.051 1918.77,-144 1993.06,-127.373 2080.1,-109.126 2129.11,-98.9673"/>
<polygon fill="black" stroke="black" points="2129.88,-102.38 2138.97,-96.9257 2128.47,-95.5258 2129.88,-102.38"/>
</g>
<!-- rx.observable&#45;&gt;std.functional -->
<g id="edge107" class="edge"><title>rx.observable&#45;&gt;std.functional</title>
<path fill="none" stroke="black" d="M1481.68,-229.311C1294.39,-217.413 706.892,-180.095 505.952,-167.331"/>
<polygon fill="black" stroke="black" points="506.027,-163.829 495.825,-166.688 505.583,-170.815 506.027,-163.829"/>
</g>
<!-- rx.observable&#45;&gt;std.range -->
<g id="edge108" class="edge"><title>rx.observable&#45;&gt;std.range</title>
<path fill="none" stroke="black" d="M1517.38,-217.261C1480.74,-191.509 1408,-140.372 1367.23,-111.709"/>
<polygon fill="black" stroke="black" points="1369.23,-108.839 1359.03,-105.951 1365.2,-114.565 1369.23,-108.839"/>
</g>
<!-- rx.observer&#45;&gt;std.range -->
<g id="edge109" class="edge"><title>rx.observer&#45;&gt;std.range</title>
<path fill="none" stroke="black" d="M1244.79,-146.155C1262.31,-135.761 1285.9,-121.77 1304.93,-110.481"/>
<polygon fill="black" stroke="black" points="1306.77,-113.457 1313.58,-105.345 1303.2,-107.437 1306.77,-113.457"/>
</g>
<!-- std.typetuple -->
<g id="node41" class="node"><title>std.typetuple</title>
<ellipse fill="none" stroke="black" cx="1217.77" cy="-90" rx="57.6901" ry="18"/>
<text text-anchor="middle" x="1217.77" y="-86.3" font-family="Times New Roman,serif" font-size="14.00">std.typetuple</text>
</g>
<!-- rx.observer&#45;&gt;std.typetuple -->
<g id="edge110" class="edge"><title>rx.observer&#45;&gt;std.typetuple</title>
<path fill="none" stroke="black" d="M1219.27,-143.697C1219.05,-135.983 1218.79,-126.712 1218.54,-118.112"/>
<polygon fill="black" stroke="black" points="1222.04,-118 1218.25,-108.104 1215.04,-118.2 1222.04,-118"/>
</g>
<!-- rx.range.drop -->
<g id="node27" class="node"><title>rx.range.drop</title>
<ellipse fill="none" stroke="black" cx="2246.77" cy="-306" rx="59.5901" ry="18"/>
<text text-anchor="middle" x="2246.77" y="-302.3" font-family="Times New Roman,serif" font-size="14.00">rx.range.drop</text>
</g>
<!-- rx.range&#45;&gt;rx.range.drop -->
<g id="edge111" class="edge"><title>rx.range&#45;&gt;rx.range.drop</title>
<path fill="none" stroke="black" d="M2500.31,-368.626C2451.05,-356.653 2360,-334.523 2301.47,-320.296"/>
<polygon fill="black" stroke="black" points="2302.2,-316.871 2291.65,-317.91 2300.54,-323.673 2302.2,-316.871"/>
</g>
<!-- rx.range.take -->
<g id="node28" class="node"><title>rx.range.take</title>
<ellipse fill="none" stroke="black" cx="2385.77" cy="-306" rx="57.3905" ry="18"/>
<text text-anchor="middle" x="2385.77" y="-302.3" font-family="Times New Roman,serif" font-size="14.00">rx.range.take</text>
</g>
<!-- rx.range&#45;&gt;rx.range.take -->
<g id="edge112" class="edge"><title>rx.range&#45;&gt;rx.range.take</title>
<path fill="none" stroke="black" d="M2508.13,-364.485C2485.17,-353.698 2451.69,-337.969 2425.55,-325.689"/>
<polygon fill="black" stroke="black" points="2426.82,-322.421 2416.28,-321.337 2423.85,-328.757 2426.82,-322.421"/>
</g>
<!-- rx.range.takeLast -->
<g id="node29" class="node"><title>rx.range.takeLast</title>
<ellipse fill="none" stroke="black" cx="2699.77" cy="-306" rx="72.5877" ry="18"/>
<text text-anchor="middle" x="2699.77" y="-302.3" font-family="Times New Roman,serif" font-size="14.00">rx.range.takeLast</text>
</g>
<!-- rx.range&#45;&gt;rx.range.takeLast -->
<g id="edge113" class="edge"><title>rx.range&#45;&gt;rx.range.takeLast</title>
<path fill="none" stroke="black" d="M2563.13,-364.967C2588.49,-354.208 2626.06,-338.267 2655.4,-325.823"/>
<polygon fill="black" stroke="black" points="2656.77,-329.045 2664.6,-321.917 2654.03,-322.601 2656.77,-329.045"/>
</g>
<!-- rx.range.takeUntil -->
<g id="node42" class="node"><title>rx.range.takeUntil</title>
<ellipse fill="#e6ffed" stroke="#bef5cb" cx="2534.77" cy="-306" rx="74.187" ry="18"/>
<text text-anchor="middle" x="2534.77" y="-302.3" font-family="Times New Roman,serif" font-size="14.00">rx.range.takeUntil</text>
</g>
<!-- rx.range&#45;&gt;rx.range.takeUntil -->
<g id="edge148" class="edge"><title>rx.range&#45;&gt;rx.range.takeUntil</title>
<path fill="none" stroke="#2cbe4e" d="M2534.77,-359.697C2534.77,-351.983 2534.77,-342.712 2534.77,-334.112"/>
<polygon fill="#2cbe4e" stroke="#2cbe4e" points="2538.27,-334.104 2534.77,-324.104 2531.27,-334.104 2538.27,-334.104"/>
</g>
<!-- rx.range.drop&#45;&gt;rx.disposable -->
<g id="edge114" class="edge"><title>rx.range.drop&#45;&gt;rx.disposable</title>
<path fill="none" stroke="black" d="M2292.04,-294.019C2349.38,-279.972 2441.52,-256.871 2447.77,-252 2467.99,-236.219 2481.05,-209.645 2488.56,-189.635"/>
<polygon fill="black" stroke="black" points="2491.88,-190.733 2491.9,-180.138 2485.28,-188.411 2491.88,-190.733"/>
</g>
<!-- rx.range.drop&#45;&gt;rx.observable -->
<g id="edge115" class="edge"><title>rx.range.drop&#45;&gt;rx.observable</title>
<path fill="none" stroke="black" d="M2193.48,-297.812C2168.15,-294.542 2137.43,-290.79 2109.77,-288 1904.41,-267.286 1851.74,-276.212 1646.77,-252 1631.66,-250.216 1615.43,-247.864 1600.29,-245.479"/>
<polygon fill="black" stroke="black" points="1600.43,-241.958 1590,-243.83 1599.32,-248.87 1600.43,-241.958"/>
</g>
<!-- rx.range.drop&#45;&gt;rx.observer -->
<g id="edge116" class="edge"><title>rx.range.drop&#45;&gt;rx.observer</title>
<path fill="none" stroke="black" d="M2228.62,-288.566C2203.99,-267.403 2157.65,-231.507 2110.77,-216 1956.69,-165.037 1458.29,-161.988 1282.14,-162.565"/>
<polygon fill="black" stroke="black" points="1281.99,-159.065 1272.01,-162.603 1282.02,-166.065 1281.99,-159.065"/>
</g>
<!-- rx.range.drop&#45;&gt;rx.util -->
<g id="edge117" class="edge"><title>rx.range.drop&#45;&gt;rx.util</title>
<path fill="none" stroke="black" d="M2253.15,-287.859C2258.97,-269.63 2265.56,-240.152 2257.77,-216 2244.56,-175.071 2212.43,-136.236 2190.36,-113.015"/>
<polygon fill="black" stroke="black" points="2192.79,-110.488 2183.31,-105.759 2187.77,-115.368 2192.79,-110.488"/>
</g>
<!-- rx.range.drop&#45;&gt;std.range -->
<g id="edge118" class="edge"><title>rx.range.drop&#45;&gt;std.range</title>
<path fill="none" stroke="black" d="M2235.26,-288.138C2220.22,-267.546 2191.88,-233.326 2158.77,-216 2023.6,-145.285 1550.95,-106.069 1391.08,-94.5939"/>
<polygon fill="black" stroke="black" points="1391.23,-91.096 1381.01,-93.8782 1390.74,-98.0784 1391.23,-91.096"/>
</g>
<!-- rx.range.take&#45;&gt;rx.disposable -->
<g id="edge119" class="edge"><title>rx.range.take&#45;&gt;rx.disposable</title>
<path fill="none" stroke="black" d="M2429.05,-294.122C2465.22,-284.055 2512.61,-268.234 2523.77,-252 2536.95,-232.814 2526.72,-207.012 2515.27,-188.13"/>
<polygon fill="black" stroke="black" points="2518.2,-186.219 2509.82,-179.733 2512.33,-190.028 2518.2,-186.219"/>
</g>
<!-- rx.range.take&#45;&gt;rx.observable -->
<g id="edge120" class="edge"><title>rx.range.take&#45;&gt;rx.observable</title>
<path fill="none" stroke="black" d="M2344.19,-293.569C2334.9,-291.389 2325.05,-289.365 2315.77,-288 2021.17,-244.68 1942.87,-283.403 1646.77,-252 1631.42,-250.373 1614.93,-248.043 1599.59,-245.628"/>
<polygon fill="black" stroke="black" points="1600.13,-242.17 1589.7,-244.035 1599.02,-249.081 1600.13,-242.17"/>
</g>
<!-- rx.range.take&#45;&gt;rx.observer -->
<g id="edge121" class="edge"><title>rx.range.take&#45;&gt;rx.observer</title>
<path fill="none" stroke="black" d="M2353.61,-290.929C2300.73,-268.041 2197.43,-224.445 2158.77,-216 1990.74,-179.305 1463.4,-167.113 1281.88,-163.945"/>
<polygon fill="black" stroke="black" points="1281.77,-160.443 1271.71,-163.771 1281.65,-167.442 1281.77,-160.443"/>
</g>
<!-- rx.range.take&#45;&gt;rx.util -->
<g id="edge122" class="edge"><title>rx.range.take&#45;&gt;rx.util</title>
<path fill="none" stroke="black" d="M2426.56,-293.191C2469.91,-280.323 2533.37,-260.443 2541.77,-252 2576.43,-217.131 2598.16,-180.993 2565.77,-144 2562.82,-140.637 2308.79,-108.601 2208.16,-96.0287"/>
<polygon fill="black" stroke="black" points="2208.43,-92.535 2198.07,-94.7692 2207.56,-99.4811 2208.43,-92.535"/>
</g>
<!-- rx.range.take&#45;&gt;std.range -->
<g id="edge123" class="edge"><title>rx.range.take&#45;&gt;std.range</title>
<path fill="none" stroke="black" d="M2357.26,-290.357C2320.49,-271.771 2254.31,-239.328 2195.77,-216 2101.37,-178.383 2078.33,-164.33 1978.77,-144 1764.94,-100.336 1503.99,-92.4511 1392.5,-91.1641"/>
<polygon fill="black" stroke="black" points="1392.22,-87.6612 1382.19,-91.0592 1392.15,-94.6608 1392.22,-87.6612"/>
</g>
<!-- rx.range.takeLast&#45;&gt;rx.disposable -->
<g id="edge124" class="edge"><title>rx.range.takeLast&#45;&gt;rx.disposable</title>
<path fill="none" stroke="black" d="M2678.19,-288.521C2654.21,-270.346 2614.18,-240.437 2578.77,-216 2563.02,-205.136 2545.22,-193.551 2530.24,-183.991"/>
<polygon fill="black" stroke="black" points="2532.1,-181.026 2521.78,-178.618 2528.35,-186.935 2532.1,-181.026"/>
</g>
<!-- rx.range.takeLast&#45;&gt;rx.observable -->
<g id="edge125" class="edge"><title>rx.range.takeLast&#45;&gt;rx.observable</title>
<path fill="none" stroke="black" d="M2648.81,-293.059C2638.58,-291.052 2627.87,-289.226 2617.77,-288 2189.06,-235.985 2076.58,-293.957 1646.77,-252 1631.33,-250.493 1614.74,-248.194 1599.34,-245.769"/>
<polygon fill="black" stroke="black" points="1599.85,-242.305 1589.42,-244.164 1598.73,-249.216 1599.85,-242.305"/>
</g>
<!-- rx.range.takeLast&#45;&gt;rx.observer -->
<g id="edge126" class="edge"><title>rx.range.takeLast&#45;&gt;rx.observer</title>
<path fill="none" stroke="black" d="M2646.91,-293.613C2637.24,-291.65 2627.21,-289.698 2617.77,-288 2513.34,-269.224 2484.77,-277.459 2381.77,-252 2334.28,-240.264 2325.78,-225.317 2277.77,-216 2085.1,-178.617 1478.29,-166.728 1281.82,-163.808"/>
<polygon fill="black" stroke="black" points="1281.72,-160.306 1271.67,-163.66 1281.62,-167.306 1281.72,-160.306"/>
</g>
<!-- rx.range.takeLast&#45;&gt;rx.util -->
<g id="edge127" class="edge"><title>rx.range.takeLast&#45;&gt;rx.util</title>
<path fill="none" stroke="black" d="M2759.16,-295.502C2784.77,-288.141 2812.33,-275.097 2827.77,-252 2836.66,-238.697 2835.82,-229.825 2827.77,-216 2795.1,-159.936 2762.67,-163.423 2700.77,-144 2535.1,-92.024 2484.44,-126.18 2311.77,-108 2276.76,-104.314 2237.03,-99.5832 2208.19,-96.0482"/>
<polygon fill="black" stroke="black" points="2208.43,-92.5522 2198.08,-94.8041 2207.58,-99.4998 2208.43,-92.5522"/>
</g>
<!-- rx.range.takeLast&#45;&gt;std.range -->
<g id="edge128" class="edge"><title>rx.range.takeLast&#45;&gt;std.range</title>
<path fill="none" stroke="black" d="M2694.33,-287.936C2682.35,-253.514 2650.07,-176.297 2592.77,-144 2539.79,-114.144 1626.23,-96.0771 1392.09,-91.9232"/>
<polygon fill="black" stroke="black" points="1391.84,-88.4183 1381.78,-91.7415 1391.71,-95.4173 1391.84,-88.4183"/>
</g>
<!-- rx.scheduler&#45;&gt;core.internal.traits -->
<g id="edge129" class="edge"><title>rx.scheduler&#45;&gt;core.internal.traits</title>
<path fill="none" stroke="black" d="M3381.63,-303.561C3510.2,-299.625 3822.5,-286.568 3853.77,-252 3939.4,-157.321 3706.07,-114.754 3577.35,-98.909"/>
<polygon fill="black" stroke="black" points="3577.48,-95.3992 3567.13,-97.6799 3576.64,-102.349 3577.48,-95.3992"/>
</g>
<!-- rx.scheduler&#45;&gt;core.thread -->
<g id="edge130" class="edge"><title>rx.scheduler&#45;&gt;core.thread</title>
<path fill="none" stroke="black" d="M3290.12,-292.485C3255.65,-280.717 3203.96,-263.067 3166.96,-250.431"/>
<polygon fill="black" stroke="black" points="3168.01,-247.091 3157.41,-247.172 3165.74,-253.716 3168.01,-247.091"/>
</g>
<!-- rx.scheduler&#45;&gt;core.time -->
<g id="edge131" class="edge"><title>rx.scheduler&#45;&gt;core.time</title>
<path fill="none" stroke="black" d="M3306.12,-289.116C3293.61,-279.495 3277.49,-267.095 3263.84,-256.593"/>
<polygon fill="black" stroke="black" points="3265.77,-253.663 3255.71,-250.34 3261.5,-259.211 3265.77,-253.663"/>
</g>
<!-- rx.scheduler&#45;&gt;rx.disposable -->
<g id="edge132" class="edge"><title>rx.scheduler&#45;&gt;rx.disposable</title>
<path fill="none" stroke="black" d="M3381.5,-303.345C3506.57,-298.999 3804.83,-285.225 3834.77,-252 3845.48,-240.114 3845.85,-227.535 3834.77,-216 3790.5,-169.951 2835.91,-163.906 2566.81,-163.117"/>
<polygon fill="black" stroke="black" points="2566.78,-159.617 2556.77,-163.089 2566.77,-166.617 2566.78,-159.617"/>
</g>
<!-- rx.scheduler&#45;&gt;rx.observable -->
<g id="edge133" class="edge"><title>rx.scheduler&#45;&gt;rx.observable</title>
<path fill="none" stroke="black" d="M3272.18,-302.689C3189.77,-299.24 3028.67,-292.654 2891.77,-288 2338.52,-269.191 2197.93,-303.537 1646.77,-252 1631.25,-250.549 1614.57,-248.257 1599.1,-245.82"/>
<polygon fill="black" stroke="black" points="1599.57,-242.35 1589.14,-244.204 1598.45,-249.26 1599.57,-242.35"/>
</g>
<!-- rx.scheduler&#45;&gt;rx.observer -->
<g id="edge134" class="edge"><title>rx.scheduler&#45;&gt;rx.observer</title>
<path fill="none" stroke="black" d="M3324.9,-287.784C3321.61,-266.828 3312.67,-232.232 3288.77,-216 3246.19,-187.097 1622.42,-167.475 1281.97,-163.674"/>
<polygon fill="black" stroke="black" points="1281.85,-160.173 1271.81,-163.561 1281.77,-167.172 1281.85,-160.173"/>
</g>
<!-- std.algorithm.internal -->
<g id="node33" class="node"><title>std.algorithm.internal</title>
<ellipse fill="none" stroke="black" cx="3459.77" cy="-234" rx="86.3847" ry="18"/>
<text text-anchor="middle" x="3459.77" y="-230.3" font-family="Times New Roman,serif" font-size="14.00">std.algorithm.internal</text>
</g>
<!-- rx.scheduler&#45;&gt;std.algorithm.internal -->
<g id="edge135" class="edge"><title>rx.scheduler&#45;&gt;std.algorithm.internal</title>
<path fill="none" stroke="black" d="M3354.65,-290.326C3373.76,-280.268 3399.38,-266.784 3420.54,-255.645"/>
<polygon fill="black" stroke="black" points="3422.39,-258.628 3429.61,-250.873 3419.13,-252.433 3422.39,-258.628"/>
</g>
<!-- std.exception -->
<g id="node35" class="node"><title>std.exception</title>
<ellipse fill="none" stroke="black" cx="3623.77" cy="-234" rx="59.5901" ry="18"/>
<text text-anchor="middle" x="3623.77" y="-230.3" font-family="Times New Roman,serif" font-size="14.00">std.exception</text>
</g>
<!-- rx.scheduler&#45;&gt;std.exception -->
<g id="edge136" class="edge"><title>rx.scheduler&#45;&gt;std.exception</title>
<path fill="none" stroke="black" d="M3370.94,-294.912C3416.9,-284.375 3490.94,-267.281 3554.77,-252 3559.47,-250.874 3564.35,-249.695 3569.24,-248.505"/>
<polygon fill="black" stroke="black" points="3570.36,-251.833 3579.25,-246.06 3568.7,-245.033 3570.36,-251.833"/>
</g>
<!-- std.parallelism -->
<g id="node38" class="node"><title>std.parallelism</title>
<ellipse fill="none" stroke="black" cx="3763.77" cy="-234" rx="62.2891" ry="18"/>
<text text-anchor="middle" x="3763.77" y="-230.3" font-family="Times New Roman,serif" font-size="14.00">std.parallelism</text>
</g>
<!-- rx.scheduler&#45;&gt;std.parallelism -->
<g id="edge137" class="edge"><title>rx.scheduler&#45;&gt;std.parallelism</title>
<path fill="none" stroke="black" d="M3377.93,-299.086C3448.92,-290.542 3581.16,-273.397 3692.77,-252 3697.85,-251.026 3703.12,-249.93 3708.38,-248.776"/>
<polygon fill="black" stroke="black" points="3709.46,-252.119 3718.45,-246.502 3707.92,-245.291 3709.46,-252.119"/>
</g>
<!-- rx.scheduler&#45;&gt;std.range -->
<g id="edge138" class="edge"><title>rx.scheduler&#45;&gt;std.range</title>
<path fill="none" stroke="black" d="M3330.33,-287.78C3333.36,-267.793 3334.77,-235.136 3316.77,-216 3189.07,-80.3111 3089.1,-163.197 2903.77,-144 2751.14,-128.191 1651.14,-99.08 1392.24,-92.3939"/>
<polygon fill="black" stroke="black" points="1392.05,-88.8879 1381.96,-92.1289 1391.87,-95.8856 1392.05,-88.8879"/>
</g>
<!-- rx.subject&#45;&gt;core.atomic -->
<g id="edge139" class="edge"><title>rx.subject&#45;&gt;core.atomic</title>
<path fill="none" stroke="black" d="M2869.91,-293.387C2888.45,-284.99 2909.94,-271.63 2920.77,-252 2928.49,-237.989 2927.62,-230.459 2920.77,-216 2874.84,-119.092 2754.56,-60.7866 2687.9,-34.9074"/>
<polygon fill="black" stroke="black" points="2689.06,-31.6043 2678.47,-31.3237 2686.57,-38.1478 2689.06,-31.6043"/>
</g>
<!-- rx.subject&#45;&gt;rx.disposable -->
<g id="edge140" class="edge"><title>rx.subject&#45;&gt;rx.disposable</title>
<path fill="none" stroke="black" d="M2806.29,-292.273C2745.58,-266.917 2609.39,-210.035 2539.67,-180.918"/>
<polygon fill="black" stroke="black" points="2540.86,-177.624 2530.29,-177 2538.16,-184.083 2540.86,-177.624"/>
</g>
<!-- rx.subject&#45;&gt;rx.observable -->
<g id="edge141" class="edge"><title>rx.subject&#45;&gt;rx.observable</title>
<path fill="none" stroke="black" d="M2803.96,-293.29C2796.73,-291.155 2789.06,-289.22 2781.77,-288 2283.98,-204.733 2149.21,-299.691 1646.77,-252 1631.25,-250.527 1614.57,-248.227 1599.11,-245.79"/>
<polygon fill="black" stroke="black" points="1599.57,-242.32 1589.14,-244.175 1598.45,-249.23 1599.57,-242.32"/>
</g>
<!-- rx.subject&#45;&gt;rx.observer -->
<g id="edge142" class="edge"><title>rx.subject&#45;&gt;rx.observer</title>
<path fill="none" stroke="black" d="M2802.93,-293.747C2795.98,-291.659 2788.67,-289.627 2781.77,-288 2589.74,-242.765 2539.96,-236.681 2343.77,-216 1940.38,-173.479 1451.94,-165.068 1281.77,-163.407"/>
<polygon fill="black" stroke="black" points="1281.78,-159.907 1271.75,-163.314 1281.71,-166.907 1281.78,-159.907"/>
</g>
<!-- rx.subject&#45;&gt;rx.util -->
<g id="edge143" class="edge"><title>rx.subject&#45;&gt;rx.util</title>
<path fill="none" stroke="black" d="M2864.06,-291.316C2878.75,-282.338 2895.5,-269.088 2903.77,-252 2910.74,-237.598 2912.1,-229.658 2903.77,-216 2867.32,-156.273 2831.06,-163.151 2763.77,-144 2569.94,-88.8413 2512.31,-127.817 2311.77,-108 2276.74,-104.539 2237.01,-99.7867 2208.17,-96.1867"/>
<polygon fill="black" stroke="black" points="2208.43,-92.6913 2198.07,-94.9171 2207.56,-99.6367 2208.43,-92.6913"/>
</g>
<!-- rx.subject&#45;&gt;std.range -->
<g id="edge144" class="edge"><title>rx.subject&#45;&gt;std.range</title>
<path fill="none" stroke="black" d="M2822.65,-288.725C2791.68,-254.355 2713.71,-174.993 2628.77,-144 2569.88,-122.513 1629.37,-98.1373 1391.89,-92.303"/>
<polygon fill="black" stroke="black" points="1391.86,-88.8012 1381.77,-92.0552 1391.68,-95.7991 1391.86,-88.8012"/>
</g>
<!-- rx.util&#45;&gt;core.atomic -->
<g id="edge145" class="edge"><title>rx.util&#45;&gt;core.atomic</title>
<path fill="none" stroke="black" d="M2197.78,-84.5681C2275,-73.1637 2481.64,-42.6474 2583.44,-27.6132"/>
<polygon fill="black" stroke="black" points="2584.17,-31.0438 2593.55,-26.1204 2583.15,-24.1189 2584.17,-31.0438"/>
</g>
<!-- rx.util&#45;&gt;core.sync.condition -->
<g id="edge146" class="edge"><title>rx.util&#45;&gt;core.sync.condition</title>
<path fill="none" stroke="black" d="M2156.87,-72.7646C2151.22,-64.3538 2144.19,-53.8904 2137.84,-44.4356"/>
<polygon fill="black" stroke="black" points="2140.74,-42.4751 2132.26,-36.1239 2134.93,-46.3772 2140.74,-42.4751"/>
</g>
<!-- rx.util&#45;&gt;core.sync.mutex -->
<g id="edge147" class="edge"><title>rx.util&#45;&gt;core.sync.mutex</title>
<path fill="none" stroke="black" d="M2189.54,-76.8069C2207.78,-66.5931 2234.21,-51.7896 2255.77,-39.7204"/>
<polygon fill="black" stroke="black" points="2257.65,-42.6765 2264.66,-34.7366 2254.23,-36.5689 2257.65,-42.6765"/>
</g>
<!-- rx.range.takeUntil&#45;&gt;rx.disposable -->
<g id="edge149" class="edge"><title>rx.range.takeUntil&#45;&gt;rx.disposable</title>
<path fill="none" stroke="#2cbe4e" d="M2547.12,-288.046C2558.85,-269.718 2573.13,-239.92 2561.77,-216 2555.64,-203.108 2544.68,-192.319 2533.48,-183.912"/>
<polygon fill="#2cbe4e" stroke="#2cbe4e" points="2535.15,-180.808 2524.95,-177.952 2531.14,-186.547 2535.15,-180.808"/>
</g>
<!-- rx.range.takeUntil&#45;&gt;rx.observable -->
<g id="edge150" class="edge"><title>rx.range.takeUntil&#45;&gt;rx.observable</title>
<path fill="none" stroke="#2cbe4e" d="M2482.73,-293.038C2472.51,-291.059 2461.84,-289.249 2451.77,-288 2096.35,-243.933 2003.07,-288.155 1646.77,-252 1631.34,-250.435 1614.75,-248.114 1599.35,-245.688"/>
<polygon fill="#2cbe4e" stroke="#2cbe4e" points="1599.86,-242.224 1589.42,-244.085 1598.74,-249.135 1599.86,-242.224"/>
</g>
<!-- rx.range.takeUntil&#45;&gt;rx.observer -->
<g id="edge151" class="edge"><title>rx.range.takeUntil&#45;&gt;rx.observer</title>
<path fill="none" stroke="#2cbe4e" d="M2480.66,-293.638C2423.65,-281.459 2337.76,-262.468 2305.77,-252 2267.16,-239.371 2261.32,-225.215 2221.77,-216 2041.74,-174.063 1471.6,-165.234 1281.86,-163.44"/>
<polygon fill="#2cbe4e" stroke="#2cbe4e" points="1281.81,-159.94 1271.78,-163.348 1281.75,-166.94 1281.81,-159.94"/>
</g>
<!-- rx.range.takeUntil&#45;&gt;rx.util -->
<g id="edge152" class="edge"><title>rx.range.takeUntil&#45;&gt;rx.util</title>
<path fill="none" stroke="#2cbe4e" d="M2584.84,-292.643C2620.87,-282.624 2664.94,-267.641 2675.77,-252 2703.09,-212.537 2707.99,-179.572 2675.77,-144 2648.48,-113.881 2352.17,-112.383 2311.77,-108 2276.77,-104.204 2237.04,-99.4832 2208.2,-95.9801"/>
<polygon fill="#2cbe4e" stroke="#2cbe4e" points="2208.44,-92.4839 2198.09,-94.7486 2207.59,-99.4325 2208.44,-92.4839"/>
</g>
<!-- rx.range.takeUntil&#45;&gt;std.range -->
<g id="edge153" class="edge"><title>rx.range.takeUntil&#45;&gt;std.range</title>
<path fill="none" stroke="#2cbe4e" d="M2553.78,-288.383C2563.25,-278.819 2573.73,-265.948 2578.77,-252 2595.18,-206.526 2602.19,-175.793 2565.77,-144 2543.34,-124.424 1626.58,-98.6961 1391.99,-92.4236"/>
<polygon fill="#2cbe4e" stroke="#2cbe4e" points="1391.75,-88.9161 1381.66,-92.1482 1391.57,-95.9136 1391.75,-88.9161"/>
</g>
</g>
</svg>
