<?xml version="1.0" encoding="UTF-8" standalone="no"?>
<!DOCTYPE svg PUBLIC "-//W3C//DTD SVG 1.1//EN"
 "http://www.w3.org/Graphics/SVG/1.1/DTD/svg11.dtd">
<!-- Generated by graphviz version 2.38.0 (20140413.2041)
 -->
<!-- Title: %3 Pages: 1 -->
<svg width="4032pt" height="548pt"
 viewBox="0.00 0.00 4032.38 548.00" xmlns="http://www.w3.org/2000/svg" xmlns:xlink="http://www.w3.org/1999/xlink">
<g id="graph0" class="graph" transform="scale(1 1) rotate(0) translate(4 544)">
<title>%3</title>
<polygon fill="white" stroke="none" points="-4,4 -4,-544 4028.38,-544 4028.38,4 -4,4"/>
<!-- core.atomic -->
<g id="node1" class="node"><title>core.atomic</title>
<ellipse fill="none" stroke="black" cx="1203.38" cy="-18" rx="53.8905" ry="18"/>
<text text-anchor="middle" x="1203.38" y="-14.3" font-family="Times New Roman,serif" font-size="14.00">core.atomic</text>
</g>
<!-- core.internal.traits -->
<g id="node2" class="node"><title>core.internal.traits</title>
<ellipse fill="none" stroke="black" cx="1982.38" cy="-90" rx="75.2868" ry="18"/>
<text text-anchor="middle" x="1982.38" y="-86.3" font-family="Times New Roman,serif" font-size="14.00">core.internal.traits</text>
</g>
<!-- core.stdc.string -->
<g id="node3" class="node"><title>core.stdc.string</title>
<ellipse fill="none" stroke="black" cx="1626.38" cy="-90" rx="67.6881" ry="18"/>
<text text-anchor="middle" x="1626.38" y="-86.3" font-family="Times New Roman,serif" font-size="14.00">core.stdc.string</text>
</g>
<!-- core.sync.condition -->
<g id="node4" class="node"><title>core.sync.condition</title>
<ellipse fill="none" stroke="black" cx="1358.38" cy="-18" rx="83.3857" ry="18"/>
<text text-anchor="middle" x="1358.38" y="-14.3" font-family="Times New Roman,serif" font-size="14.00">core.sync.condition</text>
</g>
<!-- core.sync.mutex -->
<g id="node5" class="node"><title>core.sync.mutex</title>
<ellipse fill="none" stroke="black" cx="1530.38" cy="-18" rx="70.6878" ry="18"/>
<text text-anchor="middle" x="1530.38" y="-14.3" font-family="Times New Roman,serif" font-size="14.00">core.sync.mutex</text>
</g>
<!-- core.thread -->
<g id="node6" class="node"><title>core.thread</title>
<ellipse fill="none" stroke="black" cx="3140.38" cy="-234" rx="51.9908" ry="18"/>
<text text-anchor="middle" x="3140.38" y="-230.3" font-family="Times New Roman,serif" font-size="14.00">core.thread</text>
</g>
<!-- core.time -->
<g id="node7" class="node"><title>core.time</title>
<ellipse fill="none" stroke="black" cx="3254.38" cy="-234" rx="44.393" ry="18"/>
<text text-anchor="middle" x="3254.38" y="-230.3" font-family="Times New Roman,serif" font-size="14.00">core.time</text>
</g>
<!-- rx -->
<g id="node8" class="node"><title>rx</title>
<ellipse fill="none" stroke="black" cx="3111.38" cy="-522" rx="27" ry="18"/>
<text text-anchor="middle" x="3111.38" y="-518.3" font-family="Times New Roman,serif" font-size="14.00">rx</text>
</g>
<!-- rx.algorithm -->
<g id="node9" class="node"><title>rx.algorithm</title>
<ellipse fill="none" stroke="black" cx="1447.38" cy="-450" rx="53.8905" ry="18"/>
<text text-anchor="middle" x="1447.38" y="-446.3" font-family="Times New Roman,serif" font-size="14.00">rx.algorithm</text>
</g>
<!-- rx&#45;&gt;rx.algorithm -->
<g id="edge1" class="edge"><title>rx&#45;&gt;rx.algorithm</title>
<path fill="none" stroke="black" d="M3084.37,-520.523C2938.13,-517.833 2226.24,-503.414 1645.38,-468 1599.38,-465.196 1547.48,-460.69 1508.36,-457.022"/>
<polygon fill="black" stroke="black" points="1508.48,-453.517 1498.19,-456.06 1507.82,-460.486 1508.48,-453.517"/>
</g>
<!-- rx.disposable -->
<g id="node23" class="node"><title>rx.disposable</title>
<ellipse fill="none" stroke="black" cx="1782.38" cy="-162" rx="59.5901" ry="18"/>
<text text-anchor="middle" x="1782.38" y="-158.3" font-family="Times New Roman,serif" font-size="14.00">rx.disposable</text>
</g>
<!-- rx&#45;&gt;rx.disposable -->
<g id="edge2" class="edge"><title>rx&#45;&gt;rx.disposable</title>
<path fill="none" stroke="black" d="M3138.42,-519.125C3277.99,-509.094 3910.38,-459.219 3910.38,-379 3910.38,-379 3910.38,-379 3910.38,-305 3910.38,-264.553 3922.59,-241.717 3891.38,-216 3847.63,-179.965 1907.58,-187.325 1851.38,-180 1845.87,-179.282 1840.17,-178.292 1834.51,-177.146"/>
<polygon fill="black" stroke="black" points="1834.94,-173.657 1824.42,-174.943 1833.44,-180.496 1834.94,-173.657"/>
</g>
<!-- rx.observable -->
<g id="node24" class="node"><title>rx.observable</title>
<ellipse fill="none" stroke="black" cx="1634.38" cy="-234" rx="59.5901" ry="18"/>
<text text-anchor="middle" x="1634.38" y="-230.3" font-family="Times New Roman,serif" font-size="14.00">rx.observable</text>
</g>
<!-- rx&#45;&gt;rx.observable -->
<g id="edge3" class="edge"><title>rx&#45;&gt;rx.observable</title>
<path fill="none" stroke="black" d="M3084.39,-520.742C2907.26,-518.554 1910.92,-498.538 1675.38,-324 1655.47,-309.251 1644.95,-282.485 1639.57,-262.145"/>
<polygon fill="black" stroke="black" points="1642.92,-261.112 1637.2,-252.192 1636.11,-262.73 1642.92,-261.112"/>
</g>
<!-- rx.observer -->
<g id="node25" class="node"><title>rx.observer</title>
<ellipse fill="none" stroke="black" cx="1912.38" cy="-162" rx="51.9908" ry="18"/>
<text text-anchor="middle" x="1912.38" y="-158.3" font-family="Times New Roman,serif" font-size="14.00">rx.observer</text>
</g>
<!-- rx&#45;&gt;rx.observer -->
<g id="edge4" class="edge"><title>rx&#45;&gt;rx.observer</title>
<path fill="none" stroke="black" d="M3138.36,-521.072C3272.37,-521.191 3862.35,-518.806 3924.38,-468 3956.07,-442.041 3948.38,-419.969 3948.38,-379 3948.38,-379 3948.38,-379 3948.38,-305 3948.38,-264.031 3956.57,-241.34 3924.38,-216 3885.13,-185.106 2310.19,-167.112 1974.78,-163.625"/>
<polygon fill="black" stroke="black" points="1974.33,-160.121 1964.3,-163.517 1974.26,-167.12 1974.33,-160.121"/>
</g>
<!-- rx.range -->
<g id="node26" class="node"><title>rx.range</title>
<ellipse fill="none" stroke="black" cx="2808.38" cy="-378" rx="40.0939" ry="18"/>
<text text-anchor="middle" x="2808.38" y="-374.3" font-family="Times New Roman,serif" font-size="14.00">rx.range</text>
</g>
<!-- rx&#45;&gt;rx.range -->
<g id="edge5" class="edge"><title>rx&#45;&gt;rx.range</title>
<path fill="none" stroke="black" d="M3089.59,-510.788C3037.96,-486.593 2907.78,-425.583 2844.3,-395.833"/>
<polygon fill="black" stroke="black" points="2845.61,-392.583 2835.07,-391.508 2842.64,-398.921 2845.61,-392.583"/>
</g>
<!-- rx.scheduler -->
<g id="node30" class="node"><title>rx.scheduler</title>
<ellipse fill="none" stroke="black" cx="3345.38" cy="-306" rx="55.4913" ry="18"/>
<text text-anchor="middle" x="3345.38" y="-302.3" font-family="Times New Roman,serif" font-size="14.00">rx.scheduler</text>
</g>
<!-- rx&#45;&gt;rx.scheduler -->
<g id="edge6" class="edge"><title>rx&#45;&gt;rx.scheduler</title>
<path fill="none" stroke="black" d="M3126.73,-506.959C3166.22,-470.845 3271.61,-374.463 3320.2,-330.026"/>
<polygon fill="black" stroke="black" points="3322.75,-332.438 3327.76,-323.107 3318.02,-327.273 3322.75,-332.438"/>
</g>
<!-- rx.subject -->
<g id="node31" class="node"><title>rx.subject</title>
<ellipse fill="none" stroke="black" cx="266.376" cy="-306" rx="46.2923" ry="18"/>
<text text-anchor="middle" x="266.376" y="-302.3" font-family="Times New Roman,serif" font-size="14.00">rx.subject</text>
</g>
<!-- rx&#45;&gt;rx.subject -->
<g id="edge7" class="edge"><title>rx&#45;&gt;rx.subject</title>
<path fill="none" stroke="black" d="M3084.1,-520.742C2843.22,-518.307 1075.94,-497.139 556.376,-396 465.67,-378.343 363.068,-343.08 307.489,-322.64"/>
<polygon fill="black" stroke="black" points="308.592,-319.316 297.999,-319.126 306.161,-325.881 308.592,-319.316"/>
</g>
<!-- rx.util -->
<g id="node32" class="node"><title>rx.util</title>
<ellipse fill="none" stroke="black" cx="1358.38" cy="-90" rx="31.3957" ry="18"/>
<text text-anchor="middle" x="1358.38" y="-86.3" font-family="Times New Roman,serif" font-size="14.00">rx.util</text>
</g>
<!-- rx&#45;&gt;rx.util -->
<g id="edge8" class="edge"><title>rx&#45;&gt;rx.util</title>
<path fill="none" stroke="black" d="M3138.36,-520.547C3273.74,-518.108 3875.5,-505.235 3949.38,-468 3995.57,-444.718 4024.38,-430.728 4024.38,-379 4024.38,-379 4024.38,-379 4024.38,-305 4024.38,-106.585 3799.15,-182.563 3065.38,-144 2392.34,-108.629 2222.28,-145.895 1549.38,-108 1497.42,-105.074 1437.71,-99.3838 1399.08,-95.3954"/>
<polygon fill="black" stroke="black" points="1399.07,-91.8761 1388.77,-94.3193 1398.35,-98.8383 1399.07,-91.8761"/>
</g>
<!-- rx.algorithm.all -->
<g id="node10" class="node"><title>rx.algorithm.all</title>
<ellipse fill="none" stroke="black" cx="1529.38" cy="-306" rx="64.189" ry="18"/>
<text text-anchor="middle" x="1529.38" y="-302.3" font-family="Times New Roman,serif" font-size="14.00">rx.algorithm.all</text>
</g>
<!-- rx.algorithm&#45;&gt;rx.algorithm.all -->
<g id="edge9" class="edge"><title>rx.algorithm&#45;&gt;rx.algorithm.all</title>
<path fill="none" stroke="black" d="M1457.1,-432.153C1471.35,-407.493 1497.98,-361.374 1514.63,-332.533"/>
<polygon fill="black" stroke="black" points="1517.69,-334.235 1519.66,-323.825 1511.63,-330.735 1517.69,-334.235"/>
</g>
<!-- rx.algorithm.any -->
<g id="node11" class="node"><title>rx.algorithm.any</title>
<ellipse fill="none" stroke="black" cx="132.376" cy="-306" rx="69.5877" ry="18"/>
<text text-anchor="middle" x="132.376" y="-302.3" font-family="Times New Roman,serif" font-size="14.00">rx.algorithm.any</text>
</g>
<!-- rx.algorithm&#45;&gt;rx.algorithm.any -->
<g id="edge10" class="edge"><title>rx.algorithm&#45;&gt;rx.algorithm.any</title>
<path fill="none" stroke="black" d="M1393.38,-448.534C1254.12,-446.739 871.642,-438.044 556.376,-396 423.749,-378.313 270.707,-342.231 189.664,-321.86"/>
<polygon fill="black" stroke="black" points="190.22,-318.391 179.668,-319.335 188.506,-325.178 190.22,-318.391"/>
</g>
<!-- rx.algorithm.buffer -->
<g id="node12" class="node"><title>rx.algorithm.buffer</title>
<ellipse fill="none" stroke="black" cx="2007.38" cy="-306" rx="78.7863" ry="18"/>
<text text-anchor="middle" x="2007.38" y="-302.3" font-family="Times New Roman,serif" font-size="14.00">rx.algorithm.buffer</text>
</g>
<!-- rx.algorithm&#45;&gt;rx.algorithm.buffer -->
<g id="edge11" class="edge"><title>rx.algorithm&#45;&gt;rx.algorithm.buffer</title>
<path fill="none" stroke="black" d="M1477.12,-434.723C1497.93,-424.485 1526.22,-410.069 1550.38,-396 1575.62,-381.296 1577.91,-369.957 1605.38,-360 1735.36,-312.88 1777.63,-344.442 1914.38,-324 1922.54,-322.779 1931.09,-321.381 1939.56,-319.924"/>
<polygon fill="black" stroke="black" points="1940.18,-323.367 1949.43,-318.192 1938.97,-316.473 1940.18,-323.367"/>
</g>
<!-- rx.algorithm.combineLatest -->
<g id="node13" class="node"><title>rx.algorithm.combineLatest</title>
<ellipse fill="none" stroke="black" cx="2214.38" cy="-306" rx="109.681" ry="18"/>
<text text-anchor="middle" x="2214.38" y="-302.3" font-family="Times New Roman,serif" font-size="14.00">rx.algorithm.combineLatest</text>
</g>
<!-- rx.algorithm&#45;&gt;rx.algorithm.combineLatest -->
<g id="edge12" class="edge"><title>rx.algorithm&#45;&gt;rx.algorithm.combineLatest</title>
<path fill="none" stroke="black" d="M1493.34,-440.49C1619.84,-417.07 1974.31,-351.445 2134.27,-321.83"/>
<polygon fill="black" stroke="black" points="2135.33,-325.195 2144.52,-319.933 2134.05,-318.312 2135.33,-325.195"/>
</g>
<!-- rx.algorithm.debounce -->
<g id="node14" class="node"><title>rx.algorithm.debounce</title>
<ellipse fill="none" stroke="black" cx="3003.38" cy="-378" rx="92.0841" ry="18"/>
<text text-anchor="middle" x="3003.38" y="-374.3" font-family="Times New Roman,serif" font-size="14.00">rx.algorithm.debounce</text>
</g>
<!-- rx.algorithm&#45;&gt;rx.algorithm.debounce -->
<g id="edge13" class="edge"><title>rx.algorithm&#45;&gt;rx.algorithm.debounce</title>
<path fill="none" stroke="black" d="M1501.25,-448.494C1688.71,-446.409 2329.81,-436.567 2857.38,-396 2877.4,-394.46 2898.91,-392.26 2919.1,-389.952"/>
<polygon fill="black" stroke="black" points="2919.68,-393.408 2929.21,-388.775 2918.87,-386.455 2919.68,-393.408"/>
</g>
<!-- rx.algorithm.filter -->
<g id="node15" class="node"><title>rx.algorithm.filter</title>
<ellipse fill="none" stroke="black" cx="884.376" cy="-306" rx="72.5877" ry="18"/>
<text text-anchor="middle" x="884.376" y="-302.3" font-family="Times New Roman,serif" font-size="14.00">rx.algorithm.filter</text>
</g>
<!-- rx.algorithm&#45;&gt;rx.algorithm.filter -->
<g id="edge14" class="edge"><title>rx.algorithm&#45;&gt;rx.algorithm.filter</title>
<path fill="none" stroke="black" d="M1401.26,-440.452C1350.18,-430.736 1265.52,-413.89 1193.38,-396 1102.78,-373.535 998.722,-342.452 937.427,-323.59"/>
<polygon fill="black" stroke="black" points="938.185,-320.161 927.597,-320.557 936.121,-326.85 938.185,-320.161"/>
</g>
<!-- rx.algorithm.fold -->
<g id="node16" class="node"><title>rx.algorithm.fold</title>
<ellipse fill="none" stroke="black" cx="2413.38" cy="-306" rx="71.4873" ry="18"/>
<text text-anchor="middle" x="2413.38" y="-302.3" font-family="Times New Roman,serif" font-size="14.00">rx.algorithm.fold</text>
</g>
<!-- rx.algorithm&#45;&gt;rx.algorithm.fold -->
<g id="edge15" class="edge"><title>rx.algorithm&#45;&gt;rx.algorithm.fold</title>
<path fill="none" stroke="black" d="M1497.55,-443.27C1632.93,-427.516 2016.89,-380.915 2333.38,-324 2339.2,-322.953 2345.24,-321.798 2351.28,-320.596"/>
<polygon fill="black" stroke="black" points="2352.3,-323.961 2361.4,-318.541 2350.9,-317.101 2352.3,-323.961"/>
</g>
<!-- rx.algorithm.groupby -->
<g id="node17" class="node"><title>rx.algorithm.groupby</title>
<ellipse fill="none" stroke="black" cx="763.376" cy="-378" rx="87.1846" ry="18"/>
<text text-anchor="middle" x="763.376" y="-374.3" font-family="Times New Roman,serif" font-size="14.00">rx.algorithm.groupby</text>
</g>
<!-- rx.algorithm&#45;&gt;rx.algorithm.groupby -->
<g id="edge16" class="edge"><title>rx.algorithm&#45;&gt;rx.algorithm.groupby</title>
<path fill="none" stroke="black" d="M1395.48,-444.85C1296.38,-436.759 1073.44,-417.753 886.376,-396 872.11,-394.341 856.938,-392.394 842.299,-390.421"/>
<polygon fill="black" stroke="black" points="842.647,-386.937 832.266,-389.055 841.703,-393.873 842.647,-386.937"/>
</g>
<!-- rx.algorithm.map -->
<g id="node18" class="node"><title>rx.algorithm.map</title>
<ellipse fill="none" stroke="black" cx="440.376" cy="-306" rx="72.2875" ry="18"/>
<text text-anchor="middle" x="440.376" y="-302.3" font-family="Times New Roman,serif" font-size="14.00">rx.algorithm.map</text>
</g>
<!-- rx.algorithm&#45;&gt;rx.algorithm.map -->
<g id="edge17" class="edge"><title>rx.algorithm&#45;&gt;rx.algorithm.map</title>
<path fill="none" stroke="black" d="M1393.8,-447.487C1241.18,-442.841 806.268,-427.168 667.376,-396 599.267,-380.716 524.715,-348.194 480.28,-326.984"/>
<polygon fill="black" stroke="black" points="481.528,-323.699 471,-322.509 478.487,-330.005 481.528,-323.699"/>
</g>
<!-- rx.algorithm.merge -->
<g id="node19" class="node"><title>rx.algorithm.merge</title>
<ellipse fill="none" stroke="black" cx="1206.38" cy="-306" rx="78.7863" ry="18"/>
<text text-anchor="middle" x="1206.38" y="-302.3" font-family="Times New Roman,serif" font-size="14.00">rx.algorithm.merge</text>
</g>
<!-- rx.algorithm&#45;&gt;rx.algorithm.merge -->
<g id="edge18" class="edge"><title>rx.algorithm&#45;&gt;rx.algorithm.merge</title>
<path fill="none" stroke="black" d="M1422.04,-434.072C1379.04,-408.733 1291.63,-357.233 1242.32,-328.178"/>
<polygon fill="black" stroke="black" points="1243.97,-325.086 1233.57,-323.025 1240.41,-331.117 1243.97,-325.086"/>
</g>
<!-- rx.algorithm.scan -->
<g id="node20" class="node"><title>rx.algorithm.scan</title>
<ellipse fill="none" stroke="black" cx="1798.38" cy="-306" rx="73.387" ry="18"/>
<text text-anchor="middle" x="1798.38" y="-302.3" font-family="Times New Roman,serif" font-size="14.00">rx.algorithm.scan</text>
</g>
<!-- rx.algorithm&#45;&gt;rx.algorithm.scan -->
<g id="edge19" class="edge"><title>rx.algorithm&#45;&gt;rx.algorithm.scan</title>
<path fill="none" stroke="black" d="M1463.88,-432.524C1485.07,-412.331 1523.84,-378.523 1563.38,-360 1613.76,-336.395 1675.24,-323.01 1722.68,-315.598"/>
<polygon fill="black" stroke="black" points="1723.22,-319.058 1732.58,-314.106 1722.17,-312.136 1723.22,-319.058"/>
</g>
<!-- rx.algorithm.tee -->
<g id="node21" class="node"><title>rx.algorithm.tee</title>
<ellipse fill="none" stroke="black" cx="1042.38" cy="-306" rx="66.8882" ry="18"/>
<text text-anchor="middle" x="1042.38" y="-302.3" font-family="Times New Roman,serif" font-size="14.00">rx.algorithm.tee</text>
</g>
<!-- rx.algorithm&#45;&gt;rx.algorithm.tee -->
<g id="edge20" class="edge"><title>rx.algorithm&#45;&gt;rx.algorithm.tee</title>
<path fill="none" stroke="black" d="M1411.19,-436.532C1380.17,-425.831 1334.31,-409.969 1294.38,-396 1223.55,-371.226 1141.64,-342.235 1090.92,-324.242"/>
<polygon fill="black" stroke="black" points="1091.8,-320.84 1081.2,-320.795 1089.46,-327.437 1091.8,-320.84"/>
</g>
<!-- rx.algorithm.uniq -->
<g id="node22" class="node"><title>rx.algorithm.uniq</title>
<ellipse fill="none" stroke="black" cx="1375.38" cy="-306" rx="72.2875" ry="18"/>
<text text-anchor="middle" x="1375.38" y="-302.3" font-family="Times New Roman,serif" font-size="14.00">rx.algorithm.uniq</text>
</g>
<!-- rx.algorithm&#45;&gt;rx.algorithm.uniq -->
<g id="edge21" class="edge"><title>rx.algorithm&#45;&gt;rx.algorithm.uniq</title>
<path fill="none" stroke="black" d="M1438.83,-432.153C1426.45,-407.732 1403.4,-362.265 1388.75,-333.375"/>
<polygon fill="black" stroke="black" points="1391.78,-331.604 1384.13,-324.268 1385.53,-334.77 1391.78,-331.604"/>
</g>
<!-- rx.algorithm.all&#45;&gt;rx.disposable -->
<g id="edge22" class="edge"><title>rx.algorithm.all&#45;&gt;rx.disposable</title>
<path fill="none" stroke="black" d="M1531.58,-287.891C1535.1,-267.699 1543.94,-234.534 1565.38,-216 1605.82,-181.024 1665.65,-168.349 1712.25,-164.099"/>
<polygon fill="black" stroke="black" points="1712.59,-167.583 1722.28,-163.294 1712.03,-160.606 1712.59,-167.583"/>
</g>
<!-- rx.algorithm.all&#45;&gt;rx.observable -->
<g id="edge23" class="edge"><title>rx.algorithm.all&#45;&gt;rx.observable</title>
<path fill="none" stroke="black" d="M1553.2,-289.116C1567.8,-279.382 1586.67,-266.802 1602.54,-256.222"/>
<polygon fill="black" stroke="black" points="1604.63,-259.039 1611.01,-250.58 1600.74,-253.215 1604.63,-259.039"/>
</g>
<!-- rx.algorithm.all&#45;&gt;rx.observer -->
<g id="edge24" class="edge"><title>rx.algorithm.all&#45;&gt;rx.observer</title>
<path fill="none" stroke="black" d="M1573.79,-292.891C1609.2,-282.895 1659.9,-267.825 1703.38,-252 1763.71,-230.035 1831.84,-200.009 1873.44,-181.06"/>
<polygon fill="black" stroke="black" points="1875.03,-184.185 1882.67,-176.843 1872.12,-177.819 1875.03,-184.185"/>
</g>
<!-- rx.algorithm.all&#45;&gt;rx.util -->
<g id="edge25" class="edge"><title>rx.algorithm.all&#45;&gt;rx.util</title>
<path fill="none" stroke="black" d="M1515.96,-288.208C1485.69,-250.334 1412.06,-158.18 1377.23,-114.592"/>
<polygon fill="black" stroke="black" points="1379.78,-112.179 1370.8,-106.552 1374.31,-116.549 1379.78,-112.179"/>
</g>
<!-- std.functional -->
<g id="node36" class="node"><title>std.functional</title>
<ellipse fill="none" stroke="black" cx="546.376" cy="-162" rx="59.5901" ry="18"/>
<text text-anchor="middle" x="546.376" y="-158.3" font-family="Times New Roman,serif" font-size="14.00">std.functional</text>
</g>
<!-- rx.algorithm.all&#45;&gt;std.functional -->
<g id="edge26" class="edge"><title>rx.algorithm.all&#45;&gt;std.functional</title>
<path fill="none" stroke="black" d="M1482.78,-293.459C1474.04,-291.49 1464.95,-289.575 1456.38,-288 1339.04,-266.447 1308.58,-268.166 1190.38,-252 977.345,-222.864 724.751,-187.807 609.441,-171.775"/>
<polygon fill="black" stroke="black" points="609.767,-168.287 599.38,-170.376 608.803,-175.22 609.767,-168.287"/>
</g>
<!-- std.range -->
<g id="node39" class="node"><title>std.range</title>
<ellipse fill="none" stroke="black" cx="1265.38" cy="-90" rx="44.393" ry="18"/>
<text text-anchor="middle" x="1265.38" y="-86.3" font-family="Times New Roman,serif" font-size="14.00">std.range</text>
</g>
<!-- rx.algorithm.all&#45;&gt;std.range -->
<g id="edge27" class="edge"><title>rx.algorithm.all&#45;&gt;std.range</title>
<path fill="none" stroke="black" d="M1491.27,-291.416C1427.14,-267.757 1302.01,-217.896 1275.38,-180 1262.84,-162.159 1261.03,-137.153 1261.97,-118.188"/>
<polygon fill="black" stroke="black" points="1265.47,-118.328 1262.75,-108.089 1258.49,-117.79 1265.47,-118.328"/>
</g>
<!-- rx.algorithm.any&#45;&gt;rx.disposable -->
<g id="edge28" class="edge"><title>rx.algorithm.any&#45;&gt;rx.disposable</title>
<path fill="none" stroke="black" d="M178.272,-292.404C253.896,-272.257 409.738,-233.297 544.376,-216 773.039,-186.624 1486.6,-169.286 1712.83,-164.421"/>
<polygon fill="black" stroke="black" points="1712.99,-167.918 1722.91,-164.205 1712.84,-160.92 1712.99,-167.918"/>
</g>
<!-- rx.algorithm.any&#45;&gt;rx.observable -->
<g id="edge29" class="edge"><title>rx.algorithm.any&#45;&gt;rx.observable</title>
<path fill="none" stroke="black" d="M181.032,-293.137C191.015,-291.097 201.493,-289.238 211.376,-288 477.691,-254.646 1315.94,-239.744 1564.34,-235.988"/>
<polygon fill="black" stroke="black" points="1564.73,-239.482 1574.68,-235.833 1564.63,-232.483 1564.73,-239.482"/>
</g>
<!-- rx.algorithm.any&#45;&gt;rx.observer -->
<g id="edge30" class="edge"><title>rx.algorithm.any&#45;&gt;rx.observer</title>
<path fill="none" stroke="black" d="M182.846,-293.593C192.303,-291.611 202.124,-289.657 211.376,-288 322.308,-268.134 351.498,-272.166 462.376,-252 535.369,-238.724 551.75,-225.129 625.376,-216 1166.36,-148.923 1312.42,-261.772 1851.38,-180 1856.09,-179.285 1860.95,-178.325 1865.78,-177.223"/>
<polygon fill="black" stroke="black" points="1866.73,-180.596 1875.59,-174.796 1865.04,-173.801 1866.73,-180.596"/>
</g>
<!-- rx.algorithm.any&#45;&gt;rx.util -->
<g id="edge31" class="edge"><title>rx.algorithm.any&#45;&gt;rx.util</title>
<path fill="none" stroke="black" d="M133.673,-287.909C137.281,-253.79 150.671,-177.63 199.376,-144 301.743,-73.3186 1196.9,-134.785 1318.38,-108 1320.89,-107.446 1323.45,-106.737 1325.99,-105.925"/>
<polygon fill="black" stroke="black" points="1327.41,-109.129 1335.59,-102.389 1325,-102.56 1327.41,-109.129"/>
</g>
<!-- rx.algorithm.any&#45;&gt;std.functional -->
<g id="edge32" class="edge"><title>rx.algorithm.any&#45;&gt;std.functional</title>
<path fill="none" stroke="black" d="M164.514,-289.831C205.581,-270.839 279.168,-238.119 344.376,-216 392.748,-199.592 449.057,-185.192 489.917,-175.559"/>
<polygon fill="black" stroke="black" points="490.754,-178.958 499.696,-173.275 489.162,-172.141 490.754,-178.958"/>
</g>
<!-- rx.algorithm.any&#45;&gt;std.range -->
<g id="edge33" class="edge"><title>rx.algorithm.any&#45;&gt;std.range</title>
<path fill="none" stroke="black" d="M77.5259,-294.839C53.2375,-287.315 26.9221,-274.326 12.3761,-252 -15.4011,-209.366 7.38287,-171.218 50.3761,-144 100.01,-112.578 981.806,-95.7308 1211.2,-91.8674"/>
<polygon fill="black" stroke="black" points="1211.37,-95.3652 1221.31,-91.6985 1211.25,-88.3662 1211.37,-95.3652"/>
</g>
<!-- rx.algorithm.buffer&#45;&gt;rx.disposable -->
<g id="edge34" class="edge"><title>rx.algorithm.buffer&#45;&gt;rx.disposable</title>
<path fill="none" stroke="black" d="M1981.57,-288.711C1940.55,-262.827 1860.53,-212.327 1815.4,-183.842"/>
<polygon fill="black" stroke="black" points="1817.18,-180.829 1806.86,-178.452 1813.45,-186.749 1817.18,-180.829"/>
</g>
<!-- rx.algorithm.buffer&#45;&gt;rx.observable -->
<g id="edge35" class="edge"><title>rx.algorithm.buffer&#45;&gt;rx.observable</title>
<path fill="none" stroke="black" d="M1948.68,-293.985C1879.07,-280.921 1763.68,-259.267 1693.77,-246.145"/>
<polygon fill="black" stroke="black" points="1694.26,-242.678 1683.79,-244.273 1692.97,-249.558 1694.26,-242.678"/>
</g>
<!-- rx.algorithm.buffer&#45;&gt;rx.observer -->
<g id="edge36" class="edge"><title>rx.algorithm.buffer&#45;&gt;rx.observer</title>
<path fill="none" stroke="black" d="M2001.11,-288.037C1993.82,-269.437 1980.67,-239.16 1964.38,-216 1956.84,-205.292 1947.1,-194.738 1938.09,-185.902"/>
<polygon fill="black" stroke="black" points="1940.42,-183.28 1930.76,-178.918 1935.59,-188.349 1940.42,-183.28"/>
</g>
<!-- rx.algorithm.buffer&#45;&gt;std.range -->
<g id="edge37" class="edge"><title>rx.algorithm.buffer&#45;&gt;std.range</title>
<path fill="none" stroke="black" d="M2009.77,-287.813C2013.36,-254.207 2015.75,-179.945 1973.38,-144 1917.79,-96.8487 1390.05,-121.239 1318.38,-108 1314.53,-107.29 1310.58,-106.379 1306.64,-105.349"/>
<polygon fill="black" stroke="black" points="1307.57,-101.973 1296.99,-102.59 1305.64,-108.703 1307.57,-101.973"/>
</g>
<!-- rx.algorithm.combineLatest&#45;&gt;rx.disposable -->
<g id="edge38" class="edge"><title>rx.algorithm.combineLatest&#45;&gt;rx.disposable</title>
<path fill="none" stroke="black" d="M2274.55,-290.863C2326.62,-275.952 2388.97,-249.916 2357.38,-216 2318.96,-174.754 1907.05,-188.774 1851.38,-180 1846.04,-179.16 1840.52,-178.11 1835.02,-176.948"/>
<polygon fill="black" stroke="black" points="1835.73,-173.52 1825.21,-174.753 1834.21,-180.351 1835.73,-173.52"/>
</g>
<!-- rx.algorithm.combineLatest&#45;&gt;rx.observable -->
<g id="edge39" class="edge"><title>rx.algorithm.combineLatest&#45;&gt;rx.observable</title>
<path fill="none" stroke="black" d="M2135.36,-293.403C2122.03,-291.534 2108.31,-289.667 2095.38,-288 1954.58,-269.854 1789.2,-251.578 1699.78,-241.948"/>
<polygon fill="black" stroke="black" points="1700.1,-238.463 1689.79,-240.874 1699.35,-245.423 1700.1,-238.463"/>
</g>
<!-- rx.algorithm.combineLatest&#45;&gt;rx.observer -->
<g id="edge40" class="edge"><title>rx.algorithm.combineLatest&#45;&gt;rx.observer</title>
<path fill="none" stroke="black" d="M2290.57,-293.024C2353.09,-280.062 2425.95,-255.733 2390.38,-216 2363.05,-185.482 2096.76,-170.609 1973.9,-165.327"/>
<polygon fill="black" stroke="black" points="1974.03,-161.83 1963.89,-164.904 1973.73,-168.823 1974.03,-161.83"/>
</g>
<!-- rx.algorithm.combineLatest&#45;&gt;rx.util -->
<g id="edge41" class="edge"><title>rx.algorithm.combineLatest&#45;&gt;rx.util</title>
<path fill="none" stroke="black" d="M2220.77,-287.877C2231.8,-255.045 2249.82,-183.039 2212.38,-144 2186.84,-117.377 1586.17,-110.636 1549.38,-108 1497.47,-104.282 1437.75,-98.7669 1399.1,-95.035"/>
<polygon fill="black" stroke="black" points="1399.08,-91.5161 1388.78,-94.0327 1398.4,-98.4833 1399.08,-91.5161"/>
</g>
<!-- std.meta -->
<g id="node37" class="node"><title>std.meta</title>
<ellipse fill="none" stroke="black" cx="2306.38" cy="-234" rx="41.6928" ry="18"/>
<text text-anchor="middle" x="2306.38" y="-230.3" font-family="Times New Roman,serif" font-size="14.00">std.meta</text>
</g>
<!-- rx.algorithm.combineLatest&#45;&gt;std.meta -->
<g id="edge42" class="edge"><title>rx.algorithm.combineLatest&#45;&gt;std.meta</title>
<path fill="none" stroke="black" d="M2236.65,-288.055C2249.33,-278.405 2265.33,-266.233 2278.8,-255.982"/>
<polygon fill="black" stroke="black" points="2280.97,-258.729 2286.81,-249.888 2276.73,-253.158 2280.97,-258.729"/>
</g>
<!-- rx.algorithm.combineLatest&#45;&gt;std.range -->
<g id="edge43" class="edge"><title>rx.algorithm.combineLatest&#45;&gt;std.range</title>
<path fill="none" stroke="black" d="M2211.78,-287.699C2207.96,-267.942 2199.02,-235.8 2179.38,-216 2118.98,-155.131 2084.1,-162.511 2000.38,-144 1704,-78.4759 1616.92,-162.808 1318.38,-108 1314.53,-107.294 1310.58,-106.386 1306.64,-105.358"/>
<polygon fill="black" stroke="black" points="1307.56,-101.981 1296.99,-102.602 1305.64,-108.712 1307.56,-101.981"/>
</g>
<!-- std.typecons -->
<g id="node40" class="node"><title>std.typecons</title>
<ellipse fill="none" stroke="black" cx="2112.38" cy="-234" rx="57.6901" ry="18"/>
<text text-anchor="middle" x="2112.38" y="-230.3" font-family="Times New Roman,serif" font-size="14.00">std.typecons</text>
</g>
<!-- rx.algorithm.combineLatest&#45;&gt;std.typecons -->
<g id="edge44" class="edge"><title>rx.algorithm.combineLatest&#45;&gt;std.typecons</title>
<path fill="none" stroke="black" d="M2190.2,-288.411C2176.32,-278.88 2158.72,-266.804 2143.77,-256.545"/>
<polygon fill="black" stroke="black" points="2145.55,-253.522 2135.32,-250.749 2141.59,-259.293 2145.55,-253.522"/>
</g>
<!-- rx.algorithm.debounce&#45;&gt;core.thread -->
<g id="edge45" class="edge"><title>rx.algorithm.debounce&#45;&gt;core.thread</title>
<path fill="none" stroke="black" d="M3019.63,-360.153C3043.96,-334.931 3089.96,-287.261 3117.62,-258.589"/>
<polygon fill="black" stroke="black" points="3120.14,-261.013 3124.57,-251.387 3115.1,-256.153 3120.14,-261.013"/>
</g>
<!-- rx.algorithm.debounce&#45;&gt;core.time -->
<g id="edge46" class="edge"><title>rx.algorithm.debounce&#45;&gt;core.time</title>
<path fill="none" stroke="black" d="M3032.17,-360.711C3078.96,-334.239 3171.26,-282.02 3220.91,-253.935"/>
<polygon fill="black" stroke="black" points="3222.68,-256.954 3229.66,-248.984 3219.23,-250.862 3222.68,-256.954"/>
</g>
<!-- rx.algorithm.debounce&#45;&gt;rx.disposable -->
<g id="edge47" class="edge"><title>rx.algorithm.debounce&#45;&gt;rx.disposable</title>
<path fill="none" stroke="black" d="M2926.48,-367.959C2904.19,-365.363 2879.82,-362.545 2857.38,-360 2712.54,-343.57 2663.62,-385.321 2531.38,-324 2510.27,-314.213 2510.92,-303.28 2493.38,-288 2454.75,-254.356 2451.14,-234.521 2403.38,-216 2288.76,-171.555 1972.86,-198.777 1851.38,-180 1845.97,-179.164 1840.36,-178.107 1834.78,-176.93"/>
<polygon fill="black" stroke="black" points="1835.36,-173.473 1824.84,-174.706 1833.83,-180.304 1835.36,-173.473"/>
</g>
<!-- rx.algorithm.debounce&#45;&gt;rx.observable -->
<g id="edge48" class="edge"><title>rx.algorithm.debounce&#45;&gt;rx.observable</title>
<path fill="none" stroke="black" d="M2929.59,-367.182C2906.51,-364.44 2880.92,-361.739 2857.38,-360 2730.88,-350.657 1831.73,-376.752 1716.38,-324 1700.99,-316.965 1672.52,-283.571 1653.51,-259.759"/>
<polygon fill="black" stroke="black" points="1656.17,-257.472 1647.22,-251.795 1650.67,-261.812 1656.17,-257.472"/>
</g>
<!-- rx.algorithm.debounce&#45;&gt;rx.observer -->
<g id="edge49" class="edge"><title>rx.algorithm.debounce&#45;&gt;rx.observer</title>
<path fill="none" stroke="black" d="M2998.82,-359.985C2993.18,-341.068 2982.19,-310.252 2965.38,-288 2934.7,-247.406 2923.86,-234.283 2876.38,-216 2792.58,-183.735 2173.7,-168.351 1974.18,-164.194"/>
<polygon fill="black" stroke="black" points="1974.23,-160.694 1964.16,-163.987 1974.08,-167.692 1974.23,-160.694"/>
</g>
<!-- rx.algorithm.debounce&#45;&gt;rx.scheduler -->
<g id="edge50" class="edge"><title>rx.algorithm.debounce&#45;&gt;rx.scheduler</title>
<path fill="none" stroke="black" d="M3064.52,-364.485C3128.49,-351.392 3228.04,-331.017 3289.83,-318.368"/>
<polygon fill="black" stroke="black" points="3290.7,-321.764 3299.79,-316.33 3289.29,-314.907 3290.7,-321.764"/>
</g>
<!-- rx.algorithm.debounce&#45;&gt;std.range -->
<g id="edge51" class="edge"><title>rx.algorithm.debounce&#45;&gt;std.range</title>
<path fill="none" stroke="black" d="M3004.22,-359.731C3004.36,-340.865 3002.27,-310.354 2989.38,-288 2963.95,-243.93 2945.94,-238.632 2900.38,-216 2840.52,-186.271 2674.6,-152.983 2608.38,-144 2040.02,-66.9036 1883.75,-204.551 1318.38,-108 1314.52,-107.342 1310.56,-106.467 1306.62,-105.46"/>
<polygon fill="black" stroke="black" points="1307.54,-102.081 1296.96,-102.735 1305.64,-108.818 1307.54,-102.081"/>
</g>
<!-- rx.algorithm.filter&#45;&gt;rx.disposable -->
<g id="edge52" class="edge"><title>rx.algorithm.filter&#45;&gt;rx.disposable</title>
<path fill="none" stroke="black" d="M925.642,-291.092C986.533,-271.154 1104.38,-234.785 1207.38,-216 1387.95,-183.068 1604.35,-170.132 1712.97,-165.435"/>
<polygon fill="black" stroke="black" points="1713.29,-168.924 1723.14,-165.005 1713,-161.93 1713.29,-168.924"/>
</g>
<!-- rx.algorithm.filter&#45;&gt;rx.observable -->
<g id="edge53" class="edge"><title>rx.algorithm.filter&#45;&gt;rx.observable</title>
<path fill="none" stroke="black" d="M936.253,-293.188C946.211,-291.221 956.586,-289.376 966.376,-288 1178.23,-258.223 1233.17,-269.634 1446.38,-252 1486.66,-248.669 1531.76,-244.602 1567.69,-241.281"/>
<polygon fill="black" stroke="black" points="1568.41,-244.729 1578.04,-240.321 1567.76,-237.759 1568.41,-244.729"/>
</g>
<!-- rx.algorithm.filter&#45;&gt;rx.observer -->
<g id="edge54" class="edge"><title>rx.algorithm.filter&#45;&gt;rx.observer</title>
<path fill="none" stroke="black" d="M937.225,-293.594C946.904,-291.633 956.93,-289.686 966.376,-288 1178.74,-250.09 1232.18,-241.561 1446.38,-216 1625.81,-194.587 1673.59,-212.392 1851.38,-180 1855.82,-179.191 1860.4,-178.205 1864.97,-177.118"/>
<polygon fill="black" stroke="black" points="1866.04,-180.456 1874.88,-174.61 1864.33,-173.67 1866.04,-180.456"/>
</g>
<!-- rx.algorithm.filter&#45;&gt;rx.util -->
<g id="edge55" class="edge"><title>rx.algorithm.filter&#45;&gt;rx.util</title>
<path fill="none" stroke="black" d="M814.603,-300.639C672.923,-289.445 373.42,-252.502 477.376,-144 509.729,-110.232 1272.76,-118.312 1318.38,-108 1320.89,-107.432 1323.44,-106.714 1325.98,-105.895"/>
<polygon fill="black" stroke="black" points="1327.41,-109.096 1335.58,-102.345 1324.99,-102.53 1327.41,-109.096"/>
</g>
<!-- rx.algorithm.filter&#45;&gt;std.functional -->
<g id="edge56" class="edge"><title>rx.algorithm.filter&#45;&gt;std.functional</title>
<path fill="none" stroke="black" d="M814.872,-300.542C737.049,-294.24 617.246,-280.203 582.376,-252 563.505,-236.737 554.454,-210.042 550.158,-189.858"/>
<polygon fill="black" stroke="black" points="553.592,-189.181 548.318,-179.992 546.711,-190.464 553.592,-189.181"/>
</g>
<!-- rx.algorithm.filter&#45;&gt;std.range -->
<g id="edge57" class="edge"><title>rx.algorithm.filter&#45;&gt;std.range</title>
<path fill="none" stroke="black" d="M813.446,-301.814C692.129,-295.631 455.371,-280.082 430.376,-252 398.463,-216.145 397.528,-179 430.376,-144 457.146,-115.477 1030.24,-97.4253 1211.16,-92.4215"/>
<polygon fill="black" stroke="black" points="1211.34,-95.9178 1221.25,-92.1449 1211.15,-88.9205 1211.34,-95.9178"/>
</g>
<!-- rx.algorithm.fold&#45;&gt;rx.disposable -->
<g id="edge58" class="edge"><title>rx.algorithm.fold&#45;&gt;rx.disposable</title>
<path fill="none" stroke="black" d="M2411.59,-287.963C2408.42,-267.191 2399.76,-232.785 2376.38,-216 2328.88,-181.901 1909.15,-189.028 1851.38,-180 1845.97,-179.155 1840.36,-178.092 1834.79,-176.912"/>
<polygon fill="black" stroke="black" points="1835.36,-173.454 1824.84,-174.684 1833.83,-180.285 1835.36,-173.454"/>
</g>
<!-- rx.algorithm.fold&#45;&gt;rx.observable -->
<g id="edge59" class="edge"><title>rx.algorithm.fold&#45;&gt;rx.observable</title>
<path fill="none" stroke="black" d="M2362.77,-293.18C2353.06,-291.214 2342.93,-289.372 2333.38,-288 2104.3,-255.127 1829.87,-241.847 1703.85,-237.191"/>
<polygon fill="black" stroke="black" points="1703.7,-233.683 1693.58,-236.818 1703.45,-240.679 1703.7,-233.683"/>
</g>
<!-- rx.algorithm.fold&#45;&gt;rx.observer -->
<g id="edge60" class="edge"><title>rx.algorithm.fold&#45;&gt;rx.observer</title>
<path fill="none" stroke="black" d="M2435.06,-288.606C2457.52,-269.7 2486.7,-238.358 2466.38,-216 2433.8,-180.156 2112.34,-167.947 1974.56,-164.338"/>
<polygon fill="black" stroke="black" points="1974.25,-160.83 1964.17,-164.073 1974.08,-167.827 1974.25,-160.83"/>
</g>
<!-- rx.algorithm.groupby&#45;&gt;rx.disposable -->
<g id="edge61" class="edge"><title>rx.algorithm.groupby&#45;&gt;rx.disposable</title>
<path fill="none" stroke="black" d="M766.395,-359.656C770.8,-339.551 780.925,-306.78 802.376,-288 889.374,-211.835 938.544,-236.296 1052.38,-216 1291.71,-173.327 1581.03,-164.835 1711.96,-163.268"/>
<polygon fill="black" stroke="black" points="1712.28,-166.765 1722.24,-163.155 1712.2,-159.765 1712.28,-166.765"/>
</g>
<!-- rx.algorithm.groupby&#45;&gt;rx.observable -->
<g id="edge62" class="edge"><title>rx.algorithm.groupby&#45;&gt;rx.observable</title>
<path fill="none" stroke="black" d="M850.625,-376.836C1053.32,-375.704 1543.34,-368.356 1602.38,-324 1621.49,-309.638 1629.21,-282.818 1632.32,-262.36"/>
<polygon fill="black" stroke="black" points="1635.81,-262.696 1633.56,-252.342 1628.86,-261.836 1635.81,-262.696"/>
</g>
<!-- rx.algorithm.groupby&#45;&gt;rx.observer -->
<g id="edge63" class="edge"><title>rx.algorithm.groupby&#45;&gt;rx.observer</title>
<path fill="none" stroke="black" d="M849.824,-375.782C1105.31,-371.804 1841.51,-357.475 1880.38,-324 1918.6,-291.077 1919.26,-226.7 1916.03,-190.113"/>
<polygon fill="black" stroke="black" points="1919.51,-189.732 1914.99,-180.148 1912.55,-190.457 1919.51,-189.732"/>
</g>
<!-- rx.algorithm.groupby&#45;&gt;rx.subject -->
<g id="edge64" class="edge"><title>rx.algorithm.groupby&#45;&gt;rx.subject</title>
<path fill="none" stroke="black" d="M683.039,-371.024C594.922,-363.597 449.628,-348.778 326.376,-324 321.396,-322.999 316.225,-321.793 311.102,-320.492"/>
<polygon fill="black" stroke="black" points="311.933,-317.092 301.369,-317.901 310.132,-323.856 311.933,-317.092"/>
</g>
<!-- rx.algorithm.groupby&#45;&gt;rx.util -->
<g id="edge65" class="edge"><title>rx.algorithm.groupby&#45;&gt;rx.util</title>
<path fill="none" stroke="black" d="M676.588,-376.13C572.546,-373.33 406.306,-362.713 359.376,-324 297.586,-273.029 301.794,-188.528 368.376,-144 456.181,-85.2787 1215.29,-131.039 1318.38,-108 1320.89,-107.438 1323.44,-106.724 1325.98,-105.909"/>
<polygon fill="black" stroke="black" points="1327.41,-109.111 1335.58,-102.365 1324.99,-102.544 1327.41,-109.111"/>
</g>
<!-- rx.algorithm.groupby&#45;&gt;std.functional -->
<g id="edge66" class="edge"><title>rx.algorithm.groupby&#45;&gt;std.functional</title>
<path fill="none" stroke="black" d="M715.633,-362.763C666.193,-345.293 591.137,-310.541 554.376,-252 542.874,-233.684 541.527,-208.922 542.686,-190.167"/>
<polygon fill="black" stroke="black" points="546.175,-190.449 543.569,-180.179 539.202,-189.832 546.175,-190.449"/>
</g>
<!-- rx.algorithm.groupby&#45;&gt;std.range -->
<g id="edge67" class="edge"><title>rx.algorithm.groupby&#45;&gt;std.range</title>
<path fill="none" stroke="black" d="M676.283,-376.973C495.948,-376.008 94.9467,-368.789 53.3761,-324 42.4917,-312.273 48.2164,-303.145 53.3761,-288 79.435,-211.51 92.7417,-181.394 164.376,-144 257.591,-95.341 1002.31,-91.1677 1211.12,-90.9606"/>
<polygon fill="black" stroke="black" points="1211.23,-94.4606 1221.23,-90.9533 1211.23,-87.4606 1211.23,-94.4606"/>
</g>
<!-- rx.algorithm.map&#45;&gt;rx.disposable -->
<g id="edge68" class="edge"><title>rx.algorithm.map&#45;&gt;rx.disposable</title>
<path fill="none" stroke="black" d="M492.818,-293.588C593.453,-271.847 810.414,-225.778 886.376,-216 1192.5,-176.593 1561.31,-166.438 1712.53,-163.86"/>
<polygon fill="black" stroke="black" points="1712.67,-167.358 1722.61,-163.694 1712.55,-160.359 1712.67,-167.358"/>
</g>
<!-- rx.algorithm.map&#45;&gt;rx.observable -->
<g id="edge69" class="edge"><title>rx.algorithm.map&#45;&gt;rx.observable</title>
<path fill="none" stroke="black" d="M509.732,-300.934C721.174,-288.538 1356.02,-251.319 1566.06,-239.005"/>
<polygon fill="black" stroke="black" points="1566.56,-242.482 1576.33,-238.403 1566.15,-235.494 1566.56,-242.482"/>
</g>
<!-- rx.algorithm.map&#45;&gt;rx.observer -->
<g id="edge70" class="edge"><title>rx.algorithm.map&#45;&gt;rx.observer</title>
<path fill="none" stroke="black" d="M501.465,-296.236C627.652,-278.441 926.382,-237.91 1178.38,-216 1476.79,-190.054 1555.79,-228.496 1851.38,-180 1855.89,-179.259 1860.55,-178.31 1865.19,-177.239"/>
<polygon fill="black" stroke="black" points="1866.39,-180.549 1875.24,-174.736 1864.69,-173.756 1866.39,-180.549"/>
</g>
<!-- rx.algorithm.map&#45;&gt;rx.util -->
<g id="edge71" class="edge"><title>rx.algorithm.map&#45;&gt;rx.util</title>
<path fill="none" stroke="black" d="M395.717,-291.848C376.364,-283.684 355.601,-271.019 344.376,-252 336.244,-238.221 336.796,-230.091 344.376,-216 371.88,-164.869 398.132,-161.859 453.376,-144 636.437,-84.8202 1130.7,-150.31 1318.38,-108 1320.89,-107.434 1323.44,-106.716 1325.98,-105.898"/>
<polygon fill="black" stroke="black" points="1327.41,-109.099 1335.58,-102.35 1324.99,-102.533 1327.41,-109.099"/>
</g>
<!-- rx.algorithm.map&#45;&gt;std.functional -->
<g id="edge72" class="edge"><title>rx.algorithm.map&#45;&gt;std.functional</title>
<path fill="none" stroke="black" d="M400.695,-290.938C383.203,-282.526 364.38,-269.916 354.376,-252 346.576,-238.03 344.684,-228.73 354.376,-216 370.103,-195.344 433.435,-180.685 483.117,-172.095"/>
<polygon fill="black" stroke="black" points="483.889,-175.515 493.171,-170.406 482.729,-168.611 483.889,-175.515"/>
</g>
<!-- rx.algorithm.map&#45;&gt;std.range -->
<g id="edge73" class="edge"><title>rx.algorithm.map&#45;&gt;std.range</title>
<path fill="none" stroke="black" d="M371.103,-300.663C337.352,-294.636 299.567,-281.229 278.376,-252 250.202,-213.139 245.358,-178.839 278.376,-144 310.664,-109.932 1008.88,-95.3812 1211.01,-91.8733"/>
<polygon fill="black" stroke="black" points="1211.16,-95.3713 1221.1,-91.7003 1211.04,-88.3724 1211.16,-95.3713"/>
</g>
<!-- rx.algorithm.merge&#45;&gt;rx.disposable -->
<g id="edge74" class="edge"><title>rx.algorithm.merge&#45;&gt;rx.disposable</title>
<path fill="none" stroke="black" d="M1242.93,-289.999C1291.9,-270.422 1381.86,-236.279 1461.38,-216 1548.66,-193.74 1651.76,-178.647 1717.1,-170.429"/>
<polygon fill="black" stroke="black" points="1717.76,-173.874 1727.26,-169.169 1716.9,-166.927 1717.76,-173.874"/>
</g>
<!-- rx.algorithm.merge&#45;&gt;rx.observable -->
<g id="edge75" class="edge"><title>rx.algorithm.merge&#45;&gt;rx.observable</title>
<path fill="none" stroke="black" d="M1263.6,-293.634C1273.84,-291.69 1284.41,-289.738 1294.38,-288 1346.49,-278.907 1489.24,-257.027 1572.26,-244.406"/>
<polygon fill="black" stroke="black" points="1572.97,-247.839 1582.33,-242.877 1571.92,-240.919 1572.97,-247.839"/>
</g>
<!-- rx.algorithm.merge&#45;&gt;rx.observer -->
<g id="edge76" class="edge"><title>rx.algorithm.merge&#45;&gt;rx.observer</title>
<path fill="none" stroke="black" d="M1264.59,-293.723C1274.53,-291.807 1284.75,-289.842 1294.38,-288 1378.79,-271.849 1407.86,-291.14 1484.38,-252 1505.09,-241.405 1501.27,-225.776 1522.38,-216 1655.85,-154.188 1706.94,-207.837 1851.38,-180 1855.81,-179.146 1860.39,-178.129 1864.95,-177.023"/>
<polygon fill="black" stroke="black" points="1866.04,-180.357 1874.86,-174.488 1864.3,-173.576 1866.04,-180.357"/>
</g>
<!-- rx.algorithm.merge&#45;&gt;rx.util -->
<g id="edge77" class="edge"><title>rx.algorithm.merge&#45;&gt;rx.util</title>
<path fill="none" stroke="black" d="M1218.3,-288.208C1245.08,-250.506 1310.07,-159.012 1341.2,-115.185"/>
<polygon fill="black" stroke="black" points="1344.19,-117.019 1347.13,-106.839 1338.48,-112.965 1344.19,-117.019"/>
</g>
<!-- rx.algorithm.merge&#45;&gt;std.range -->
<g id="edge78" class="edge"><title>rx.algorithm.merge&#45;&gt;std.range</title>
<path fill="none" stroke="black" d="M1148.16,-293.692C1138.23,-291.78 1128.01,-289.824 1118.38,-288 1075.29,-279.842 952.41,-285.715 924.376,-252 893.687,-215.092 893.15,-180.454 924.376,-144 960.612,-101.697 1124.11,-92.8855 1210.88,-91.2309"/>
<polygon fill="black" stroke="black" points="1211.13,-94.7274 1221.07,-91.0628 1211.01,-87.7283 1211.13,-94.7274"/>
</g>
<!-- rx.algorithm.scan&#45;&gt;rx.disposable -->
<g id="edge79" class="edge"><title>rx.algorithm.scan&#45;&gt;rx.disposable</title>
<path fill="none" stroke="black" d="M1805.15,-288.058C1811.42,-269.995 1818.87,-240.655 1812.38,-216 1809.84,-206.389 1805.13,-196.69 1800.17,-188.264"/>
<polygon fill="black" stroke="black" points="1803.07,-186.297 1794.79,-179.684 1797.14,-190.016 1803.07,-186.297"/>
</g>
<!-- rx.algorithm.scan&#45;&gt;rx.observable -->
<g id="edge80" class="edge"><title>rx.algorithm.scan&#45;&gt;rx.observable</title>
<path fill="none" stroke="black" d="M1763.19,-289.983C1737.88,-279.178 1703.61,-264.552 1676.78,-253.101"/>
<polygon fill="black" stroke="black" points="1677.84,-249.745 1667.27,-249.039 1675.09,-256.183 1677.84,-249.745"/>
</g>
<!-- rx.algorithm.scan&#45;&gt;rx.observer -->
<g id="edge81" class="edge"><title>rx.algorithm.scan&#45;&gt;rx.observer</title>
<path fill="none" stroke="black" d="M1811.9,-288.153C1831.87,-263.279 1869.37,-216.574 1892.48,-187.788"/>
<polygon fill="black" stroke="black" points="1895.34,-189.814 1898.87,-179.825 1889.88,-185.432 1895.34,-189.814"/>
</g>
<!-- rx.algorithm.scan&#45;&gt;rx.util -->
<g id="edge82" class="edge"><title>rx.algorithm.scan&#45;&gt;rx.util</title>
<path fill="none" stroke="black" d="M1790.77,-288.096C1780.96,-268.107 1762.04,-235.14 1736.38,-216 1630.76,-137.223 1472.84,-106.456 1399.08,-95.8798"/>
<polygon fill="black" stroke="black" points="1399.2,-92.3644 1388.82,-94.4625 1398.25,-99.2985 1399.2,-92.3644"/>
</g>
<!-- rx.algorithm.scan&#45;&gt;std.functional -->
<g id="edge83" class="edge"><title>rx.algorithm.scan&#45;&gt;std.functional</title>
<path fill="none" stroke="black" d="M1735.14,-296.616C1610.28,-280.182 1323.22,-242.985 1081.38,-216 912.776,-197.188 713.898,-178.372 612.726,-169.041"/>
<polygon fill="black" stroke="black" points="612.932,-165.545 602.653,-168.113 612.29,-172.515 612.932,-165.545"/>
</g>
<!-- rx.algorithm.scan&#45;&gt;std.range -->
<g id="edge84" class="edge"><title>rx.algorithm.scan&#45;&gt;std.range</title>
<path fill="none" stroke="black" d="M1778.01,-288.65C1765.64,-278.464 1749.72,-264.888 1736.38,-252 1720.76,-236.92 1721.87,-227.367 1703.38,-216 1665.53,-192.733 1360.93,-120.787 1318.38,-108 1315.08,-107.011 1311.68,-105.968 1308.27,-104.906"/>
<polygon fill="black" stroke="black" points="1309.27,-101.552 1298.68,-101.889 1307.17,-108.229 1309.27,-101.552"/>
</g>
<!-- rx.algorithm.scan&#45;&gt;std.typecons -->
<g id="edge85" class="edge"><title>rx.algorithm.scan&#45;&gt;std.typecons</title>
<path fill="none" stroke="black" d="M1850.93,-293.284C1907.92,-280.58 1998.5,-260.386 2056.68,-247.416"/>
<polygon fill="black" stroke="black" points="2057.8,-250.753 2066.8,-245.16 2056.28,-243.92 2057.8,-250.753"/>
</g>
<!-- rx.algorithm.tee&#45;&gt;rx.disposable -->
<g id="edge86" class="edge"><title>rx.algorithm.tee&#45;&gt;rx.disposable</title>
<path fill="none" stroke="black" d="M1081.42,-291.219C1138.47,-271.607 1248.29,-235.829 1344.38,-216 1473.77,-189.298 1627.64,-174.518 1714.26,-167.716"/>
<polygon fill="black" stroke="black" points="1714.79,-171.186 1724.49,-166.926 1714.25,-164.207 1714.79,-171.186"/>
</g>
<!-- rx.algorithm.tee&#45;&gt;rx.observable -->
<g id="edge87" class="edge"><title>rx.algorithm.tee&#45;&gt;rx.observable</title>
<path fill="none" stroke="black" d="M1090.45,-293.317C1099.68,-291.338 1109.3,-289.456 1118.38,-288 1279.76,-262.112 1321.83,-269.204 1484.38,-252 1512.22,-249.053 1542.94,-245.606 1569.29,-242.589"/>
<polygon fill="black" stroke="black" points="1570,-246.03 1579.54,-241.412 1569.21,-239.076 1570,-246.03"/>
</g>
<!-- rx.algorithm.tee&#45;&gt;rx.observer -->
<g id="edge88" class="edge"><title>rx.algorithm.tee&#45;&gt;rx.observer</title>
<path fill="none" stroke="black" d="M1090.46,-293.4C1099.69,-291.413 1109.31,-289.507 1118.38,-288 1263.04,-263.957 1313.31,-313.648 1446.38,-252 1467.49,-242.22 1463.21,-225.658 1484.38,-216 1633.48,-147.964 1690.27,-210.113 1851.38,-180 1855.81,-179.171 1860.39,-178.171 1864.96,-177.075"/>
<polygon fill="black" stroke="black" points="1866.04,-180.412 1874.87,-174.556 1864.32,-173.628 1866.04,-180.412"/>
</g>
<!-- rx.algorithm.tee&#45;&gt;rx.util -->
<g id="edge89" class="edge"><title>rx.algorithm.tee&#45;&gt;rx.util</title>
<path fill="none" stroke="black" d="M1065.87,-289.09C1122.99,-250.406 1268.96,-151.551 1330.43,-109.927"/>
<polygon fill="black" stroke="black" points="1332.54,-112.721 1338.86,-104.215 1328.62,-106.925 1332.54,-112.721"/>
</g>
<!-- rx.algorithm.tee&#45;&gt;std.functional -->
<g id="edge90" class="edge"><title>rx.algorithm.tee&#45;&gt;std.functional</title>
<path fill="none" stroke="black" d="M994.295,-293.358C985.066,-291.376 975.45,-289.482 966.376,-288 890.083,-275.542 688.569,-288.41 620.376,-252 606.246,-244.456 581.017,-211.793 563.992,-188.222"/>
<polygon fill="black" stroke="black" points="566.788,-186.115 558.127,-180.013 561.093,-190.184 566.788,-186.115"/>
</g>
<!-- rx.algorithm.tee&#45;&gt;std.range -->
<g id="edge91" class="edge"><title>rx.algorithm.tee&#45;&gt;std.range</title>
<path fill="none" stroke="black" d="M993.415,-293.549C984.443,-291.593 975.144,-289.659 966.376,-288 860.296,-267.928 675.14,-306.261 734.376,-216 786.94,-135.906 1088.06,-104.337 1212.05,-94.6191"/>
<polygon fill="black" stroke="black" points="1212.37,-98.1046 1222.07,-93.8507 1211.83,-91.1251 1212.37,-98.1046"/>
</g>
<!-- rx.algorithm.uniq&#45;&gt;rx.disposable -->
<g id="edge92" class="edge"><title>rx.algorithm.uniq&#45;&gt;rx.disposable</title>
<path fill="none" stroke="black" d="M1399.45,-288.972C1430.37,-269.084 1486.26,-235.428 1538.38,-216 1597.66,-193.901 1668.65,-179.773 1718.73,-171.711"/>
<polygon fill="black" stroke="black" points="1719.44,-175.142 1728.77,-170.13 1718.35,-168.228 1719.44,-175.142"/>
</g>
<!-- rx.algorithm.uniq&#45;&gt;rx.observable -->
<g id="edge93" class="edge"><title>rx.algorithm.uniq&#45;&gt;rx.observable</title>
<path fill="none" stroke="black" d="M1422.58,-292.242C1467.44,-280.119 1534.79,-261.915 1581.45,-249.305"/>
<polygon fill="black" stroke="black" points="1582.63,-252.612 1591.37,-246.624 1580.8,-245.854 1582.63,-252.612"/>
</g>
<!-- rx.algorithm.uniq&#45;&gt;rx.observer -->
<g id="edge94" class="edge"><title>rx.algorithm.uniq&#45;&gt;rx.observer</title>
<path fill="none" stroke="black" d="M1423.24,-292.4C1452.93,-283.477 1491.21,-269.908 1522.38,-252 1543.99,-239.582 1542.53,-225.961 1565.38,-216 1682.82,-164.801 1725.78,-205.264 1851.38,-180 1855.74,-179.123 1860.24,-178.098 1864.74,-176.994"/>
<polygon fill="black" stroke="black" points="1865.7,-180.361 1874.51,-174.479 1863.96,-173.583 1865.7,-180.361"/>
</g>
<!-- rx.algorithm.uniq&#45;&gt;rx.util -->
<g id="edge95" class="edge"><title>rx.algorithm.uniq&#45;&gt;rx.util</title>
<path fill="none" stroke="black" d="M1368.06,-287.721C1356.5,-258.362 1336.05,-196.786 1343.38,-144 1344.59,-135.246 1346.88,-125.905 1349.32,-117.541"/>
<polygon fill="black" stroke="black" points="1352.68,-118.518 1352.29,-107.93 1345.99,-116.447 1352.68,-118.518"/>
</g>
<!-- rx.algorithm.uniq&#45;&gt;std.functional -->
<g id="edge96" class="edge"><title>rx.algorithm.uniq&#45;&gt;std.functional</title>
<path fill="none" stroke="black" d="M1323.68,-293.266C1313.98,-291.316 1303.89,-289.457 1294.38,-288 1131.06,-262.994 1087.38,-278.994 924.376,-252 806.536,-232.485 670.759,-197.355 598.311,-177.57"/>
<polygon fill="black" stroke="black" points="599.087,-174.153 588.517,-174.883 597.235,-180.904 599.087,-174.153"/>
</g>
<!-- rx.algorithm.uniq&#45;&gt;std.range -->
<g id="edge97" class="edge"><title>rx.algorithm.uniq&#45;&gt;std.range</title>
<path fill="none" stroke="black" d="M1325.39,-292.942C1271.83,-277.053 1189.51,-243.378 1152.38,-180 1144.29,-166.195 1143.79,-157.504 1152.38,-144 1166.46,-121.837 1192.53,-108.78 1216.09,-101.175"/>
<polygon fill="black" stroke="black" points="1217.39,-104.438 1225.99,-98.2386 1215.4,-97.7272 1217.39,-104.438"/>
</g>
<!-- rx.disposable&#45;&gt;core.atomic -->
<g id="edge98" class="edge"><title>rx.disposable&#45;&gt;core.atomic</title>
<path fill="none" stroke="black" d="M1816.43,-147.147C1832.88,-138.516 1851.03,-125.652 1860.38,-108 1867.86,-93.86 1871.34,-83.6509 1860.38,-72 1815.06,-23.8519 1331.63,-46.668 1266.38,-36 1261.6,-35.2186 1256.66,-34.2242 1251.74,-33.1095"/>
<polygon fill="black" stroke="black" points="1252.3,-29.6425 1241.75,-30.6827 1250.64,-36.4446 1252.3,-29.6425"/>
</g>
<!-- rx.disposable&#45;&gt;core.internal.traits -->
<g id="edge99" class="edge"><title>rx.disposable&#45;&gt;core.internal.traits</title>
<path fill="none" stroke="black" d="M1819.99,-147.834C1851.75,-136.72 1897.47,-120.716 1932.32,-108.521"/>
<polygon fill="black" stroke="black" points="1933.55,-111.797 1941.83,-105.19 1931.24,-105.19 1933.55,-111.797"/>
</g>
<!-- rx.disposable&#45;&gt;core.stdc.string -->
<g id="edge100" class="edge"><title>rx.disposable&#45;&gt;core.stdc.string</title>
<path fill="none" stroke="black" d="M1750.43,-146.666C1726.77,-136.05 1694.31,-121.482 1668.52,-109.912"/>
<polygon fill="black" stroke="black" points="1669.91,-106.698 1659.35,-105.798 1667.04,-113.085 1669.91,-106.698"/>
</g>
<!-- rx.disposable&#45;&gt;core.sync.mutex -->
<g id="edge101" class="edge"><title>rx.disposable&#45;&gt;core.sync.mutex</title>
<path fill="none" stroke="black" d="M1736.2,-150.367C1726.98,-148.253 1717.37,-146.052 1708.38,-144 1637.73,-127.889 1600.29,-159.549 1549.38,-108 1533.54,-91.9715 1529.45,-66.1861 1528.94,-46.4861"/>
<polygon fill="black" stroke="black" points="1532.44,-46.2782 1528.97,-36.2684 1525.44,-46.2584 1532.44,-46.2782"/>
</g>
<!-- rx.disposable&#45;&gt;rx.util -->
<g id="edge102" class="edge"><title>rx.disposable&#45;&gt;rx.util</title>
<path fill="none" stroke="black" d="M1737.09,-150.028C1727.63,-147.895 1717.7,-145.774 1708.38,-144 1596.86,-122.778 1464.05,-104.588 1398.73,-96.1032"/>
<polygon fill="black" stroke="black" points="1398.84,-92.5872 1388.47,-94.7776 1397.94,-99.5296 1398.84,-92.5872"/>
</g>
<!-- std.concurrency -->
<g id="node34" class="node"><title>std.concurrency</title>
<ellipse fill="none" stroke="black" cx="1781.38" cy="-90" rx="69.5877" ry="18"/>
<text text-anchor="middle" x="1781.38" y="-86.3" font-family="Times New Roman,serif" font-size="14.00">std.concurrency</text>
</g>
<!-- rx.disposable&#45;&gt;std.concurrency -->
<g id="edge103" class="edge"><title>rx.disposable&#45;&gt;std.concurrency</title>
<path fill="none" stroke="black" d="M1782.13,-143.697C1782.02,-135.983 1781.89,-126.712 1781.76,-118.112"/>
<polygon fill="black" stroke="black" points="1785.26,-118.053 1781.62,-108.104 1778.26,-118.153 1785.26,-118.053"/>
</g>
<!-- rx.observable&#45;&gt;rx.disposable -->
<g id="edge104" class="edge"><title>rx.observable&#45;&gt;rx.disposable</title>
<path fill="none" stroke="black" d="M1665.04,-218.496C1687.47,-207.89 1718.09,-193.407 1742.42,-181.896"/>
<polygon fill="black" stroke="black" points="1744.21,-184.925 1751.75,-177.485 1741.21,-178.597 1744.21,-184.925"/>
</g>
<!-- rx.observable&#45;&gt;rx.observer -->
<g id="edge105" class="edge"><title>rx.observable&#45;&gt;rx.observer</title>
<path fill="none" stroke="black" d="M1680.21,-222.26C1724.2,-211.843 1792.47,-195.398 1851.38,-180 1855.38,-178.952 1859.54,-177.844 1863.7,-176.717"/>
<polygon fill="black" stroke="black" points="1864.65,-180.084 1873.38,-174.07 1862.81,-173.332 1864.65,-180.084"/>
</g>
<!-- rx.observable&#45;&gt;rx.util -->
<g id="edge106" class="edge"><title>rx.observable&#45;&gt;rx.util</title>
<path fill="none" stroke="black" d="M1605.62,-218.205C1553.65,-191.468 1444.47,-135.294 1390.28,-107.415"/>
<polygon fill="black" stroke="black" points="1391.63,-104.174 1381.14,-102.712 1388.43,-110.399 1391.63,-104.174"/>
</g>
<!-- rx.observable&#45;&gt;std.functional -->
<g id="edge107" class="edge"><title>rx.observable&#45;&gt;std.functional</title>
<path fill="none" stroke="black" d="M1576.65,-229.286C1391.51,-217.374 813.155,-180.164 614.317,-167.371"/>
<polygon fill="black" stroke="black" points="614.498,-163.876 604.294,-166.726 614.049,-170.861 614.498,-163.876"/>
</g>
<!-- rx.observable&#45;&gt;std.range -->
<g id="edge108" class="edge"><title>rx.observable&#45;&gt;std.range</title>
<path fill="none" stroke="black" d="M1575.87,-230.158C1492.97,-225.049 1346.76,-211.724 1305.38,-180 1285.8,-164.992 1275.55,-138.261 1270.35,-118"/>
<polygon fill="black" stroke="black" points="1273.73,-117.051 1268.07,-108.091 1266.91,-118.621 1273.73,-117.051"/>
</g>
<!-- rx.observer&#45;&gt;std.range -->
<g id="edge109" class="edge"><title>rx.observer&#45;&gt;std.range</title>
<path fill="none" stroke="black" d="M1875.23,-149.349C1867.42,-147.265 1859.18,-145.336 1851.38,-144 1617.35,-103.921 1551.58,-152.587 1318.38,-108 1314.7,-107.296 1310.91,-106.416 1307.15,-105.428"/>
<polygon fill="black" stroke="black" points="1307.86,-101.992 1297.28,-102.611 1305.94,-108.723 1307.86,-101.992"/>
</g>
<!-- std.typetuple -->
<g id="node41" class="node"><title>std.typetuple</title>
<ellipse fill="none" stroke="black" cx="2133.38" cy="-90" rx="57.6901" ry="18"/>
<text text-anchor="middle" x="2133.38" y="-86.3" font-family="Times New Roman,serif" font-size="14.00">std.typetuple</text>
</g>
<!-- rx.observer&#45;&gt;std.typetuple -->
<g id="edge110" class="edge"><title>rx.observer&#45;&gt;std.typetuple</title>
<path fill="none" stroke="black" d="M1949.37,-149.284C1986.49,-137.526 2043.86,-119.353 2084.67,-106.428"/>
<polygon fill="black" stroke="black" points="2085.93,-109.701 2094.4,-103.344 2083.81,-103.027 2085.93,-109.701"/>
</g>
<!-- rx.range.drop -->
<g id="node27" class="node"><title>rx.range.drop</title>
<ellipse fill="none" stroke="black" cx="2764.38" cy="-306" rx="59.5901" ry="18"/>
<text text-anchor="middle" x="2764.38" y="-302.3" font-family="Times New Roman,serif" font-size="14.00">rx.range.drop</text>
</g>
<!-- rx.range&#45;&gt;rx.range.drop -->
<g id="edge111" class="edge"><title>rx.range&#45;&gt;rx.range.drop</title>
<path fill="none" stroke="black" d="M2797.95,-360.411C2792.71,-352.077 2786.25,-341.797 2780.4,-332.488"/>
<polygon fill="black" stroke="black" points="2783.32,-330.56 2775.03,-323.956 2777.39,-334.285 2783.32,-330.56"/>
</g>
<!-- rx.range.take -->
<g id="node28" class="node"><title>rx.range.take</title>
<ellipse fill="none" stroke="black" cx="2899.38" cy="-306" rx="57.3905" ry="18"/>
<text text-anchor="middle" x="2899.38" y="-302.3" font-family="Times New Roman,serif" font-size="14.00">rx.range.take</text>
</g>
<!-- rx.range&#45;&gt;rx.range.take -->
<g id="edge112" class="edge"><title>rx.range&#45;&gt;rx.range.take</title>
<path fill="none" stroke="black" d="M2827.67,-362.155C2840.03,-352.65 2856.3,-340.136 2870.22,-329.431"/>
<polygon fill="black" stroke="black" points="2872.73,-331.914 2878.52,-323.043 2868.46,-326.366 2872.73,-331.914"/>
</g>
<!-- rx.range.takeLast -->
<g id="node29" class="node"><title>rx.range.takeLast</title>
<ellipse fill="none" stroke="black" cx="2613.38" cy="-306" rx="72.5877" ry="18"/>
<text text-anchor="middle" x="2613.38" y="-302.3" font-family="Times New Roman,serif" font-size="14.00">rx.range.takeLast</text>
</g>
<!-- rx.range&#45;&gt;rx.range.takeLast -->
<g id="edge113" class="edge"><title>rx.range&#45;&gt;rx.range.takeLast</title>
<path fill="none" stroke="black" d="M2777.91,-366.063C2747.03,-354.979 2698.77,-337.656 2662.49,-324.631"/>
<polygon fill="black" stroke="black" points="2663.67,-321.334 2653.07,-321.25 2661.3,-327.923 2663.67,-321.334"/>
</g>
<!-- rx.range.drop&#45;&gt;rx.disposable -->
<g id="edge114" class="edge"><title>rx.range.drop&#45;&gt;rx.disposable</title>
<path fill="none" stroke="black" d="M2720.72,-293.654C2690.72,-284.798 2650.63,-270.83 2618.38,-252 2597.14,-239.605 2599.22,-225.099 2576.38,-216 2426.52,-156.299 2010.98,-203.402 1851.38,-180 1845.96,-179.206 1840.35,-178.176 1834.77,-177.016"/>
<polygon fill="black" stroke="black" points="1835.34,-173.558 1824.82,-174.811 1833.83,-180.392 1835.34,-173.558"/>
</g>
<!-- rx.range.drop&#45;&gt;rx.observable -->
<g id="edge115" class="edge"><title>rx.range.drop&#45;&gt;rx.observable</title>
<path fill="none" stroke="black" d="M2721.93,-293.191C2713.21,-291.146 2704.04,-289.272 2695.38,-288 2646.32,-280.8 1930.84,-248.29 1703.31,-238.079"/>
<polygon fill="black" stroke="black" points="1703.31,-234.576 1693.17,-237.624 1703,-241.569 1703.31,-234.576"/>
</g>
<!-- rx.range.drop&#45;&gt;rx.observer -->
<g id="edge116" class="edge"><title>rx.range.drop&#45;&gt;rx.observer</title>
<path fill="none" stroke="black" d="M2743.26,-289.071C2714.2,-268.122 2659.4,-232.089 2606.38,-216 2489.08,-180.408 2121.82,-167.942 1974.47,-164.302"/>
<polygon fill="black" stroke="black" points="1974.32,-160.797 1964.24,-164.054 1974.15,-167.795 1974.32,-160.797"/>
</g>
<!-- rx.range.drop&#45;&gt;rx.util -->
<g id="edge117" class="edge"><title>rx.range.drop&#45;&gt;rx.util</title>
<path fill="none" stroke="black" d="M2782.77,-288.732C2801.78,-269.944 2826.34,-238.713 2808.38,-216 2722.25,-107.091 2641.96,-162.704 2504.38,-144 2083.5,-86.7838 1973.27,-134.837 1549.38,-108 1497.45,-104.712 1437.73,-99.1019 1399.09,-95.2307"/>
<polygon fill="black" stroke="black" points="1399.07,-91.7116 1388.77,-94.1883 1398.37,-98.6761 1399.07,-91.7116"/>
</g>
<!-- rx.range.drop&#45;&gt;std.range -->
<g id="edge118" class="edge"><title>rx.range.drop&#45;&gt;std.range</title>
<path fill="none" stroke="black" d="M2749.82,-288.355C2731.02,-267.988 2696.33,-233.999 2659.38,-216 2516.99,-146.644 2467.62,-162.938 2310.38,-144 1872.36,-91.246 1752.94,-184.088 1318.38,-108 1314.52,-107.326 1310.57,-106.44 1306.63,-105.426"/>
<polygon fill="black" stroke="black" points="1307.55,-102.047 1296.97,-102.69 1305.64,-108.782 1307.55,-102.047"/>
</g>
<!-- rx.range.take&#45;&gt;rx.disposable -->
<g id="edge119" class="edge"><title>rx.range.take&#45;&gt;rx.disposable</title>
<path fill="none" stroke="black" d="M2865.49,-291.45C2812.34,-270.909 2705.71,-232.535 2611.38,-216 2278.3,-157.615 2186.01,-228.677 1851.38,-180 1845.96,-179.212 1840.35,-178.186 1834.77,-177.029"/>
<polygon fill="black" stroke="black" points="1835.34,-173.57 1824.82,-174.827 1833.82,-180.405 1835.34,-173.57"/>
</g>
<!-- rx.range.take&#45;&gt;rx.observable -->
<g id="edge120" class="edge"><title>rx.range.take&#45;&gt;rx.observable</title>
<path fill="none" stroke="black" d="M2858.81,-293.14C2850.46,-291.1 2841.69,-289.24 2833.38,-288 2805.27,-283.806 1953.82,-248.249 1703.15,-237.847"/>
<polygon fill="black" stroke="black" points="1703.22,-234.347 1693.08,-237.43 1702.93,-241.341 1703.22,-234.347"/>
</g>
<!-- rx.range.take&#45;&gt;rx.observer -->
<g id="edge121" class="edge"><title>rx.range.take&#45;&gt;rx.observer</title>
<path fill="none" stroke="black" d="M2894.54,-287.723C2887.66,-266.703 2872.82,-232.041 2846.38,-216 2772.19,-171.008 2171.15,-164.199 1974.44,-163.178"/>
<polygon fill="black" stroke="black" points="1974.29,-159.677 1964.27,-163.128 1974.26,-166.677 1974.29,-159.677"/>
</g>
<!-- rx.range.take&#45;&gt;rx.util -->
<g id="edge122" class="edge"><title>rx.range.take&#45;&gt;rx.util</title>
<path fill="none" stroke="black" d="M2941.54,-293.703C2962.53,-285.716 2986,-272.656 2998.38,-252 3006.6,-238.274 3008.47,-228.413 2998.38,-216 2867.15,-54.6545 2452.03,-162.857 1549.38,-108 1497.44,-104.843 1437.72,-99.204 1399.08,-95.2904"/>
<polygon fill="black" stroke="black" points="1399.07,-91.7712 1388.77,-94.2358 1398.36,-98.7349 1399.07,-91.7712"/>
</g>
<!-- rx.range.take&#45;&gt;std.range -->
<g id="edge123" class="edge"><title>rx.range.take&#45;&gt;std.range</title>
<path fill="none" stroke="black" d="M2900.09,-287.833C2899.94,-267.584 2896.35,-234.363 2876.38,-216 2841.36,-183.806 2501.7,-148.765 2454.38,-144 2203.08,-118.701 1567.26,-150.988 1318.38,-108 1314.52,-107.334 1310.56,-106.454 1306.63,-105.445"/>
<polygon fill="black" stroke="black" points="1307.54,-102.066 1296.97,-102.714 1305.64,-108.802 1307.54,-102.066"/>
</g>
<!-- rx.range.takeLast&#45;&gt;rx.disposable -->
<g id="edge124" class="edge"><title>rx.range.takeLast&#45;&gt;rx.disposable</title>
<path fill="none" stroke="black" d="M2605.42,-287.929C2594.52,-266.78 2572.79,-231.631 2542.38,-216 2474,-180.857 1927.43,-191.246 1851.38,-180 1845.96,-179.199 1840.35,-178.165 1834.77,-177.003"/>
<polygon fill="black" stroke="black" points="1835.34,-173.544 1824.82,-174.795 1833.83,-180.378 1835.34,-173.544"/>
</g>
<!-- rx.range.takeLast&#45;&gt;rx.observable -->
<g id="edge125" class="edge"><title>rx.range.takeLast&#45;&gt;rx.observable</title>
<path fill="none" stroke="black" d="M2553.67,-295.593C2534.46,-292.82 2513.05,-289.998 2493.38,-288 2200.5,-258.267 1849.64,-242.907 1703.51,-237.409"/>
<polygon fill="black" stroke="black" points="1703.47,-233.905 1693.35,-237.03 1703.21,-240.9 1703.47,-233.905"/>
</g>
<!-- rx.range.takeLast&#45;&gt;rx.observer -->
<g id="edge126" class="edge"><title>rx.range.takeLast&#45;&gt;rx.observer</title>
<path fill="none" stroke="black" d="M2612.31,-287.702C2610.03,-266.997 2602.85,-232.997 2580.38,-216 2532.7,-179.946 2131.01,-167.622 1974.48,-164.164"/>
<polygon fill="black" stroke="black" points="1974.15,-160.656 1964.08,-163.939 1974,-167.654 1974.15,-160.656"/>
</g>
<!-- rx.range.takeLast&#45;&gt;rx.util -->
<g id="edge127" class="edge"><title>rx.range.takeLast&#45;&gt;rx.util</title>
<path fill="none" stroke="black" d="M2650.81,-290.389C2667.3,-281.853 2685.02,-269.296 2694.38,-252 2701.99,-237.926 2704.77,-228.161 2694.38,-216 2609.93,-117.241 1656.61,-115.579 1549.38,-108 1497.47,-104.331 1437.75,-98.8051 1399.1,-95.0574"/>
<polygon fill="black" stroke="black" points="1399.08,-91.5384 1388.78,-94.0505 1398.4,-98.5053 1399.08,-91.5384"/>
</g>
<!-- rx.range.takeLast&#45;&gt;std.range -->
<g id="edge128" class="edge"><title>rx.range.takeLast&#45;&gt;std.range</title>
<path fill="none" stroke="black" d="M2617.73,-287.75C2621.65,-267.734 2624.35,-235.049 2606.38,-216 2525.72,-130.542 1443.37,-130.585 1318.38,-108 1314.53,-107.305 1310.57,-106.404 1306.64,-105.381"/>
<polygon fill="black" stroke="black" points="1307.56,-102.004 1296.98,-102.632 1305.64,-108.736 1307.56,-102.004"/>
</g>
<!-- rx.scheduler&#45;&gt;core.internal.traits -->
<g id="edge129" class="edge"><title>rx.scheduler&#45;&gt;core.internal.traits</title>
<path fill="none" stroke="black" d="M3400.25,-303.767C3532.2,-300.236 3858.77,-287.922 3891.38,-252 3902.13,-240.152 3901.87,-228.074 3891.38,-216 3740.31,-42.2538 3607.81,-163.188 3378.38,-144 2797.07,-95.3856 2645.95,-174.1 2066.38,-108 2059.26,-107.189 2051.85,-106.082 2044.51,-104.819"/>
<polygon fill="black" stroke="black" points="2045.05,-101.358 2034.58,-103.013 2043.79,-108.245 2045.05,-101.358"/>
</g>
<!-- rx.scheduler&#45;&gt;core.thread -->
<g id="edge130" class="edge"><title>rx.scheduler&#45;&gt;core.thread</title>
<path fill="none" stroke="black" d="M3308.73,-292.485C3274.26,-280.717 3222.57,-263.067 3185.57,-250.431"/>
<polygon fill="black" stroke="black" points="3186.62,-247.091 3176.02,-247.172 3184.35,-253.716 3186.62,-247.091"/>
</g>
<!-- rx.scheduler&#45;&gt;core.time -->
<g id="edge131" class="edge"><title>rx.scheduler&#45;&gt;core.time</title>
<path fill="none" stroke="black" d="M3324.73,-289.116C3312.22,-279.495 3296.1,-267.095 3282.45,-256.593"/>
<polygon fill="black" stroke="black" points="3284.38,-253.663 3274.32,-250.34 3280.11,-259.211 3284.38,-253.663"/>
</g>
<!-- rx.scheduler&#45;&gt;rx.disposable -->
<g id="edge132" class="edge"><title>rx.scheduler&#45;&gt;rx.disposable</title>
<path fill="none" stroke="black" d="M3343.51,-287.781C3340.22,-266.821 3331.29,-232.221 3307.38,-216 3240.41,-170.581 1931.57,-190.741 1851.38,-180 1845.87,-179.263 1840.17,-178.26 1834.52,-177.107"/>
<polygon fill="black" stroke="black" points="1834.94,-173.618 1824.43,-174.895 1833.45,-180.456 1834.94,-173.618"/>
</g>
<!-- rx.scheduler&#45;&gt;rx.observable -->
<g id="edge133" class="edge"><title>rx.scheduler&#45;&gt;rx.observable</title>
<path fill="none" stroke="black" d="M3290.95,-302.469C3217.18,-299.061 3081.34,-292.863 2965.38,-288 2556.53,-270.856 2454.25,-268.456 2045.38,-252 1925.11,-247.16 1785.06,-241.324 1703.4,-237.902"/>
<polygon fill="black" stroke="black" points="1703.39,-234.398 1693.25,-237.476 1703.09,-241.392 1703.39,-234.398"/>
</g>
<!-- rx.scheduler&#45;&gt;rx.observer -->
<g id="edge134" class="edge"><title>rx.scheduler&#45;&gt;rx.observer</title>
<path fill="none" stroke="black" d="M3400.79,-305.914C3511.31,-306.067 3742.02,-297.059 3663.38,-216 3633.36,-185.059 2282.21,-167.343 1974.35,-163.704"/>
<polygon fill="black" stroke="black" points="1974.31,-160.203 1964.27,-163.585 1974.23,-167.203 1974.31,-160.203"/>
</g>
<!-- std.algorithm.internal -->
<g id="node33" class="node"><title>std.algorithm.internal</title>
<ellipse fill="none" stroke="black" cx="3796.38" cy="-234" rx="86.3847" ry="18"/>
<text text-anchor="middle" x="3796.38" y="-230.3" font-family="Times New Roman,serif" font-size="14.00">std.algorithm.internal</text>
</g>
<!-- rx.scheduler&#45;&gt;std.algorithm.internal -->
<g id="edge135" class="edge"><title>rx.scheduler&#45;&gt;std.algorithm.internal</title>
<path fill="none" stroke="black" d="M3394.83,-297.827C3462.82,-287.898 3588.98,-269.236 3696.38,-252 3704.69,-250.666 3713.38,-249.238 3722.02,-247.797"/>
<polygon fill="black" stroke="black" points="3722.84,-251.209 3732.12,-246.104 3721.68,-244.306 3722.84,-251.209"/>
</g>
<!-- std.exception -->
<g id="node35" class="node"><title>std.exception</title>
<ellipse fill="none" stroke="black" cx="3452.38" cy="-234" rx="59.5901" ry="18"/>
<text text-anchor="middle" x="3452.38" y="-230.3" font-family="Times New Roman,serif" font-size="14.00">std.exception</text>
</g>
<!-- rx.scheduler&#45;&gt;std.exception -->
<g id="edge136" class="edge"><title>rx.scheduler&#45;&gt;std.exception</title>
<path fill="none" stroke="black" d="M3368.86,-289.638C3383.81,-279.859 3403.38,-267.054 3419.82,-256.3"/>
<polygon fill="black" stroke="black" points="3422.13,-258.971 3428.58,-250.568 3418.3,-253.114 3422.13,-258.971"/>
</g>
<!-- std.parallelism -->
<g id="node38" class="node"><title>std.parallelism</title>
<ellipse fill="none" stroke="black" cx="3592.38" cy="-234" rx="62.2891" ry="18"/>
<text text-anchor="middle" x="3592.38" y="-230.3" font-family="Times New Roman,serif" font-size="14.00">std.parallelism</text>
</g>
<!-- rx.scheduler&#45;&gt;std.parallelism -->
<g id="edge137" class="edge"><title>rx.scheduler&#45;&gt;std.parallelism</title>
<path fill="none" stroke="black" d="M3385.61,-293.597C3427.51,-281.723 3493.34,-263.066 3539.44,-250.002"/>
<polygon fill="black" stroke="black" points="3540.58,-253.316 3549.25,-247.222 3538.68,-246.581 3540.58,-253.316"/>
</g>
<!-- rx.scheduler&#45;&gt;std.range -->
<g id="edge138" class="edge"><title>rx.scheduler&#45;&gt;std.range</title>
<path fill="none" stroke="black" d="M3349,-288.019C3352.19,-267.954 3353.84,-234.913 3335.38,-216 3170.23,-46.8565 3044.02,-162.884 2808.38,-144 2478.23,-117.542 1644.96,-163.144 1318.38,-108 1314.52,-107.349 1310.56,-106.479 1306.62,-105.475"/>
<polygon fill="black" stroke="black" points="1307.53,-102.096 1296.96,-102.755 1305.64,-108.834 1307.53,-102.096"/>
</g>
<!-- rx.subject&#45;&gt;core.atomic -->
<g id="edge139" class="edge"><title>rx.subject&#45;&gt;core.atomic</title>
<path fill="none" stroke="black" d="M231.373,-294.093C184.344,-279.361 106.369,-254.632 104.376,-252 75.3876,-213.719 69.3925,-179.817 101.376,-144 171.008,-66.0231 915.603,-30.3874 1139.84,-21.3724"/>
<polygon fill="black" stroke="black" points="1140.26,-24.8582 1150.12,-20.9631 1139.99,-17.8638 1140.26,-24.8582"/>
</g>
<!-- rx.subject&#45;&gt;rx.disposable -->
<g id="edge140" class="edge"><title>rx.subject&#45;&gt;rx.disposable</title>
<path fill="none" stroke="black" d="M306.845,-297.303C359.371,-287.242 453.843,-268.909 534.376,-252 606.559,-236.844 623.278,-225.833 696.376,-216 1077.22,-164.77 1539.09,-161.502 1712.3,-162.312"/>
<polygon fill="black" stroke="black" points="1712.29,-165.812 1722.31,-162.365 1712.32,-158.812 1712.29,-165.812"/>
</g>
<!-- rx.subject&#45;&gt;rx.observable -->
<g id="edge141" class="edge"><title>rx.subject&#45;&gt;rx.observable</title>
<path fill="none" stroke="black" d="M306.022,-296.496C322.454,-293.3 341.759,-289.967 359.376,-288 816.639,-236.955 1371.1,-233.85 1564.12,-234.496"/>
<polygon fill="black" stroke="black" points="1564.39,-237.997 1574.41,-234.535 1564.42,-230.997 1564.39,-237.997"/>
</g>
<!-- rx.subject&#45;&gt;rx.observer -->
<g id="edge142" class="edge"><title>rx.subject&#45;&gt;rx.observer</title>
<path fill="none" stroke="black" d="M307.046,-297.126C323.293,-294.096 342.191,-290.715 359.376,-288 478.955,-269.11 509.62,-269.734 629.376,-252 727.819,-237.422 751.344,-225.808 850.376,-216 1293.39,-172.127 1411.46,-248.229 1851.38,-180 1856.08,-179.27 1860.95,-178.299 1865.78,-177.191"/>
<polygon fill="black" stroke="black" points="1866.72,-180.563 1875.59,-174.756 1865.04,-173.769 1866.72,-180.563"/>
</g>
<!-- rx.subject&#45;&gt;rx.util -->
<g id="edge143" class="edge"><title>rx.subject&#45;&gt;rx.util</title>
<path fill="none" stroke="black" d="M240.27,-291.033C226.234,-281.96 210.234,-268.71 202.376,-252 180.722,-205.953 197.244,-170.998 240.376,-144 341.961,-80.4135 1201.36,-133.876 1318.38,-108 1320.89,-107.444 1323.44,-106.734 1325.98,-105.921"/>
<polygon fill="black" stroke="black" points="1327.41,-109.125 1335.59,-102.384 1324.99,-102.556 1327.41,-109.125"/>
</g>
<!-- rx.subject&#45;&gt;std.range -->
<g id="edge144" class="edge"><title>rx.subject&#45;&gt;std.range</title>
<path fill="none" stroke="black" d="M231.37,-294.04C191.98,-281.358 132.635,-261.062 126.376,-252 99.0973,-212.505 93.2332,-178.721 126.376,-144 164.218,-104.356 989.15,-93.6381 1210.91,-91.4686"/>
<polygon fill="black" stroke="black" points="1211.04,-94.9676 1221.01,-91.3717 1210.97,-87.9679 1211.04,-94.9676"/>
</g>
<!-- rx.util&#45;&gt;core.atomic -->
<g id="edge145" class="edge"><title>rx.util&#45;&gt;core.atomic</title>
<path fill="none" stroke="black" d="M1334.5,-78.2159C1310.31,-67.2934 1272.46,-50.1996 1243.63,-37.1798"/>
<polygon fill="black" stroke="black" points="1244.79,-33.8615 1234.23,-32.9354 1241.91,-40.2411 1244.79,-33.8615"/>
</g>
<!-- rx.util&#45;&gt;core.sync.condition -->
<g id="edge146" class="edge"><title>rx.util&#45;&gt;core.sync.condition</title>
<path fill="none" stroke="black" d="M1358.38,-71.6966C1358.38,-63.9827 1358.38,-54.7125 1358.38,-46.1124"/>
<polygon fill="black" stroke="black" points="1361.88,-46.1043 1358.38,-36.1043 1354.88,-46.1044 1361.88,-46.1043"/>
</g>
<!-- rx.util&#45;&gt;core.sync.mutex -->
<g id="edge147" class="edge"><title>rx.util&#45;&gt;core.sync.mutex</title>
<path fill="none" stroke="black" d="M1383.39,-78.8214C1410.01,-67.9847 1452.71,-50.6073 1485.24,-37.3674"/>
<polygon fill="black" stroke="black" points="1486.61,-40.5892 1494.56,-33.5778 1483.97,-34.1056 1486.61,-40.5892"/>
</g>
</g>
</svg>
