<?xml version="1.0" encoding="UTF-8" standalone="no"?>
<!DOCTYPE svg PUBLIC "-//W3C//DTD SVG 1.1//EN"
 "http://www.w3.org/Graphics/SVG/1.1/DTD/svg11.dtd">
<!-- Generated by graphviz version 2.38.0 (20140413.2041)
 -->
<!-- Title: %3 Pages: 1 -->
<svg width="4481pt" height="548pt"
 viewBox="0.00 0.00 4481.34 548.00" xmlns="http://www.w3.org/2000/svg" xmlns:xlink="http://www.w3.org/1999/xlink">
<g id="graph0" class="graph" transform="scale(1 1) rotate(0) translate(4 544)">
<title>%3</title>
<polygon fill="white" stroke="none" points="-4,4 -4,-544 4477.34,-544 4477.34,4 -4,4"/>
<!-- core.atomic -->
<g id="node1" class="node"><title>core.atomic</title>
<ellipse fill="none" stroke="black" cx="1292.34" cy="-18" rx="53.8905" ry="18"/>
<text text-anchor="middle" x="1292.34" y="-14.3" font-family="Times New Roman,serif" font-size="14.00">core.atomic</text>
</g>
<!-- core.internal.traits -->
<g id="node2" class="node"><title>core.internal.traits</title>
<ellipse fill="none" stroke="black" cx="3377.34" cy="-90" rx="75.2868" ry="18"/>
<text text-anchor="middle" x="3377.34" y="-86.3" font-family="Times New Roman,serif" font-size="14.00">core.internal.traits</text>
</g>
<!-- core.stdc.string -->
<g id="node3" class="node"><title>core.stdc.string</title>
<ellipse fill="none" stroke="black" cx="1781.34" cy="-90" rx="67.6881" ry="18"/>
<text text-anchor="middle" x="1781.34" y="-86.3" font-family="Times New Roman,serif" font-size="14.00">core.stdc.string</text>
</g>
<!-- core.sync.condition -->
<g id="node4" class="node"><title>core.sync.condition</title>
<ellipse fill="none" stroke="black" cx="1447.34" cy="-18" rx="83.3857" ry="18"/>
<text text-anchor="middle" x="1447.34" y="-14.3" font-family="Times New Roman,serif" font-size="14.00">core.sync.condition</text>
</g>
<!-- core.sync.mutex -->
<g id="node5" class="node"><title>core.sync.mutex</title>
<ellipse fill="none" stroke="black" cx="1748.34" cy="-18" rx="70.6878" ry="18"/>
<text text-anchor="middle" x="1748.34" y="-14.3" font-family="Times New Roman,serif" font-size="14.00">core.sync.mutex</text>
</g>
<!-- core.thread -->
<g id="node6" class="node"><title>core.thread</title>
<ellipse fill="none" stroke="black" cx="3588.34" cy="-234" rx="51.9908" ry="18"/>
<text text-anchor="middle" x="3588.34" y="-230.3" font-family="Times New Roman,serif" font-size="14.00">core.thread</text>
</g>
<!-- core.time -->
<g id="node7" class="node"><title>core.time</title>
<ellipse fill="none" stroke="black" cx="3702.34" cy="-234" rx="44.393" ry="18"/>
<text text-anchor="middle" x="3702.34" y="-230.3" font-family="Times New Roman,serif" font-size="14.00">core.time</text>
</g>
<!-- rx -->
<g id="node8" class="node"><title>rx</title>
<ellipse fill="none" stroke="black" cx="3514.34" cy="-522" rx="27" ry="18"/>
<text text-anchor="middle" x="3514.34" y="-518.3" font-family="Times New Roman,serif" font-size="14.00">rx</text>
</g>
<!-- rx.algorithm -->
<g id="node9" class="node"><title>rx.algorithm</title>
<ellipse fill="none" stroke="black" cx="1425.34" cy="-450" rx="53.8905" ry="18"/>
<text text-anchor="middle" x="1425.34" y="-446.3" font-family="Times New Roman,serif" font-size="14.00">rx.algorithm</text>
</g>
<!-- rx&#45;&gt;rx.algorithm -->
<g id="edge1" class="edge"><title>rx&#45;&gt;rx.algorithm</title>
<path fill="none" stroke="black" d="M3487.39,-520.415C3324.75,-516.84 2457.5,-497.115 1750.34,-468 1659.11,-464.244 1553.55,-458.456 1488.11,-454.698"/>
<polygon fill="black" stroke="black" points="1488.14,-451.194 1477.96,-454.112 1487.74,-458.182 1488.14,-451.194"/>
</g>
<!-- rx.disposable -->
<g id="node23" class="node"><title>rx.disposable</title>
<ellipse fill="none" stroke="black" cx="1926.34" cy="-162" rx="59.5901" ry="18"/>
<text text-anchor="middle" x="1926.34" y="-158.3" font-family="Times New Roman,serif" font-size="14.00">rx.disposable</text>
</g>
<!-- rx&#45;&gt;rx.disposable -->
<g id="edge2" class="edge"><title>rx&#45;&gt;rx.disposable</title>
<path fill="none" stroke="black" d="M3541.5,-519.378C3686.13,-510.388 4359.34,-463.978 4359.34,-379 4359.34,-379 4359.34,-379 4359.34,-305 4359.34,-258.027 4343.37,-238.866 4302.34,-216 4190.71,-153.792 2129.25,-195.026 2002.34,-180 1994.97,-179.127 1987.26,-177.846 1979.7,-176.372"/>
<polygon fill="black" stroke="black" points="1980.38,-172.94 1969.88,-174.341 1978.97,-179.795 1980.38,-172.94"/>
</g>
<!-- rx.observable -->
<g id="node24" class="node"><title>rx.observable</title>
<ellipse fill="none" stroke="black" cx="1800.34" cy="-234" rx="59.5901" ry="18"/>
<text text-anchor="middle" x="1800.34" y="-230.3" font-family="Times New Roman,serif" font-size="14.00">rx.observable</text>
</g>
<!-- rx&#45;&gt;rx.observable -->
<g id="edge3" class="edge"><title>rx&#45;&gt;rx.observable</title>
<path fill="none" stroke="black" d="M3487.38,-520.024C3277.97,-512.172 1916.22,-456.187 1798.34,-324 1783.6,-307.476 1785.99,-281.576 1790.94,-261.968"/>
<polygon fill="black" stroke="black" points="1794.38,-262.674 1793.78,-252.096 1787.65,-260.74 1794.38,-262.674"/>
</g>
<!-- rx.observer -->
<g id="node25" class="node"><title>rx.observer</title>
<ellipse fill="none" stroke="black" cx="2063.34" cy="-162" rx="51.9908" ry="18"/>
<text text-anchor="middle" x="2063.34" y="-158.3" font-family="Times New Roman,serif" font-size="14.00">rx.observer</text>
</g>
<!-- rx&#45;&gt;rx.observer -->
<g id="edge4" class="edge"><title>rx&#45;&gt;rx.observer</title>
<path fill="none" stroke="black" d="M3541.46,-521.173C3680.3,-521.82 4307.5,-521.732 4373.34,-468 4405.08,-442.096 4397.34,-419.969 4397.34,-379 4397.34,-379 4397.34,-379 4397.34,-305 4397.34,-264.031 4405.57,-241.285 4373.34,-216 4327.84,-180.308 2489.04,-165.907 2125.43,-163.406"/>
<polygon fill="black" stroke="black" points="2125.38,-159.906 2115.36,-163.337 2125.33,-166.906 2125.38,-159.906"/>
</g>
<!-- rx.range -->
<g id="node26" class="node"><title>rx.range</title>
<ellipse fill="none" stroke="black" cx="2955.34" cy="-378" rx="40.0939" ry="18"/>
<text text-anchor="middle" x="2955.34" y="-374.3" font-family="Times New Roman,serif" font-size="14.00">rx.range</text>
</g>
<!-- rx&#45;&gt;rx.range -->
<g id="edge5" class="edge"><title>rx&#45;&gt;rx.range</title>
<path fill="none" stroke="black" d="M3489.6,-514.715C3402.82,-492.672 3111.53,-418.675 2999.63,-390.251"/>
<polygon fill="black" stroke="black" points="3000.24,-386.795 2989.69,-387.725 2998.52,-393.58 3000.24,-386.795"/>
</g>
<!-- rx.scheduler -->
<g id="node31" class="node"><title>rx.scheduler</title>
<ellipse fill="none" stroke="black" cx="3799.34" cy="-306" rx="55.4913" ry="18"/>
<text text-anchor="middle" x="3799.34" y="-302.3" font-family="Times New Roman,serif" font-size="14.00">rx.scheduler</text>
</g>
<!-- rx&#45;&gt;rx.scheduler -->
<g id="edge6" class="edge"><title>rx&#45;&gt;rx.scheduler</title>
<path fill="none" stroke="black" d="M3531.74,-507.935C3579.2,-472.3 3711.27,-373.129 3770.25,-328.844"/>
<polygon fill="black" stroke="black" points="3772.51,-331.526 3778.4,-322.722 3768.3,-325.928 3772.51,-331.526"/>
</g>
<!-- rx.subject -->
<g id="node32" class="node"><title>rx.subject</title>
<ellipse fill="none" stroke="black" cx="78.3404" cy="-306" rx="46.2923" ry="18"/>
<text text-anchor="middle" x="78.3404" y="-302.3" font-family="Times New Roman,serif" font-size="14.00">rx.subject</text>
</g>
<!-- rx&#45;&gt;rx.subject -->
<g id="edge7" class="edge"><title>rx&#45;&gt;rx.subject</title>
<path fill="none" stroke="black" d="M3487.3,-520.747C3304.78,-518.952 2233.64,-507.074 1362.34,-468 870.239,-445.931 731.828,-524.696 256.34,-396 201.54,-381.168 143.755,-348.709 109.393,-327.362"/>
<polygon fill="black" stroke="black" points="111.088,-324.294 100.761,-321.926 107.358,-330.217 111.088,-324.294"/>
</g>
<!-- rx.util -->
<g id="node33" class="node"><title>rx.util</title>
<ellipse fill="none" stroke="black" cx="1370.34" cy="-90" rx="31.3957" ry="18"/>
<text text-anchor="middle" x="1370.34" y="-86.3" font-family="Times New Roman,serif" font-size="14.00">rx.util</text>
</g>
<!-- rx&#45;&gt;rx.util -->
<g id="edge8" class="edge"><title>rx&#45;&gt;rx.util</title>
<path fill="none" stroke="black" d="M3541.4,-520.641C3681.41,-518.616 4320.1,-507.272 4398.34,-468 4444.57,-444.794 4473.34,-430.728 4473.34,-379 4473.34,-379 4473.34,-379 4473.34,-233 4473.34,-71.0177 1722.04,-117.559 1560.34,-108 1508.82,-104.954 1449.61,-99.3163 1411.17,-95.3713"/>
<polygon fill="black" stroke="black" points="1411.21,-91.8568 1400.9,-94.3071 1410.49,-98.8195 1411.21,-91.8568"/>
</g>
<!-- rx.algorithm.all -->
<g id="node10" class="node"><title>rx.algorithm.all</title>
<ellipse fill="none" stroke="black" cx="1137.34" cy="-306" rx="64.189" ry="18"/>
<text text-anchor="middle" x="1137.34" y="-302.3" font-family="Times New Roman,serif" font-size="14.00">rx.algorithm.all</text>
</g>
<!-- rx.algorithm&#45;&gt;rx.algorithm.all -->
<g id="edge9" class="edge"><title>rx.algorithm&#45;&gt;rx.algorithm.all</title>
<path fill="none" stroke="black" d="M1401.58,-433.647C1372.02,-414.903 1319.65,-382.879 1272.34,-360 1244.3,-346.439 1211.84,-333.609 1185.78,-323.97"/>
<polygon fill="black" stroke="black" points="1186.72,-320.587 1176.12,-320.437 1184.31,-327.161 1186.72,-320.587"/>
</g>
<!-- rx.algorithm.any -->
<g id="node11" class="node"><title>rx.algorithm.any</title>
<ellipse fill="none" stroke="black" cx="1289.34" cy="-306" rx="69.5877" ry="18"/>
<text text-anchor="middle" x="1289.34" y="-302.3" font-family="Times New Roman,serif" font-size="14.00">rx.algorithm.any</text>
</g>
<!-- rx.algorithm&#45;&gt;rx.algorithm.any -->
<g id="edge10" class="edge"><title>rx.algorithm&#45;&gt;rx.algorithm.any</title>
<path fill="none" stroke="black" d="M1413.74,-432.383C1400.42,-413.822 1377.42,-383.325 1354.34,-360 1343.63,-349.172 1330.82,-338.344 1319.41,-329.323"/>
<polygon fill="black" stroke="black" points="1321.45,-326.473 1311.4,-323.1 1317.15,-332 1321.45,-326.473"/>
</g>
<!-- rx.algorithm.buffer -->
<g id="node12" class="node"><title>rx.algorithm.buffer</title>
<ellipse fill="none" stroke="black" cx="1909.34" cy="-306" rx="78.7863" ry="18"/>
<text text-anchor="middle" x="1909.34" y="-302.3" font-family="Times New Roman,serif" font-size="14.00">rx.algorithm.buffer</text>
</g>
<!-- rx.algorithm&#45;&gt;rx.algorithm.buffer -->
<g id="edge11" class="edge"><title>rx.algorithm&#45;&gt;rx.algorithm.buffer</title>
<path fill="none" stroke="black" d="M1464.54,-437.5C1550.04,-412.413 1753.6,-352.693 1852.9,-323.558"/>
<polygon fill="black" stroke="black" points="1854.15,-326.84 1862.76,-320.667 1852.18,-320.124 1854.15,-326.84"/>
</g>
<!-- rx.algorithm.combineLatest -->
<g id="node13" class="node"><title>rx.algorithm.combineLatest</title>
<ellipse fill="none" stroke="black" cx="2352.34" cy="-306" rx="109.681" ry="18"/>
<text text-anchor="middle" x="2352.34" y="-302.3" font-family="Times New Roman,serif" font-size="14.00">rx.algorithm.combineLatest</text>
</g>
<!-- rx.algorithm&#45;&gt;rx.algorithm.combineLatest -->
<g id="edge12" class="edge"><title>rx.algorithm&#45;&gt;rx.algorithm.combineLatest</title>
<path fill="none" stroke="black" d="M1473.33,-441.68C1540.3,-431.465 1665.57,-412.347 1772.34,-396 1947.07,-369.25 2151.39,-337.876 2264.92,-320.434"/>
<polygon fill="black" stroke="black" points="2265.59,-323.872 2274.95,-318.894 2264.53,-316.953 2265.59,-323.872"/>
</g>
<!-- rx.algorithm.debounce -->
<g id="node14" class="node"><title>rx.algorithm.debounce</title>
<ellipse fill="none" stroke="black" cx="3489.34" cy="-378" rx="92.0841" ry="18"/>
<text text-anchor="middle" x="3489.34" y="-374.3" font-family="Times New Roman,serif" font-size="14.00">rx.algorithm.debounce</text>
</g>
<!-- rx.algorithm&#45;&gt;rx.algorithm.debounce -->
<g id="edge13" class="edge"><title>rx.algorithm&#45;&gt;rx.algorithm.debounce</title>
<path fill="none" stroke="black" d="M1478.85,-447.233C1679.41,-440.603 2405.72,-416.538 3004.34,-396 3137.51,-391.431 3291.24,-386.019 3389.31,-382.55"/>
<polygon fill="black" stroke="black" points="3389.64,-386.04 3399.51,-382.189 3389.39,-379.045 3389.64,-386.04"/>
</g>
<!-- rx.algorithm.filter -->
<g id="node15" class="node"><title>rx.algorithm.filter</title>
<ellipse fill="none" stroke="black" cx="668.34" cy="-306" rx="72.5877" ry="18"/>
<text text-anchor="middle" x="668.34" y="-302.3" font-family="Times New Roman,serif" font-size="14.00">rx.algorithm.filter</text>
</g>
<!-- rx.algorithm&#45;&gt;rx.algorithm.filter -->
<g id="edge14" class="edge"><title>rx.algorithm&#45;&gt;rx.algorithm.filter</title>
<path fill="none" stroke="black" d="M1373.7,-444.507C1295.03,-437.187 1140.65,-420.95 1011.34,-396 908.062,-376.073 789.743,-343.065 722.54,-323.337"/>
<polygon fill="black" stroke="black" points="723.185,-319.879 712.603,-320.408 721.205,-326.593 723.185,-319.879"/>
</g>
<!-- rx.algorithm.fold -->
<g id="node16" class="node"><title>rx.algorithm.fold</title>
<ellipse fill="none" stroke="black" cx="2077.34" cy="-306" rx="71.4873" ry="18"/>
<text text-anchor="middle" x="2077.34" y="-302.3" font-family="Times New Roman,serif" font-size="14.00">rx.algorithm.fold</text>
</g>
<!-- rx.algorithm&#45;&gt;rx.algorithm.fold -->
<g id="edge15" class="edge"><title>rx.algorithm&#45;&gt;rx.algorithm.fold</title>
<path fill="none" stroke="black" d="M1470.25,-439.943C1521.4,-429.569 1607.47,-411.946 1681.34,-396 1800.16,-370.35 1938.66,-338.856 2016.36,-321.041"/>
<polygon fill="black" stroke="black" points="2017.49,-324.374 2026.45,-318.726 2015.92,-317.551 2017.49,-324.374"/>
</g>
<!-- rx.algorithm.groupby -->
<g id="node17" class="node"><title>rx.algorithm.groupby</title>
<ellipse fill="none" stroke="black" cx="352.34" cy="-378" rx="87.1846" ry="18"/>
<text text-anchor="middle" x="352.34" y="-374.3" font-family="Times New Roman,serif" font-size="14.00">rx.algorithm.groupby</text>
</g>
<!-- rx.algorithm&#45;&gt;rx.algorithm.groupby -->
<g id="edge16" class="edge"><title>rx.algorithm&#45;&gt;rx.algorithm.groupby</title>
<path fill="none" stroke="black" d="M1372.02,-446.798C1231.34,-440.795 838.515,-422.78 512.34,-396 487.627,-393.971 460.814,-391.305 436.329,-388.688"/>
<polygon fill="black" stroke="black" points="436.671,-385.204 426.353,-387.611 435.919,-392.164 436.671,-385.204"/>
</g>
<!-- rx.algorithm.map -->
<g id="node18" class="node"><title>rx.algorithm.map</title>
<ellipse fill="none" stroke="black" cx="505.34" cy="-306" rx="72.2875" ry="18"/>
<text text-anchor="middle" x="505.34" y="-302.3" font-family="Times New Roman,serif" font-size="14.00">rx.algorithm.map</text>
</g>
<!-- rx.algorithm&#45;&gt;rx.algorithm.map -->
<g id="edge17" class="edge"><title>rx.algorithm&#45;&gt;rx.algorithm.map</title>
<path fill="none" stroke="black" d="M1372.03,-446.801C1270.85,-442.018 1044.31,-428.382 856.34,-396 749.314,-377.562 626.895,-343.479 558.597,-323.263"/>
<polygon fill="black" stroke="black" points="559.504,-319.882 548.921,-320.385 557.508,-326.591 559.504,-319.882"/>
</g>
<!-- rx.algorithm.merge -->
<g id="node19" class="node"><title>rx.algorithm.merge</title>
<ellipse fill="none" stroke="black" cx="1455.34" cy="-306" rx="78.7863" ry="18"/>
<text text-anchor="middle" x="1455.34" y="-302.3" font-family="Times New Roman,serif" font-size="14.00">rx.algorithm.merge</text>
</g>
<!-- rx.algorithm&#45;&gt;rx.algorithm.merge -->
<g id="edge18" class="edge"><title>rx.algorithm&#45;&gt;rx.algorithm.merge</title>
<path fill="none" stroke="black" d="M1428.96,-431.871C1434.09,-407.564 1443.55,-362.819 1449.63,-334.013"/>
<polygon fill="black" stroke="black" points="1453.07,-334.697 1451.71,-324.189 1446.22,-333.25 1453.07,-334.697"/>
</g>
<!-- rx.algorithm.scan -->
<g id="node20" class="node"><title>rx.algorithm.scan</title>
<ellipse fill="none" stroke="black" cx="1625.34" cy="-306" rx="73.387" ry="18"/>
<text text-anchor="middle" x="1625.34" y="-302.3" font-family="Times New Roman,serif" font-size="14.00">rx.algorithm.scan</text>
</g>
<!-- rx.algorithm&#45;&gt;rx.algorithm.scan -->
<g id="edge19" class="edge"><title>rx.algorithm&#45;&gt;rx.algorithm.scan</title>
<path fill="none" stroke="black" d="M1447.51,-433.261C1483.21,-407.913 1553.55,-357.973 1594.25,-329.076"/>
<polygon fill="black" stroke="black" points="1596.33,-331.889 1602.46,-323.246 1592.28,-326.181 1596.33,-331.889"/>
</g>
<!-- rx.algorithm.tee -->
<g id="node21" class="node"><title>rx.algorithm.tee</title>
<ellipse fill="none" stroke="black" cx="826.34" cy="-306" rx="66.8882" ry="18"/>
<text text-anchor="middle" x="826.34" y="-302.3" font-family="Times New Roman,serif" font-size="14.00">rx.algorithm.tee</text>
</g>
<!-- rx.algorithm&#45;&gt;rx.algorithm.tee -->
<g id="edge20" class="edge"><title>rx.algorithm&#45;&gt;rx.algorithm.tee</title>
<path fill="none" stroke="black" d="M1378.04,-441.147C1322.71,-431.682 1228.44,-414.701 1148.34,-396 1052.51,-373.627 942.26,-341.814 878.801,-322.904"/>
<polygon fill="black" stroke="black" points="879.611,-319.493 869.028,-319.983 877.607,-326.2 879.611,-319.493"/>
</g>
<!-- rx.algorithm.uniq -->
<g id="node22" class="node"><title>rx.algorithm.uniq</title>
<ellipse fill="none" stroke="black" cx="983.34" cy="-306" rx="72.2875" ry="18"/>
<text text-anchor="middle" x="983.34" y="-302.3" font-family="Times New Roman,serif" font-size="14.00">rx.algorithm.uniq</text>
</g>
<!-- rx.algorithm&#45;&gt;rx.algorithm.uniq -->
<g id="edge21" class="edge"><title>rx.algorithm&#45;&gt;rx.algorithm.uniq</title>
<path fill="none" stroke="black" d="M1387.66,-436.893C1308.68,-411.52 1125.67,-352.725 1035.48,-323.752"/>
<polygon fill="black" stroke="black" points="1036.33,-320.349 1025.74,-320.623 1034.19,-327.014 1036.33,-320.349"/>
</g>
<!-- rx.algorithm.all&#45;&gt;rx.disposable -->
<g id="edge22" class="edge"><title>rx.algorithm.all&#45;&gt;rx.disposable</title>
<path fill="none" stroke="black" d="M1176.19,-291.436C1234.09,-271.758 1346.79,-235.518 1445.34,-216 1590.7,-187.21 1764.1,-172.932 1857.89,-166.836"/>
<polygon fill="black" stroke="black" points="1858.34,-170.315 1868.1,-166.185 1857.9,-163.329 1858.34,-170.315"/>
</g>
<!-- rx.algorithm.all&#45;&gt;rx.observable -->
<g id="edge23" class="edge"><title>rx.algorithm.all&#45;&gt;rx.observable</title>
<path fill="none" stroke="black" d="M1183.1,-293.318C1192.09,-291.314 1201.48,-289.423 1210.34,-288 1309.3,-272.111 1599.62,-249.691 1732.51,-239.898"/>
<polygon fill="black" stroke="black" points="1732.86,-243.382 1742.57,-239.158 1732.34,-236.401 1732.86,-243.382"/>
</g>
<!-- rx.algorithm.all&#45;&gt;rx.observer -->
<g id="edge24" class="edge"><title>rx.algorithm.all&#45;&gt;rx.observer</title>
<path fill="none" stroke="black" d="M1184.8,-293.711C1193.3,-291.759 1202.07,-289.784 1210.34,-288 1290.51,-270.696 1311.29,-269.887 1391.34,-252 1456.14,-237.519 1470.8,-226.632 1536.34,-216 1738.33,-183.235 1793.38,-212.929 1995.34,-180 2001.57,-178.985 2008.06,-177.684 2014.46,-176.254"/>
<polygon fill="black" stroke="black" points="2015.44,-179.618 2024.38,-173.924 2013.84,-172.803 2015.44,-179.618"/>
</g>
<!-- rx.algorithm.all&#45;&gt;rx.util -->
<g id="edge25" class="edge"><title>rx.algorithm.all&#45;&gt;rx.util</title>
<path fill="none" stroke="black" d="M1117.06,-288.63C1106.95,-279.138 1095.75,-266.258 1090.34,-252 1073.31,-207.123 1059.72,-180.963 1090.34,-144 1120.14,-108.034 1258.29,-96.2906 1328.76,-92.6038"/>
<polygon fill="black" stroke="black" points="1329.23,-96.0846 1339.05,-92.0975 1328.89,-89.0931 1329.23,-96.0846"/>
</g>
<!-- std.functional -->
<g id="node37" class="node"><title>std.functional</title>
<ellipse fill="none" stroke="black" cx="680.34" cy="-162" rx="59.5901" ry="18"/>
<text text-anchor="middle" x="680.34" y="-158.3" font-family="Times New Roman,serif" font-size="14.00">std.functional</text>
</g>
<!-- rx.algorithm.all&#45;&gt;std.functional -->
<g id="edge26" class="edge"><title>rx.algorithm.all&#45;&gt;std.functional</title>
<path fill="none" stroke="black" d="M1089.85,-293.847C1081.36,-291.88 1072.59,-289.866 1064.34,-288 991.555,-271.537 971.626,-274.071 900.34,-252 835.989,-232.076 764.096,-201.298 720.545,-181.657"/>
<polygon fill="black" stroke="black" points="721.983,-178.466 711.43,-177.523 719.091,-184.841 721.983,-178.466"/>
</g>
<!-- std.range -->
<g id="node40" class="node"><title>std.range</title>
<ellipse fill="none" stroke="black" cx="1613.34" cy="-90" rx="44.393" ry="18"/>
<text text-anchor="middle" x="1613.34" y="-86.3" font-family="Times New Roman,serif" font-size="14.00">std.range</text>
</g>
<!-- rx.algorithm.all&#45;&gt;std.range -->
<g id="edge27" class="edge"><title>rx.algorithm.all&#45;&gt;std.range</title>
<path fill="none" stroke="black" d="M1166.83,-289.999C1225.11,-260.559 1359.48,-193.755 1475.34,-144 1507.26,-130.291 1544.02,-116.26 1571.56,-106.081"/>
<polygon fill="black" stroke="black" points="1573.09,-109.249 1581.27,-102.513 1570.67,-102.679 1573.09,-109.249"/>
</g>
<!-- rx.algorithm.any&#45;&gt;rx.disposable -->
<g id="edge28" class="edge"><title>rx.algorithm.any&#45;&gt;rx.disposable</title>
<path fill="none" stroke="black" d="M1328.15,-290.855C1382.68,-271.459 1485.38,-236.663 1575.34,-216 1673.66,-193.415 1789.76,-178.043 1860.7,-169.893"/>
<polygon fill="black" stroke="black" points="1861.29,-173.349 1870.83,-168.744 1860.5,-166.394 1861.29,-173.349"/>
</g>
<!-- rx.algorithm.any&#45;&gt;rx.observable -->
<g id="edge29" class="edge"><title>rx.algorithm.any&#45;&gt;rx.observable</title>
<path fill="none" stroke="black" d="M1339.14,-293.426C1348.48,-291.46 1358.19,-289.554 1367.34,-288 1402.77,-281.983 1623.73,-255.749 1735.6,-242.588"/>
<polygon fill="black" stroke="black" points="1736.23,-246.038 1745.75,-241.394 1735.41,-239.086 1736.23,-246.038"/>
</g>
<!-- rx.algorithm.any&#45;&gt;rx.observer -->
<g id="edge30" class="edge"><title>rx.algorithm.any&#45;&gt;rx.observer</title>
<path fill="none" stroke="black" d="M1340.52,-293.809C1349.46,-291.865 1358.67,-289.868 1367.34,-288 1442.41,-271.823 1462.08,-271.585 1536.34,-252 1587.72,-238.449 1598.32,-226.812 1650.34,-216 1801.28,-184.628 1843.52,-206.762 1995.34,-180 2001.47,-178.919 2007.87,-177.59 2014.19,-176.156"/>
<polygon fill="black" stroke="black" points="2015.06,-179.546 2023.99,-173.837 2013.45,-172.734 2015.06,-179.546"/>
</g>
<!-- rx.algorithm.any&#45;&gt;rx.util -->
<g id="edge31" class="edge"><title>rx.algorithm.any&#45;&gt;rx.util</title>
<path fill="none" stroke="black" d="M1250.55,-291.043C1233.14,-282.606 1214.3,-269.943 1204.34,-252 1181.05,-210.029 1176.03,-182.761 1204.34,-144 1232.68,-105.204 1289.74,-94.1459 1328.98,-91.3414"/>
<polygon fill="black" stroke="black" points="1329.26,-94.8316 1339.04,-90.7734 1328.86,-87.8428 1329.26,-94.8316"/>
</g>
<!-- rx.algorithm.any&#45;&gt;std.functional -->
<g id="edge32" class="edge"><title>rx.algorithm.any&#45;&gt;std.functional</title>
<path fill="none" stroke="black" d="M1237.97,-293.743C1189.94,-283.161 1116.21,-266.782 1052.34,-252 939.42,-225.867 807.553,-193.997 735.067,-176.361"/>
<polygon fill="black" stroke="black" points="735.785,-172.934 725.241,-173.969 734.129,-179.735 735.785,-172.934"/>
</g>
<!-- rx.algorithm.any&#45;&gt;std.range -->
<g id="edge33" class="edge"><title>rx.algorithm.any&#45;&gt;std.range</title>
<path fill="none" stroke="black" d="M1313.43,-289.09C1371.28,-250.882 1518,-153.974 1582.32,-111.489"/>
<polygon fill="black" stroke="black" points="1584.42,-114.299 1590.83,-105.867 1580.56,-108.458 1584.42,-114.299"/>
</g>
<!-- rx.algorithm.buffer&#45;&gt;rx.disposable -->
<g id="edge34" class="edge"><title>rx.algorithm.buffer&#45;&gt;rx.disposable</title>
<path fill="none" stroke="black" d="M1911.39,-287.871C1914.29,-263.67 1919.61,-219.211 1923.06,-190.393"/>
<polygon fill="black" stroke="black" points="1926.57,-190.534 1924.28,-180.189 1919.62,-189.702 1926.57,-190.534"/>
</g>
<!-- rx.algorithm.buffer&#45;&gt;rx.observable -->
<g id="edge35" class="edge"><title>rx.algorithm.buffer&#45;&gt;rx.observable</title>
<path fill="none" stroke="black" d="M1884.06,-288.765C1868.99,-279.087 1849.69,-266.691 1833.42,-256.241"/>
<polygon fill="black" stroke="black" points="1835.04,-253.124 1824.73,-250.666 1831.26,-259.015 1835.04,-253.124"/>
</g>
<!-- rx.algorithm.buffer&#45;&gt;rx.observer -->
<g id="edge36" class="edge"><title>rx.algorithm.buffer&#45;&gt;rx.observer</title>
<path fill="none" stroke="black" d="M1932.41,-288.656C1946.16,-278.582 1963.73,-265.12 1978.34,-252 2001.33,-231.358 2025.47,-205.639 2042.12,-187.165"/>
<polygon fill="black" stroke="black" points="2044.94,-189.266 2049,-179.479 2039.72,-184.6 2044.94,-189.266"/>
</g>
<!-- rx.algorithm.buffer&#45;&gt;std.range -->
<g id="edge37" class="edge"><title>rx.algorithm.buffer&#45;&gt;std.range</title>
<path fill="none" stroke="black" d="M1905.43,-287.927C1900.18,-268.383 1889.14,-236.442 1869.34,-216 1837.43,-183.054 1717.37,-132.231 1653.65,-106.731"/>
<polygon fill="black" stroke="black" points="1654.89,-103.456 1644.3,-103.01 1652.3,-109.96 1654.89,-103.456"/>
</g>
<!-- rx.algorithm.combineLatest&#45;&gt;rx.disposable -->
<g id="edge38" class="edge"><title>rx.algorithm.combineLatest&#45;&gt;rx.disposable</title>
<path fill="none" stroke="black" d="M2306.54,-289.617C2277.55,-279.577 2239.44,-265.811 2206.34,-252 2171.85,-237.607 2165.47,-228.756 2130.34,-216 2103.25,-206.165 2032.28,-188.371 1981.67,-176.133"/>
<polygon fill="black" stroke="black" points="1982.38,-172.704 1971.84,-173.764 1980.74,-179.51 1982.38,-172.704"/>
</g>
<!-- rx.algorithm.combineLatest&#45;&gt;rx.observable -->
<g id="edge39" class="edge"><title>rx.algorithm.combineLatest&#45;&gt;rx.observable</title>
<path fill="none" stroke="black" d="M2268.5,-294.369C2157.55,-280.299 1964.36,-255.799 1864.38,-243.121"/>
<polygon fill="black" stroke="black" points="1864.77,-239.643 1854.41,-241.857 1863.89,-246.587 1864.77,-239.643"/>
</g>
<!-- rx.algorithm.combineLatest&#45;&gt;rx.observer -->
<g id="edge40" class="edge"><title>rx.algorithm.combineLatest&#45;&gt;rx.observer</title>
<path fill="none" stroke="black" d="M2319.43,-288.746C2300.07,-278.81 2275.35,-265.457 2254.34,-252 2231.88,-237.618 2229.75,-228.766 2206.34,-216 2176.4,-199.672 2140.38,-186.357 2111.99,-177.157"/>
<polygon fill="black" stroke="black" points="2112.87,-173.766 2102.28,-174.076 2110.75,-180.438 2112.87,-173.766"/>
</g>
<!-- rx.algorithm.combineLatest&#45;&gt;rx.util -->
<g id="edge41" class="edge"><title>rx.algorithm.combineLatest&#45;&gt;rx.util</title>
<path fill="none" stroke="black" d="M2331.5,-288.121C2318.72,-277.743 2302.04,-264.149 2287.34,-252 2220.35,-196.647 2207.31,-169.854 2124.34,-144 2004.44,-106.636 1685.56,-117.597 1560.34,-108 1508.88,-104.056 1449.66,-98.6136 1411.2,-94.9589"/>
<polygon fill="black" stroke="black" points="1411.21,-91.4444 1400.92,-93.9783 1410.55,-98.4128 1411.21,-91.4444"/>
</g>
<!-- std.meta -->
<g id="node38" class="node"><title>std.meta</title>
<ellipse fill="none" stroke="black" cx="2738.34" cy="-234" rx="41.6928" ry="18"/>
<text text-anchor="middle" x="2738.34" y="-230.3" font-family="Times New Roman,serif" font-size="14.00">std.meta</text>
</g>
<!-- rx.algorithm.combineLatest&#45;&gt;std.meta -->
<g id="edge42" class="edge"><title>rx.algorithm.combineLatest&#45;&gt;std.meta</title>
<path fill="none" stroke="black" d="M2423.14,-292.161C2500.98,-278.045 2623.87,-255.759 2690.89,-243.605"/>
<polygon fill="black" stroke="black" points="2691.54,-247.044 2700.76,-241.815 2690.29,-240.156 2691.54,-247.044"/>
</g>
<!-- rx.algorithm.combineLatest&#45;&gt;std.range -->
<g id="edge43" class="edge"><title>rx.algorithm.combineLatest&#45;&gt;std.range</title>
<path fill="none" stroke="black" d="M2385.09,-288.657C2398.96,-279.859 2413.66,-267.581 2421.34,-252 2428.41,-237.648 2429.65,-229.67 2421.34,-216 2385.19,-156.557 2349.39,-162.562 2282.34,-144 2034.28,-75.33 1959.77,-139.692 1704.34,-108 1690.49,-106.281 1675.56,-103.772 1661.88,-101.206"/>
<polygon fill="black" stroke="black" points="1662.18,-97.6999 1651.7,-99.245 1660.86,-104.573 1662.18,-97.6999"/>
</g>
<!-- std.typecons -->
<g id="node41" class="node"><title>std.typecons</title>
<ellipse fill="none" stroke="black" cx="2354.34" cy="-234" rx="57.6901" ry="18"/>
<text text-anchor="middle" x="2354.34" y="-230.3" font-family="Times New Roman,serif" font-size="14.00">std.typecons</text>
</g>
<!-- rx.algorithm.combineLatest&#45;&gt;std.typecons -->
<g id="edge44" class="edge"><title>rx.algorithm.combineLatest&#45;&gt;std.typecons</title>
<path fill="none" stroke="black" d="M2352.83,-287.697C2353.06,-279.983 2353.32,-270.712 2353.57,-262.112"/>
<polygon fill="black" stroke="black" points="2357.06,-262.2 2353.85,-252.104 2350.07,-262 2357.06,-262.2"/>
</g>
<!-- rx.algorithm.debounce&#45;&gt;core.thread -->
<g id="edge45" class="edge"><title>rx.algorithm.debounce&#45;&gt;core.thread</title>
<path fill="none" stroke="black" d="M3501.28,-359.871C3518.62,-335.003 3550.87,-288.746 3570.88,-260.048"/>
<polygon fill="black" stroke="black" points="3573.82,-261.953 3576.66,-251.748 3568.07,-257.95 3573.82,-261.953"/>
</g>
<!-- rx.algorithm.debounce&#45;&gt;core.time -->
<g id="edge46" class="edge"><title>rx.algorithm.debounce&#45;&gt;core.time</title>
<path fill="none" stroke="black" d="M3514.19,-360.433C3553.33,-334.342 3629.23,-283.74 3671.69,-255.433"/>
<polygon fill="black" stroke="black" points="3673.84,-258.207 3680.22,-249.748 3669.96,-252.383 3673.84,-258.207"/>
</g>
<!-- rx.algorithm.debounce&#45;&gt;rx.disposable -->
<g id="edge47" class="edge"><title>rx.algorithm.debounce&#45;&gt;rx.disposable</title>
<path fill="none" stroke="black" d="M3399.31,-373.728C3116.26,-363.373 2261.46,-331.56 2233.34,-324 2218.89,-320.116 2041.55,-225.065 1963.17,-182.867"/>
<polygon fill="black" stroke="black" points="1964.59,-179.654 1954.12,-177.993 1961.27,-185.817 1964.59,-179.654"/>
</g>
<!-- rx.algorithm.debounce&#45;&gt;rx.observable -->
<g id="edge48" class="edge"><title>rx.algorithm.debounce&#45;&gt;rx.observable</title>
<path fill="none" stroke="black" d="M3399.51,-373.727C3302.16,-370.209 3142.23,-364.515 3004.34,-360 2938.62,-357.848 1872.27,-365.587 1821.34,-324 1803.52,-309.446 1799.14,-282.84 1798.7,-262.497"/>
<polygon fill="black" stroke="black" points="1802.21,-262.271 1798.79,-252.241 1795.21,-262.21 1802.21,-262.271"/>
</g>
<!-- rx.algorithm.debounce&#45;&gt;rx.observer -->
<g id="edge49" class="edge"><title>rx.algorithm.debounce&#45;&gt;rx.observer</title>
<path fill="none" stroke="black" d="M3489.22,-359.782C3487.93,-325.78 3479.72,-250.341 3433.34,-216 3380.19,-176.644 2386.48,-165.675 2125.62,-163.468"/>
<polygon fill="black" stroke="black" points="2125.59,-159.968 2115.56,-163.384 2125.53,-166.967 2125.59,-159.968"/>
</g>
<!-- rx.algorithm.debounce&#45;&gt;rx.scheduler -->
<g id="edge50" class="edge"><title>rx.algorithm.debounce&#45;&gt;rx.scheduler</title>
<path fill="none" stroke="black" d="M3547.29,-363.916C3604.04,-351.101 3689.84,-331.727 3745.23,-319.218"/>
<polygon fill="black" stroke="black" points="3746.22,-322.582 3755.21,-316.965 3744.68,-315.754 3746.22,-322.582"/>
</g>
<!-- rx.algorithm.debounce&#45;&gt;std.range -->
<g id="edge51" class="edge"><title>rx.algorithm.debounce&#45;&gt;std.range</title>
<path fill="none" stroke="black" d="M3492.93,-359.877C3498.97,-325.7 3506.52,-249.441 3462.34,-216 3283.68,-80.7617 3186.59,-163.234 2963.34,-144 2405.62,-95.9497 2260.95,-167.58 1704.34,-108 1690.2,-106.486 1674.95,-103.986 1661.06,-101.364"/>
<polygon fill="black" stroke="black" points="1661.71,-97.9239 1651.22,-99.4451 1660.37,-104.794 1661.71,-97.9239"/>
</g>
<!-- rx.algorithm.filter&#45;&gt;rx.disposable -->
<g id="edge52" class="edge"><title>rx.algorithm.filter&#45;&gt;rx.disposable</title>
<path fill="none" stroke="black" d="M708.497,-290.77C768.363,-270.253 884.955,-232.968 987.34,-216 1154.81,-188.247 1669.68,-170.613 1857.15,-164.969"/>
<polygon fill="black" stroke="black" points="1857.27,-168.467 1867.16,-164.67 1857.06,-161.47 1857.27,-168.467"/>
</g>
<!-- rx.algorithm.filter&#45;&gt;rx.observable -->
<g id="edge53" class="edge"><title>rx.algorithm.filter&#45;&gt;rx.observable</title>
<path fill="none" stroke="black" d="M719.752,-293.08C729.846,-291.098 740.39,-289.275 750.34,-288 1117.38,-240.975 1561.59,-235.192 1730.55,-234.821"/>
<polygon fill="black" stroke="black" points="1730.57,-238.321 1740.56,-234.805 1730.55,-231.321 1730.57,-238.321"/>
</g>
<!-- rx.algorithm.filter&#45;&gt;rx.observer -->
<g id="edge54" class="edge"><title>rx.algorithm.filter&#45;&gt;rx.observer</title>
<path fill="none" stroke="black" d="M713.592,-291.814C785.913,-271.399 932.342,-232.749 1059.34,-216 1472.07,-161.568 1583.21,-238.798 1995.34,-180 2001.67,-179.098 2008.26,-177.85 2014.74,-176.438"/>
<polygon fill="black" stroke="black" points="2015.83,-179.778 2024.78,-174.107 2014.25,-172.959 2015.83,-179.778"/>
</g>
<!-- rx.algorithm.filter&#45;&gt;rx.util -->
<g id="edge55" class="edge"><title>rx.algorithm.filter&#45;&gt;rx.util</title>
<path fill="none" stroke="black" d="M615.967,-293.471C606.149,-291.5 595.952,-289.582 586.34,-288 453.598,-266.151 218.653,-328.552 292.34,-216 336.166,-149.059 379.523,-162.608 457.34,-144 626.406,-103.572 1174.22,-93.528 1329.17,-91.4683"/>
<polygon fill="black" stroke="black" points="1329.26,-94.9675 1339.22,-91.3387 1329.17,-87.9681 1329.26,-94.9675"/>
</g>
<!-- rx.algorithm.filter&#45;&gt;std.functional -->
<g id="edge56" class="edge"><title>rx.algorithm.filter&#45;&gt;std.functional</title>
<path fill="none" stroke="black" d="M668.577,-287.9C668.95,-269.954 669.905,-240.938 672.34,-216 673.167,-207.534 674.424,-198.357 675.697,-190.056"/>
<polygon fill="black" stroke="black" points="679.162,-190.557 677.289,-180.129 672.25,-189.449 679.162,-190.557"/>
</g>
<!-- rx.algorithm.filter&#45;&gt;std.range -->
<g id="edge57" class="edge"><title>rx.algorithm.filter&#45;&gt;std.range</title>
<path fill="none" stroke="black" d="M636.684,-289.728C621.368,-280.78 604.028,-268.061 593.34,-252 566.459,-211.602 543.778,-179.044 577.34,-144 609.379,-110.546 1364.11,-110.933 1410.34,-108 1461.43,-104.758 1519.63,-99.7483 1560.58,-96.0056"/>
<polygon fill="black" stroke="black" points="1560.97,-99.4849 1570.61,-95.0832 1560.33,-92.5143 1560.97,-99.4849"/>
</g>
<!-- rx.algorithm.fold&#45;&gt;rx.disposable -->
<g id="edge58" class="edge"><title>rx.algorithm.fold&#45;&gt;rx.disposable</title>
<path fill="none" stroke="black" d="M2059.72,-288.433C2032.9,-263.209 1981.72,-215.077 1951.15,-186.327"/>
<polygon fill="black" stroke="black" points="1953.53,-183.763 1943.85,-179.462 1948.73,-188.862 1953.53,-183.763"/>
</g>
<!-- rx.algorithm.fold&#45;&gt;rx.observable -->
<g id="edge59" class="edge"><title>rx.algorithm.fold&#45;&gt;rx.observable</title>
<path fill="none" stroke="black" d="M2028.77,-292.727C1980.04,-280.412 1905.14,-261.485 1854.52,-248.691"/>
<polygon fill="black" stroke="black" points="1855.28,-245.274 1844.73,-246.217 1853.57,-252.061 1855.28,-245.274"/>
</g>
<!-- rx.algorithm.fold&#45;&gt;rx.observer -->
<g id="edge60" class="edge"><title>rx.algorithm.fold&#45;&gt;rx.observer</title>
<path fill="none" stroke="black" d="M2075.65,-287.871C2073.27,-263.67 2068.88,-219.211 2066.04,-190.393"/>
<polygon fill="black" stroke="black" points="2069.5,-189.798 2065.04,-180.189 2062.53,-190.484 2069.5,-189.798"/>
</g>
<!-- rx.algorithm.groupby&#45;&gt;rx.disposable -->
<g id="edge61" class="edge"><title>rx.algorithm.groupby&#45;&gt;rx.disposable</title>
<path fill="none" stroke="black" d="M365.328,-359.838C383.955,-335.4 416.843,-292.966 424.34,-288 521.098,-223.917 560.784,-234.587 675.34,-216 905.424,-178.669 1627.92,-166.69 1856.37,-163.785"/>
<polygon fill="black" stroke="black" points="1856.59,-167.283 1866.55,-163.657 1856.51,-160.283 1856.59,-167.283"/>
</g>
<!-- rx.algorithm.groupby&#45;&gt;rx.observable -->
<g id="edge62" class="edge"><title>rx.algorithm.groupby&#45;&gt;rx.observable</title>
<path fill="none" stroke="black" d="M439.44,-377.161C720.402,-377.187 1591.26,-373.251 1707.34,-324 1715.87,-320.381 1752.38,-284.099 1777.04,-258.994"/>
<polygon fill="black" stroke="black" points="1779.77,-261.204 1784.26,-251.609 1774.77,-256.308 1779.77,-261.204"/>
</g>
<!-- rx.algorithm.groupby&#45;&gt;rx.observer -->
<g id="edge63" class="edge"><title>rx.algorithm.groupby&#45;&gt;rx.observer</title>
<path fill="none" stroke="black" d="M438.996,-376.082C794.911,-372.108 2127.07,-355.171 2157.34,-324 2198.37,-281.748 2133.58,-218.219 2092.67,-185.007"/>
<polygon fill="black" stroke="black" points="2094.61,-182.073 2084.6,-178.591 2090.25,-187.553 2094.61,-182.073"/>
</g>
<!-- rx.algorithm.groupby&#45;&gt;rx.subject -->
<g id="edge64" class="edge"><title>rx.algorithm.groupby&#45;&gt;rx.subject</title>
<path fill="none" stroke="black" d="M297.233,-363.886C253.937,-353.454 192.167,-338.287 138.34,-324 133.743,-322.78 128.956,-321.477 124.18,-320.157"/>
<polygon fill="black" stroke="black" points="125.03,-316.761 114.457,-317.443 123.148,-323.503 125.03,-316.761"/>
</g>
<!-- rx.algorithm.groupby&#45;&gt;rx.util -->
<g id="edge65" class="edge"><title>rx.algorithm.groupby&#45;&gt;rx.util</title>
<path fill="none" stroke="black" d="M266.134,-375.327C179.319,-371.602 53.9623,-359.95 23.3404,-324 -32.7478,-258.153 22.7949,-187.871 97.3404,-144 151.59,-112.074 1116.07,-95.0167 1328.98,-91.6311"/>
<polygon fill="black" stroke="black" points="1329.17,-95.1287 1339.11,-91.4713 1329.06,-88.1295 1329.17,-95.1287"/>
</g>
<!-- rx.algorithm.groupby&#45;&gt;std.functional -->
<g id="edge66" class="edge"><title>rx.algorithm.groupby&#45;&gt;std.functional</title>
<path fill="none" stroke="black" d="M355.876,-359.768C360.734,-340.074 371.252,-307.992 391.34,-288 455.52,-224.126 557.635,-190.578 621.728,-174.853"/>
<polygon fill="black" stroke="black" points="622.761,-178.205 631.676,-172.48 621.137,-171.396 622.761,-178.205"/>
</g>
<!-- rx.algorithm.groupby&#45;&gt;std.range -->
<g id="edge67" class="edge"><title>rx.algorithm.groupby&#45;&gt;std.range</title>
<path fill="none" stroke="black" d="M351.782,-359.677C351.864,-341.034 354.013,-310.968 365.34,-288 407.657,-202.197 435.726,-177.496 525.34,-144 617.526,-109.543 1312.12,-114.108 1410.34,-108 1461.43,-104.823 1519.64,-99.8046 1560.58,-96.0423"/>
<polygon fill="black" stroke="black" points="1560.97,-99.5213 1570.61,-95.1147 1560.33,-92.5511 1560.97,-99.5213"/>
</g>
<!-- rx.algorithm.map&#45;&gt;rx.disposable -->
<g id="edge68" class="edge"><title>rx.algorithm.map&#45;&gt;rx.disposable</title>
<path fill="none" stroke="black" d="M545.632,-291.021C606.902,-270.464 727.561,-232.713 833.34,-216 1031.72,-184.656 1647.96,-168.934 1856.53,-164.41"/>
<polygon fill="black" stroke="black" points="1856.81,-167.905 1866.74,-164.19 1856.66,-160.906 1856.81,-167.905"/>
</g>
<!-- rx.algorithm.map&#45;&gt;rx.observable -->
<g id="edge69" class="edge"><title>rx.algorithm.map&#45;&gt;rx.observable</title>
<path fill="none" stroke="black" d="M556.113,-293.022C566.085,-291.044 576.504,-289.239 586.34,-288 810.153,-259.82 1507.22,-241.736 1730.67,-236.545"/>
<polygon fill="black" stroke="black" points="1731.03,-240.038 1740.94,-236.308 1730.87,-233.04 1731.03,-240.038"/>
</g>
<!-- rx.algorithm.map&#45;&gt;rx.observer -->
<g id="edge70" class="edge"><title>rx.algorithm.map&#45;&gt;rx.observer</title>
<path fill="none" stroke="black" d="M548.289,-291.524C616.254,-270.898 753.128,-232.19 872.34,-216 1367.17,-148.8 1500.76,-248.948 1995.34,-180 2001.67,-179.118 2008.26,-177.883 2014.74,-176.476"/>
<polygon fill="black" stroke="black" points="2015.83,-179.817 2024.78,-174.151 2014.25,-172.997 2015.83,-179.817"/>
</g>
<!-- rx.algorithm.map&#45;&gt;rx.util -->
<g id="edge71" class="edge"><title>rx.algorithm.map&#45;&gt;rx.util</title>
<path fill="none" stroke="black" d="M439.179,-298.816C378.647,-291.627 295.529,-277.37 275.34,-252 244.341,-213.045 317.716,-146.106 321.34,-144 409.547,-92.7466 1145.11,-90.6001 1328.87,-90.8717"/>
<polygon fill="black" stroke="black" points="1328.93,-94.3717 1338.94,-90.8899 1328.94,-87.3717 1328.93,-94.3717"/>
</g>
<!-- rx.algorithm.map&#45;&gt;std.functional -->
<g id="edge72" class="edge"><title>rx.algorithm.map&#45;&gt;std.functional</title>
<path fill="none" stroke="black" d="M525.415,-288.711C556.667,-263.352 617.034,-214.368 652.483,-185.605"/>
<polygon fill="black" stroke="black" points="654.94,-188.118 660.5,-179.099 650.529,-182.682 654.94,-188.118"/>
</g>
<!-- rx.algorithm.map&#45;&gt;std.range -->
<g id="edge73" class="edge"><title>rx.algorithm.map&#45;&gt;std.range</title>
<path fill="none" stroke="black" d="M505.026,-287.839C505.444,-253.94 511.753,-178.677 557.34,-144 595.091,-115.285 1363,-110.98 1410.34,-108 1461.43,-104.784 1519.64,-99.7708 1560.58,-96.0202"/>
<polygon fill="black" stroke="black" points="1560.97,-99.4994 1570.61,-95.0957 1560.33,-92.529 1560.97,-99.4994"/>
</g>
<!-- rx.algorithm.merge&#45;&gt;rx.disposable -->
<g id="edge74" class="edge"><title>rx.algorithm.merge&#45;&gt;rx.disposable</title>
<path fill="none" stroke="black" d="M1488.71,-289.615C1531.76,-270.246 1609.34,-236.976 1678.34,-216 1740.8,-197.01 1814.11,-182.237 1864.75,-173.167"/>
<polygon fill="black" stroke="black" points="1865.64,-176.564 1874.88,-171.375 1864.42,-169.671 1865.64,-176.564"/>
</g>
<!-- rx.algorithm.merge&#45;&gt;rx.observable -->
<g id="edge75" class="edge"><title>rx.algorithm.merge&#45;&gt;rx.observable</title>
<path fill="none" stroke="black" d="M1513.4,-293.75C1586.72,-279.527 1705.83,-256.361 1726.34,-252 1732.21,-250.753 1738.32,-249.413 1744.42,-248.051"/>
<polygon fill="black" stroke="black" points="1745.62,-251.368 1754.6,-245.753 1744.08,-244.54 1745.62,-251.368"/>
</g>
<!-- rx.algorithm.merge&#45;&gt;rx.observer -->
<g id="edge76" class="edge"><title>rx.algorithm.merge&#45;&gt;rx.observer</title>
<path fill="none" stroke="black" d="M1508.99,-292.764C1548.54,-283.179 1603.41,-268.698 1650.34,-252 1687.46,-238.795 1693.45,-226.769 1731.34,-216 1845.25,-183.63 1879.06,-202.394 1995.34,-180 2001.23,-178.865 2007.38,-177.536 2013.47,-176.13"/>
<polygon fill="black" stroke="black" points="2014.68,-179.44 2023.59,-173.712 2013.05,-172.631 2014.68,-179.44"/>
</g>
<!-- rx.algorithm.merge&#45;&gt;rx.util -->
<g id="edge77" class="edge"><title>rx.algorithm.merge&#45;&gt;rx.util</title>
<path fill="none" stroke="black" d="M1432.62,-288.593C1420.27,-278.905 1405.32,-265.85 1394.34,-252 1371.86,-223.651 1365.04,-215.122 1356.34,-180 1351.22,-159.313 1355.51,-135.434 1360.65,-117.621"/>
<polygon fill="black" stroke="black" points="1364.05,-118.494 1363.71,-107.905 1357.37,-116.392 1364.05,-118.494"/>
</g>
<!-- rx.algorithm.merge&#45;&gt;std.range -->
<g id="edge78" class="edge"><title>rx.algorithm.merge&#45;&gt;std.range</title>
<path fill="none" stroke="black" d="M1467.74,-288.208C1495.5,-250.612 1562.75,-159.526 1595.21,-115.556"/>
<polygon fill="black" stroke="black" points="1598.09,-117.544 1601.22,-107.42 1592.46,-113.386 1598.09,-117.544"/>
</g>
<!-- rx.algorithm.scan&#45;&gt;rx.disposable -->
<g id="edge79" class="edge"><title>rx.algorithm.scan&#45;&gt;rx.disposable</title>
<path fill="none" stroke="black" d="M1640.6,-288.379C1659.87,-268.357 1694.93,-235.044 1731.34,-216 1772.95,-194.237 1824.36,-180.742 1863.94,-172.82"/>
<polygon fill="black" stroke="black" points="1864.84,-176.211 1873.99,-170.876 1863.51,-169.338 1864.84,-176.211"/>
</g>
<!-- rx.algorithm.scan&#45;&gt;rx.observable -->
<g id="edge80" class="edge"><title>rx.algorithm.scan&#45;&gt;rx.observable</title>
<path fill="none" stroke="black" d="M1662.03,-290.326C1689.49,-279.34 1727.18,-264.266 1756.27,-252.626"/>
<polygon fill="black" stroke="black" points="1757.8,-255.785 1765.79,-248.822 1755.2,-249.286 1757.8,-255.785"/>
</g>
<!-- rx.algorithm.scan&#45;&gt;rx.observer -->
<g id="edge81" class="edge"><title>rx.algorithm.scan&#45;&gt;rx.observer</title>
<path fill="none" stroke="black" d="M1685.73,-295.632C1735.71,-286.992 1808.17,-272.406 1869.34,-252 1926.37,-232.973 1989.04,-202.314 2027.29,-182.41"/>
<polygon fill="black" stroke="black" points="2029.24,-185.34 2036.47,-177.595 2025.99,-179.141 2029.24,-185.34"/>
</g>
<!-- rx.algorithm.scan&#45;&gt;rx.util -->
<g id="edge82" class="edge"><title>rx.algorithm.scan&#45;&gt;rx.util</title>
<path fill="none" stroke="black" d="M1605.75,-288.563C1559.91,-250.088 1445.68,-154.228 1395.11,-111.785"/>
<polygon fill="black" stroke="black" points="1397.19,-108.96 1387.28,-105.213 1392.69,-114.322 1397.19,-108.96"/>
</g>
<!-- rx.algorithm.scan&#45;&gt;std.functional -->
<g id="edge83" class="edge"><title>rx.algorithm.scan&#45;&gt;std.functional</title>
<path fill="none" stroke="black" d="M1572.06,-293.466C1562.52,-291.539 1552.65,-289.637 1543.34,-288 1245.94,-235.683 888.072,-189.007 744.508,-170.942"/>
<polygon fill="black" stroke="black" points="744.904,-167.465 734.546,-169.691 744.032,-174.41 744.904,-167.465"/>
</g>
<!-- rx.algorithm.scan&#45;&gt;std.range -->
<g id="edge84" class="edge"><title>rx.algorithm.scan&#45;&gt;std.range</title>
<path fill="none" stroke="black" d="M1624.38,-287.849C1622.3,-250.832 1617.39,-163.181 1614.88,-118.386"/>
<polygon fill="black" stroke="black" points="1618.36,-118.021 1614.31,-108.232 1611.37,-118.413 1618.36,-118.021"/>
</g>
<!-- rx.algorithm.scan&#45;&gt;std.typecons -->
<g id="edge85" class="edge"><title>rx.algorithm.scan&#45;&gt;std.typecons</title>
<path fill="none" stroke="black" d="M1692.29,-298.571C1831.88,-285.168 2152.42,-254.389 2289.85,-241.192"/>
<polygon fill="black" stroke="black" points="2290.2,-244.675 2299.82,-240.235 2289.53,-237.707 2290.2,-244.675"/>
</g>
<!-- rx.algorithm.tee&#45;&gt;rx.disposable -->
<g id="edge86" class="edge"><title>rx.algorithm.tee&#45;&gt;rx.disposable</title>
<path fill="none" stroke="black" d="M864.996,-291.062C923.201,-270.737 1037.21,-233.488 1137.34,-216 1399.9,-170.146 1718,-163.359 1856.39,-162.756"/>
<polygon fill="black" stroke="black" points="1856.45,-166.256 1866.44,-162.722 1856.43,-159.256 1856.45,-166.256"/>
</g>
<!-- rx.algorithm.tee&#45;&gt;rx.observable -->
<g id="edge87" class="edge"><title>rx.algorithm.tee&#45;&gt;rx.observable</title>
<path fill="none" stroke="black" d="M873.558,-293.202C883.039,-291.183 892.968,-289.316 902.34,-288 1208.86,-244.958 1579.02,-236.795 1730.55,-235.303"/>
<polygon fill="black" stroke="black" points="1730.68,-238.802 1740.64,-235.21 1730.61,-231.802 1730.68,-238.802"/>
</g>
<!-- rx.algorithm.tee&#45;&gt;rx.observer -->
<g id="edge88" class="edge"><title>rx.algorithm.tee&#45;&gt;rx.observer</title>
<path fill="none" stroke="black" d="M873.268,-293.128C953.856,-273.298 1124.02,-233.853 1270.34,-216 1590.58,-176.926 1676.21,-227.349 1995.34,-180 2001.58,-179.074 2008.08,-177.826 2014.48,-176.424"/>
<polygon fill="black" stroke="black" points="2015.46,-179.791 2024.41,-174.119 2013.88,-172.972 2015.46,-179.791"/>
</g>
<!-- rx.algorithm.tee&#45;&gt;rx.util -->
<g id="edge89" class="edge"><title>rx.algorithm.tee&#45;&gt;rx.util</title>
<path fill="none" stroke="black" d="M777.815,-293.489C768.713,-291.517 759.258,-289.593 750.34,-288 691.187,-277.432 521.901,-297.23 482.34,-252 450.739,-215.87 449.426,-178.938 482.34,-144 511.726,-112.809 1157.8,-95.8607 1329.01,-91.9068"/>
<polygon fill="black" stroke="black" points="1329.22,-95.4032 1339.13,-91.6755 1329.06,-88.405 1329.22,-95.4032"/>
</g>
<!-- rx.algorithm.tee&#45;&gt;std.functional -->
<g id="edge90" class="edge"><title>rx.algorithm.tee&#45;&gt;std.functional</title>
<path fill="none" stroke="black" d="M779.133,-293.129C755.621,-285.04 728.428,-272.063 710.34,-252 694.864,-234.833 687.328,-209.39 683.685,-190.1"/>
<polygon fill="black" stroke="black" points="687.118,-189.404 682.036,-180.107 680.211,-190.544 687.118,-189.404"/>
</g>
<!-- rx.algorithm.tee&#45;&gt;std.range -->
<g id="edge91" class="edge"><title>rx.algorithm.tee&#45;&gt;std.range</title>
<path fill="none" stroke="black" d="M776.887,-293.679C723.244,-281.057 643.696,-261.209 632.34,-252 592.932,-220.041 560.263,-180.661 595.34,-144 626.673,-111.253 1365.11,-110.892 1410.34,-108 1461.42,-104.734 1519.63,-99.7272 1560.58,-95.9918"/>
<polygon fill="black" stroke="black" points="1560.97,-99.4711 1570.61,-95.0713 1560.33,-92.5005 1560.97,-99.4711"/>
</g>
<!-- rx.algorithm.uniq&#45;&gt;rx.disposable -->
<g id="edge92" class="edge"><title>rx.algorithm.uniq&#45;&gt;rx.disposable</title>
<path fill="none" stroke="black" d="M1021.62,-290.707C1077.58,-270.464 1185.39,-233.916 1280.34,-216 1487.44,-176.92 1737.28,-166.654 1856.47,-163.959"/>
<polygon fill="black" stroke="black" points="1856.63,-167.456 1866.56,-163.742 1856.48,-160.458 1856.63,-167.456"/>
</g>
<!-- rx.algorithm.uniq&#45;&gt;rx.observable -->
<g id="edge93" class="edge"><title>rx.algorithm.uniq&#45;&gt;rx.observable</title>
<path fill="none" stroke="black" d="M1034.58,-293.157C1044.41,-291.193 1054.66,-289.357 1064.34,-288 1307.68,-253.862 1599.54,-241.127 1730.61,-236.887"/>
<polygon fill="black" stroke="black" points="1731.02,-240.376 1740.91,-236.561 1730.8,-233.379 1731.02,-240.376"/>
</g>
<!-- rx.algorithm.uniq&#45;&gt;rx.observer -->
<g id="edge94" class="edge"><title>rx.algorithm.uniq&#45;&gt;rx.observer</title>
<path fill="none" stroke="black" d="M1036.01,-293.676C1045.43,-291.727 1055.17,-289.763 1064.34,-288 1155.61,-270.452 1179.97,-273.709 1270.34,-252 1323.24,-239.292 1333.8,-225.677 1387.34,-216 1653.72,-167.852 1727.77,-221.004 1995.34,-180 2001.58,-179.044 2008.08,-177.779 2014.48,-176.367"/>
<polygon fill="black" stroke="black" points="2015.45,-179.733 2024.4,-174.054 2013.86,-172.916 2015.45,-179.733"/>
</g>
<!-- rx.algorithm.uniq&#45;&gt;rx.util -->
<g id="edge95" class="edge"><title>rx.algorithm.uniq&#45;&gt;rx.util</title>
<path fill="none" stroke="black" d="M987.205,-287.852C995.721,-254.317 1019.44,-180.175 1069.34,-144 1110.24,-114.355 1256.78,-99.4901 1329.22,-93.8179"/>
<polygon fill="black" stroke="black" points="1329.64,-97.2959 1339.34,-93.047 1329.11,-90.3161 1329.64,-97.2959"/>
</g>
<!-- rx.algorithm.uniq&#45;&gt;std.functional -->
<g id="edge96" class="edge"><title>rx.algorithm.uniq&#45;&gt;std.functional</title>
<path fill="none" stroke="black" d="M930.839,-293.624C862.771,-278.809 752.23,-254.494 748.34,-252 724.066,-236.437 705.097,-209.042 693.432,-188.743"/>
<polygon fill="black" stroke="black" points="696.493,-187.045 688.594,-179.984 690.366,-190.43 696.493,-187.045"/>
</g>
<!-- rx.algorithm.uniq&#45;&gt;std.range -->
<g id="edge97" class="edge"><title>rx.algorithm.uniq&#45;&gt;std.range</title>
<path fill="none" stroke="black" d="M930.22,-293.666C920.935,-291.738 911.362,-289.783 902.34,-288 816.311,-270.993 788.731,-287.037 708.34,-252 649.196,-226.223 566.758,-190.637 611.34,-144 642.045,-111.881 1366,-110.855 1410.34,-108 1461.42,-104.712 1519.63,-99.7076 1560.58,-95.979"/>
<polygon fill="black" stroke="black" points="1560.97,-99.4584 1570.6,-95.0604 1560.33,-92.4877 1560.97,-99.4584"/>
</g>
<!-- rx.disposable&#45;&gt;core.atomic -->
<g id="edge98" class="edge"><title>rx.disposable&#45;&gt;core.atomic</title>
<path fill="none" stroke="black" d="M1880.56,-150.383C1816.72,-135.533 1708.27,-110.126 1704.34,-108 1683.88,-96.9207 1687.42,-81.8421 1666.34,-72 1540.26,-13.1344 1492,-62.1973 1355.34,-36 1350.72,-35.1135 1345.93,-34.0668 1341.16,-32.9352"/>
<polygon fill="black" stroke="black" points="1342,-29.5367 1331.45,-30.5175 1340.31,-36.3294 1342,-29.5367"/>
</g>
<!-- rx.disposable&#45;&gt;core.internal.traits -->
<g id="edge99" class="edge"><title>rx.disposable&#45;&gt;core.internal.traits</title>
<path fill="none" stroke="black" d="M1970.31,-149.745C1980.74,-147.469 1991.88,-145.36 2002.34,-144 2253.65,-111.325 3032.84,-96.4065 3292.31,-92.2556"/>
<polygon fill="black" stroke="black" points="3292.48,-95.7533 3302.43,-92.095 3292.37,-88.7542 3292.48,-95.7533"/>
</g>
<!-- rx.disposable&#45;&gt;core.stdc.string -->
<g id="edge100" class="edge"><title>rx.disposable&#45;&gt;core.stdc.string</title>
<path fill="none" stroke="black" d="M1895.94,-146.326C1874.32,-135.885 1845.04,-121.751 1821.49,-110.383"/>
<polygon fill="black" stroke="black" points="1822.97,-107.213 1812.45,-106.017 1819.93,-113.517 1822.97,-107.213"/>
</g>
<!-- rx.disposable&#45;&gt;core.sync.mutex -->
<g id="edge101" class="edge"><title>rx.disposable&#45;&gt;core.sync.mutex</title>
<path fill="none" stroke="black" d="M1916.74,-143.995C1905.04,-124.516 1883.67,-92.6348 1858.34,-72 1840.39,-57.3775 1817.74,-45.5858 1797.66,-36.8708"/>
<polygon fill="black" stroke="black" points="1798.92,-33.6035 1788.35,-32.9626 1796.22,-40.0586 1798.92,-33.6035"/>
</g>
<!-- rx.disposable&#45;&gt;rx.util -->
<g id="edge102" class="edge"><title>rx.disposable&#45;&gt;rx.util</title>
<path fill="none" stroke="black" d="M1872.27,-154.193C1761.03,-140.187 1508.75,-108.425 1410.53,-96.0598"/>
<polygon fill="black" stroke="black" points="1410.78,-92.5638 1400.42,-94.7871 1409.91,-99.5089 1410.78,-92.5638"/>
</g>
<!-- std.concurrency -->
<g id="node35" class="node"><title>std.concurrency</title>
<ellipse fill="none" stroke="black" cx="1975.34" cy="-90" rx="69.5877" ry="18"/>
<text text-anchor="middle" x="1975.34" y="-86.3" font-family="Times New Roman,serif" font-size="14.00">std.concurrency</text>
</g>
<!-- rx.disposable&#45;&gt;std.concurrency -->
<g id="edge103" class="edge"><title>rx.disposable&#45;&gt;std.concurrency</title>
<path fill="none" stroke="black" d="M1938.2,-144.055C1944.04,-135.715 1951.2,-125.491 1957.66,-116.252"/>
<polygon fill="black" stroke="black" points="1960.72,-117.988 1963.59,-107.789 1954.99,-113.974 1960.72,-117.988"/>
</g>
<!-- rx.observable&#45;&gt;rx.disposable -->
<g id="edge104" class="edge"><title>rx.observable&#45;&gt;rx.disposable</title>
<path fill="none" stroke="black" d="M1827.68,-217.811C1846.01,-207.629 1870.34,-194.112 1890.25,-183.049"/>
<polygon fill="black" stroke="black" points="1892.01,-186.075 1899.05,-178.159 1888.61,-179.956 1892.01,-186.075"/>
</g>
<!-- rx.observable&#45;&gt;rx.observer -->
<g id="edge105" class="edge"><title>rx.observable&#45;&gt;rx.observer</title>
<path fill="none" stroke="black" d="M1843.48,-221.519C1890.1,-209.109 1964.31,-189.357 2013.43,-176.285"/>
<polygon fill="black" stroke="black" points="2014.44,-179.637 2023.2,-173.683 2012.64,-172.873 2014.44,-179.637"/>
</g>
<!-- rx.observable&#45;&gt;rx.util -->
<g id="edge106" class="edge"><title>rx.observable&#45;&gt;rx.util</title>
<path fill="none" stroke="black" d="M1761.42,-220.148C1678.75,-192.847 1486.65,-129.408 1406.49,-102.936"/>
<polygon fill="black" stroke="black" points="1407.43,-99.5608 1396.83,-99.7485 1405.23,-106.208 1407.43,-99.5608"/>
</g>
<!-- rx.observable&#45;&gt;std.functional -->
<g id="edge107" class="edge"><title>rx.observable&#45;&gt;std.functional</title>
<path fill="none" stroke="black" d="M1742.48,-229.384C1553.05,-217.544 951.926,-179.974 748.437,-167.256"/>
<polygon fill="black" stroke="black" points="748.387,-163.746 738.188,-166.615 747.95,-170.733 748.387,-163.746"/>
</g>
<!-- rx.observable&#45;&gt;std.range -->
<g id="edge108" class="edge"><title>rx.observable&#45;&gt;std.range</title>
<path fill="none" stroke="black" d="M1779.25,-216.987C1745.42,-191.295 1678.99,-140.852 1641.26,-112.202"/>
<polygon fill="black" stroke="black" points="1643.3,-109.355 1633.22,-106.095 1639.07,-114.93 1643.3,-109.355"/>
</g>
<!-- rx.observer&#45;&gt;std.range -->
<g id="edge109" class="edge"><title>rx.observer&#45;&gt;std.range</title>
<path fill="none" stroke="black" d="M2023.61,-150.204C2014.37,-147.936 2004.55,-145.715 1995.34,-144 1867.22,-120.152 1833.12,-127.975 1704.34,-108 1690.67,-105.88 1675.91,-103.264 1662.33,-100.725"/>
<polygon fill="black" stroke="black" points="1662.7,-97.2318 1652.22,-98.8083 1661.39,-104.109 1662.7,-97.2318"/>
</g>
<!-- std.typetuple -->
<g id="node42" class="node"><title>std.typetuple</title>
<ellipse fill="none" stroke="black" cx="2120.34" cy="-90" rx="57.6901" ry="18"/>
<text text-anchor="middle" x="2120.34" y="-86.3" font-family="Times New Roman,serif" font-size="14.00">std.typetuple</text>
</g>
<!-- rx.observer&#45;&gt;std.typetuple -->
<g id="edge110" class="edge"><title>rx.observer&#45;&gt;std.typetuple</title>
<path fill="none" stroke="black" d="M2076.85,-144.411C2083.77,-135.906 2092.35,-125.372 2100.05,-115.914"/>
<polygon fill="black" stroke="black" points="2102.93,-117.921 2106.53,-107.956 2097.5,-113.501 2102.93,-117.921"/>
</g>
<!-- rx.range.drop -->
<g id="node27" class="node"><title>rx.range.drop</title>
<ellipse fill="none" stroke="black" cx="2548.34" cy="-306" rx="59.5901" ry="18"/>
<text text-anchor="middle" x="2548.34" y="-302.3" font-family="Times New Roman,serif" font-size="14.00">rx.range.drop</text>
</g>
<!-- rx.range&#45;&gt;rx.range.drop -->
<g id="edge111" class="edge"><title>rx.range&#45;&gt;rx.range.drop</title>
<path fill="none" stroke="black" d="M2918.22,-370.852C2859.58,-361.11 2741.96,-341.442 2642.34,-324 2631.22,-322.053 2619.37,-319.94 2607.96,-317.887"/>
<polygon fill="black" stroke="black" points="2608.54,-314.435 2598.08,-316.103 2607.3,-321.324 2608.54,-314.435"/>
</g>
<!-- rx.range.take -->
<g id="node28" class="node"><title>rx.range.take</title>
<ellipse fill="none" stroke="black" cx="2708.34" cy="-306" rx="57.3905" ry="18"/>
<text text-anchor="middle" x="2708.34" y="-302.3" font-family="Times New Roman,serif" font-size="14.00">rx.range.take</text>
</g>
<!-- rx.range&#45;&gt;rx.range.take -->
<g id="edge112" class="edge"><title>rx.range&#45;&gt;rx.range.take</title>
<path fill="none" stroke="black" d="M2922.29,-367.632C2880.47,-355.782 2808.04,-335.254 2759.17,-321.404"/>
<polygon fill="black" stroke="black" points="2760,-318.001 2749.42,-318.642 2758.09,-324.736 2760,-318.001"/>
</g>
<!-- rx.range.takeLast -->
<g id="node29" class="node"><title>rx.range.takeLast</title>
<ellipse fill="none" stroke="black" cx="2873.34" cy="-306" rx="72.5877" ry="18"/>
<text text-anchor="middle" x="2873.34" y="-302.3" font-family="Times New Roman,serif" font-size="14.00">rx.range.takeLast</text>
</g>
<!-- rx.range&#45;&gt;rx.range.takeLast -->
<g id="edge113" class="edge"><title>rx.range&#45;&gt;rx.range.takeLast</title>
<path fill="none" stroke="black" d="M2937.55,-361.811C2926.65,-352.509 2912.49,-340.424 2900.25,-329.969"/>
<polygon fill="black" stroke="black" points="2902.41,-327.211 2892.53,-323.38 2897.86,-332.535 2902.41,-327.211"/>
</g>
<!-- rx.range.takeUntil -->
<g id="node30" class="node"><title>rx.range.takeUntil</title>
<ellipse fill="none" stroke="black" cx="3038.34" cy="-306" rx="74.187" ry="18"/>
<text text-anchor="middle" x="3038.34" y="-302.3" font-family="Times New Roman,serif" font-size="14.00">rx.range.takeUntil</text>
</g>
<!-- rx.range&#45;&gt;rx.range.takeUntil -->
<g id="edge114" class="edge"><title>rx.range&#45;&gt;rx.range.takeUntil</title>
<path fill="none" stroke="black" d="M2973.35,-361.811C2984.38,-352.509 2998.71,-340.424 3011.11,-329.969"/>
<polygon fill="black" stroke="black" points="3013.53,-332.503 3018.92,-323.38 3009.02,-327.152 3013.53,-332.503"/>
</g>
<!-- rx.range.zip -->
<g id="node43" class="node"><title>rx.range.zip</title>
<ellipse fill="#e6ffed" stroke="#bef5cb" cx="3185.34" cy="-306" rx="53.0913" ry="18"/>
<text text-anchor="middle" x="3185.34" y="-302.3" font-family="Times New Roman,serif" font-size="14.00">rx.range.zip</text>
</g>
<!-- rx.range&#45;&gt;rx.range.zip -->
<g id="edge154" class="edge"><title>rx.range&#45;&gt;rx.range.zip</title>
<path fill="none" stroke="#2cbe4e" d="M2987.81,-367.119C3026.72,-355.277 3092.27,-335.325 3137.11,-321.679"/>
<polygon fill="#2cbe4e" stroke="#2cbe4e" points="3138.36,-324.957 3146.91,-318.697 3136.32,-318.261 3138.36,-324.957"/>
</g>
<!-- rx.range.drop&#45;&gt;rx.disposable -->
<g id="edge115" class="edge"><title>rx.range.drop&#45;&gt;rx.disposable</title>
<path fill="none" stroke="black" d="M2517.17,-290.566C2498.09,-280.989 2473.71,-267.379 2454.34,-252 2437.34,-238.502 2440.82,-225.583 2421.34,-216 2337.49,-174.739 2094.7,-194.232 2002.34,-180 1995.52,-178.949 1988.39,-177.64 1981.36,-176.219"/>
<polygon fill="black" stroke="black" points="1981.67,-172.708 1971.16,-174.074 1980.23,-179.558 1981.67,-172.708"/>
</g>
<!-- rx.range.drop&#45;&gt;rx.observable -->
<g id="edge116" class="edge"><title>rx.range.drop&#45;&gt;rx.observable</title>
<path fill="none" stroke="black" d="M2503.34,-293.97C2492.89,-291.713 2481.77,-289.555 2471.34,-288 2253.19,-255.463 1991.96,-242.094 1869.77,-237.315"/>
<polygon fill="black" stroke="black" points="1869.57,-233.805 1859.44,-236.919 1869.3,-240.8 1869.57,-233.805"/>
</g>
<!-- rx.range.drop&#45;&gt;rx.observer -->
<g id="edge117" class="edge"><title>rx.range.drop&#45;&gt;rx.observer</title>
<path fill="none" stroke="black" d="M2536.16,-288.293C2520.01,-267.529 2489.41,-232.785 2454.34,-216 2397.33,-188.714 2219.36,-173.227 2124.42,-166.706"/>
<polygon fill="black" stroke="black" points="2124.6,-163.21 2114.39,-166.029 2124.13,-170.194 2124.6,-163.21"/>
</g>
<!-- rx.range.drop&#45;&gt;rx.util -->
<g id="edge118" class="edge"><title>rx.range.drop&#45;&gt;rx.util</title>
<path fill="none" stroke="black" d="M2542.53,-288.054C2534.66,-267.705 2518.61,-234.063 2493.34,-216 2376.16,-132.23 2319.95,-164.265 2177.34,-144 1905.38,-105.356 1834.28,-128.242 1560.34,-108 1508.87,-104.197 1449.65,-98.7236 1411.19,-95.0235"/>
<polygon fill="black" stroke="black" points="1411.21,-91.509 1400.92,-94.0297 1410.54,-98.4764 1411.21,-91.509"/>
</g>
<!-- rx.range.drop&#45;&gt;std.range -->
<g id="edge119" class="edge"><title>rx.range.drop&#45;&gt;std.range</title>
<path fill="none" stroke="black" d="M2557.95,-288.183C2575.18,-255.56 2606.17,-183.434 2568.34,-144 2535.08,-109.33 1752.07,-113.425 1704.34,-108 1690.21,-106.394 1674.97,-103.866 1661.08,-101.245"/>
<polygon fill="black" stroke="black" points="1661.72,-97.8051 1651.23,-99.3332 1660.38,-104.677 1661.72,-97.8051"/>
</g>
<!-- rx.range.take&#45;&gt;rx.disposable -->
<g id="edge120" class="edge"><title>rx.range.take&#45;&gt;rx.disposable</title>
<path fill="none" stroke="black" d="M2676.36,-290.902C2628.63,-270.551 2535.46,-233.473 2452.34,-216 2255.99,-174.723 2200.73,-209.972 2002.34,-180 1995.51,-178.969 1988.39,-177.672 1981.35,-176.258"/>
<polygon fill="black" stroke="black" points="1981.66,-172.746 1971.15,-174.118 1980.22,-179.597 1981.66,-172.746"/>
</g>
<!-- rx.range.take&#45;&gt;rx.observable -->
<g id="edge121" class="edge"><title>rx.range.take&#45;&gt;rx.observable</title>
<path fill="none" stroke="black" d="M2662.21,-295.273C2647.89,-292.552 2632.01,-289.84 2617.34,-288 2341.99,-253.475 2011.43,-240.784 1870.03,-236.705"/>
<polygon fill="black" stroke="black" points="1869.87,-233.199 1859.78,-236.415 1869.67,-240.196 1869.87,-233.199"/>
</g>
<!-- rx.range.take&#45;&gt;rx.observer -->
<g id="edge122" class="edge"><title>rx.range.take&#45;&gt;rx.observer</title>
<path fill="none" stroke="black" d="M2695.21,-288.442C2677.52,-267.495 2643.89,-232.202 2606.34,-216 2521.22,-179.271 2248.8,-167.723 2125.28,-164.322"/>
<polygon fill="black" stroke="black" points="2125.31,-160.822 2115.22,-164.054 2125.12,-167.819 2125.31,-160.822"/>
</g>
<!-- rx.range.take&#45;&gt;rx.util -->
<g id="edge123" class="edge"><title>rx.range.take&#45;&gt;rx.util</title>
<path fill="none" stroke="black" d="M2743.25,-291.671C2760.43,-283.128 2779.51,-270.183 2789.34,-252 2796.95,-237.926 2799.77,-228.137 2789.34,-216 2700.81,-112.945 1725.96,-119.343 1560.34,-108 1508.85,-104.474 1449.63,-98.9403 1411.18,-95.1507"/>
<polygon fill="black" stroke="black" points="1411.21,-91.6361 1400.91,-94.1311 1410.52,-98.6019 1411.21,-91.6361"/>
</g>
<!-- rx.range.take&#45;&gt;std.range -->
<g id="edge124" class="edge"><title>rx.range.take&#45;&gt;std.range</title>
<path fill="none" stroke="black" d="M2755.53,-295.727C2779.92,-288.282 2807.61,-275.093 2822.34,-252 2830.94,-238.511 2831.82,-228.888 2822.34,-216 2758.61,-129.381 2697.3,-162.337 2591.34,-144 2202.57,-76.723 2096.39,-152.342 1704.34,-108 1690.2,-106.401 1674.96,-103.876 1661.07,-101.255"/>
<polygon fill="black" stroke="black" points="1661.72,-97.8149 1651.23,-99.3424 1660.38,-104.686 1661.72,-97.8149"/>
</g>
<!-- rx.range.takeLast&#45;&gt;rx.disposable -->
<g id="edge125" class="edge"><title>rx.range.takeLast&#45;&gt;rx.disposable</title>
<path fill="none" stroke="black" d="M2863.11,-287.832C2849.37,-266.58 2822.75,-231.323 2789.34,-216 2709.77,-179.509 2089.1,-191.598 2002.34,-180 1995.15,-179.039 1987.64,-177.735 1980.26,-176.274"/>
<polygon fill="black" stroke="black" points="1980.82,-172.815 1970.31,-174.201 1979.39,-179.667 1980.82,-172.815"/>
</g>
<!-- rx.range.takeLast&#45;&gt;rx.observable -->
<g id="edge126" class="edge"><title>rx.range.takeLast&#45;&gt;rx.observable</title>
<path fill="none" stroke="black" d="M2817.74,-294.29C2803.63,-291.893 2788.46,-289.591 2774.34,-288 2598.67,-268.205 2061.69,-245.446 1869.59,-237.724"/>
<polygon fill="black" stroke="black" points="1869.47,-234.216 1859.34,-237.313 1869.19,-241.211 1869.47,-234.216"/>
</g>
<!-- rx.range.takeLast&#45;&gt;rx.observer -->
<g id="edge127" class="edge"><title>rx.range.takeLast&#45;&gt;rx.observer</title>
<path fill="none" stroke="black" d="M2876.52,-287.717C2879.17,-267.353 2879.83,-234.019 2860.34,-216 2806.83,-166.539 2303.92,-162.569 2125.63,-162.733"/>
<polygon fill="black" stroke="black" points="2125.37,-159.233 2115.37,-162.747 2125.38,-166.233 2125.37,-159.233"/>
</g>
<!-- rx.range.takeLast&#45;&gt;rx.util -->
<g id="edge128" class="edge"><title>rx.range.takeLast&#45;&gt;rx.util</title>
<path fill="none" stroke="black" d="M2881.75,-287.998C2890.04,-268.521 2899.35,-236.643 2883.34,-216 2843.97,-165.228 2666.93,-153.162 2603.34,-144 2144.25,-77.8538 2023.28,-136.679 1560.34,-108 1508.83,-104.809 1449.62,-99.2026 1411.17,-95.3046"/>
<polygon fill="black" stroke="black" points="1411.21,-91.7901 1400.91,-94.2539 1410.5,-98.7537 1411.21,-91.7901"/>
</g>
<!-- rx.range.takeLast&#45;&gt;std.range -->
<g id="edge129" class="edge"><title>rx.range.takeLast&#45;&gt;std.range</title>
<path fill="none" stroke="black" d="M2920.78,-292.212C2940.98,-284.163 2962.56,-271.488 2974.34,-252 2982.62,-238.308 2984.09,-228.683 2974.34,-216 2898.37,-117.21 2826.6,-162.359 2703.34,-144 2263.9,-78.5502 2145.93,-156.929 1704.34,-108 1690.2,-106.433 1674.96,-103.918 1661.07,-101.296"/>
<polygon fill="black" stroke="black" points="1661.71,-97.8562 1651.23,-99.3814 1660.38,-104.727 1661.71,-97.8562"/>
</g>
<!-- rx.range.takeUntil&#45;&gt;rx.disposable -->
<g id="edge130" class="edge"><title>rx.range.takeUntil&#45;&gt;rx.disposable</title>
<path fill="none" stroke="black" d="M3009.93,-289.221C2970.24,-268.086 2895.28,-231.458 2826.34,-216 2468.65,-135.801 2365.73,-228.197 2002.34,-180 1995.15,-179.047 1987.64,-177.747 1980.26,-176.287"/>
<polygon fill="black" stroke="black" points="1980.81,-172.828 1970.31,-174.216 1979.39,-179.681 1980.81,-172.828"/>
</g>
<!-- rx.range.takeUntil&#45;&gt;rx.observable -->
<g id="edge131" class="edge"><title>rx.range.takeUntil&#45;&gt;rx.observable</title>
<path fill="none" stroke="black" d="M2986.3,-293.048C2976.08,-291.068 2965.41,-289.255 2955.34,-288 2847.94,-274.62 2101.76,-246.168 1869.31,-237.536"/>
<polygon fill="black" stroke="black" points="1869.41,-234.037 1859.29,-237.164 1869.15,-241.032 1869.41,-234.037"/>
</g>
<!-- rx.range.takeUntil&#45;&gt;rx.observer -->
<g id="edge132" class="edge"><title>rx.range.takeUntil&#45;&gt;rx.observer</title>
<path fill="none" stroke="black" d="M3038.77,-287.742C3038.26,-267.078 3033.9,-233.119 3012.34,-216 2943.16,-161.057 2325.63,-160.949 2125.58,-162.381"/>
<polygon fill="black" stroke="black" points="2125.5,-158.882 2115.53,-162.457 2125.56,-165.881 2125.5,-158.882"/>
</g>
<!-- rx.range.takeUntil&#45;&gt;rx.util -->
<g id="edge133" class="edge"><title>rx.range.takeUntil&#45;&gt;rx.util</title>
<path fill="none" stroke="black" d="M3043.93,-287.774C3049.14,-268.086 3053.88,-236.01 3037.34,-216 2986.2,-154.122 2938.49,-198.35 2860.34,-180 2799.89,-165.805 2786.78,-153.018 2725.34,-144 2469.07,-106.383 1818.89,-123.548 1560.34,-108 1508.82,-104.902 1449.61,-99.2754 1411.17,-95.3473"/>
<polygon fill="black" stroke="black" points="1411.21,-91.8328 1400.9,-94.2879 1410.49,-98.7958 1411.21,-91.8328"/>
</g>
<!-- rx.range.takeUntil&#45;&gt;std.range -->
<g id="edge134" class="edge"><title>rx.range.takeUntil&#45;&gt;std.range</title>
<path fill="none" stroke="black" d="M3033.27,-287.831C3026.69,-268.196 3013.48,-236.17 2992.34,-216 2936.8,-163.011 2910.07,-161.568 2835.34,-144 2590.55,-86.4522 1954.33,-135.168 1704.34,-108 1690.2,-106.463 1674.96,-103.956 1661.07,-101.335"/>
<polygon fill="black" stroke="black" points="1661.71,-97.8945 1651.23,-99.4174 1660.37,-104.765 1661.71,-97.8945"/>
</g>
<!-- rx.scheduler&#45;&gt;core.internal.traits -->
<g id="edge135" class="edge"><title>rx.scheduler&#45;&gt;core.internal.traits</title>
<path fill="none" stroke="black" d="M3854.05,-303.498C3981.45,-299.437 4289.49,-286.153 4320.34,-252 4331.07,-240.128 4330.81,-228.102 4320.34,-216 4264.28,-151.176 3679.12,-109.292 3459.77,-95.7666"/>
<polygon fill="black" stroke="black" points="3459.8,-92.262 3449.6,-95.144 3459.37,-99.2489 3459.8,-92.262"/>
</g>
<!-- rx.scheduler&#45;&gt;core.thread -->
<g id="edge136" class="edge"><title>rx.scheduler&#45;&gt;core.thread</title>
<path fill="none" stroke="black" d="M3762.1,-292.647C3726.48,-280.829 3672.66,-262.975 3634.37,-250.271"/>
<polygon fill="black" stroke="black" points="3635.09,-246.823 3624.5,-246.996 3632.89,-253.467 3635.09,-246.823"/>
</g>
<!-- rx.scheduler&#45;&gt;core.time -->
<g id="edge137" class="edge"><title>rx.scheduler&#45;&gt;core.time</title>
<path fill="none" stroke="black" d="M3777.33,-289.116C3763.78,-279.337 3746.25,-266.687 3731.55,-256.076"/>
<polygon fill="black" stroke="black" points="3733.42,-253.115 3723.27,-250.101 3729.33,-258.791 3733.42,-253.115"/>
</g>
<!-- rx.scheduler&#45;&gt;rx.disposable -->
<g id="edge138" class="edge"><title>rx.scheduler&#45;&gt;rx.disposable</title>
<path fill="none" stroke="black" d="M3796.32,-287.677C3791.62,-266.611 3780.36,-231.901 3755.34,-216 3673.13,-163.756 2099.05,-191.69 2002.34,-180 1995.14,-179.13 1987.63,-177.878 1980.24,-176.443"/>
<polygon fill="black" stroke="black" points="1980.79,-172.983 1970.29,-174.392 1979.38,-179.839 1980.79,-172.983"/>
</g>
<!-- rx.scheduler&#45;&gt;rx.observable -->
<g id="edge139" class="edge"><title>rx.scheduler&#45;&gt;rx.observable</title>
<path fill="none" stroke="black" d="M3744.57,-303.082C3463.44,-293.238 2183.48,-248.417 1869.86,-237.434"/>
<polygon fill="black" stroke="black" points="1869.67,-233.926 1859.55,-237.073 1869.42,-240.921 1869.67,-233.926"/>
</g>
<!-- rx.scheduler&#45;&gt;rx.observer -->
<g id="edge140" class="edge"><title>rx.scheduler&#45;&gt;rx.observer</title>
<path fill="none" stroke="black" d="M3854,-303.287C3978.11,-298.834 4272.75,-284.876 4302.34,-252 4313.04,-240.108 4313.52,-227.447 4302.34,-216 4263.25,-175.973 2483.56,-165.075 2125.65,-163.286"/>
<polygon fill="black" stroke="black" points="2125.5,-159.786 2115.48,-163.236 2125.46,-166.785 2125.5,-159.786"/>
</g>
<!-- std.algorithm.internal -->
<g id="node34" class="node"><title>std.algorithm.internal</title>
<ellipse fill="none" stroke="black" cx="4069.34" cy="-234" rx="86.3847" ry="18"/>
<text text-anchor="middle" x="4069.34" y="-230.3" font-family="Times New Roman,serif" font-size="14.00">std.algorithm.internal</text>
</g>
<!-- rx.scheduler&#45;&gt;std.algorithm.internal -->
<g id="edge141" class="edge"><title>rx.scheduler&#45;&gt;std.algorithm.internal</title>
<path fill="none" stroke="black" d="M3841.23,-294.139C3885.67,-282.619 3956.35,-264.295 4007.26,-251.096"/>
<polygon fill="black" stroke="black" points="4008.36,-254.425 4017.16,-248.528 4006.6,-247.65 4008.36,-254.425"/>
</g>
<!-- std.exception -->
<g id="node36" class="node"><title>std.exception</title>
<ellipse fill="none" stroke="black" cx="4233.34" cy="-234" rx="59.5901" ry="18"/>
<text text-anchor="middle" x="4233.34" y="-230.3" font-family="Times New Roman,serif" font-size="14.00">std.exception</text>
</g>
<!-- rx.scheduler&#45;&gt;std.exception -->
<g id="edge142" class="edge"><title>rx.scheduler&#45;&gt;std.exception</title>
<path fill="none" stroke="black" d="M3850.69,-299.144C3921.57,-290.697 4053.26,-273.695 4164.34,-252 4169.36,-251.02 4174.56,-249.912 4179.75,-248.743"/>
<polygon fill="black" stroke="black" points="4180.73,-252.109 4189.68,-246.437 4179.15,-245.29 4180.73,-252.109"/>
</g>
<!-- std.parallelism -->
<g id="node39" class="node"><title>std.parallelism</title>
<ellipse fill="none" stroke="black" cx="3902.34" cy="-234" rx="62.2891" ry="18"/>
<text text-anchor="middle" x="3902.34" y="-230.3" font-family="Times New Roman,serif" font-size="14.00">std.parallelism</text>
</g>
<!-- rx.scheduler&#45;&gt;std.parallelism -->
<g id="edge143" class="edge"><title>rx.scheduler&#45;&gt;std.parallelism</title>
<path fill="none" stroke="black" d="M3822.2,-289.465C3836.5,-279.745 3855.12,-267.089 3870.82,-256.423"/>
<polygon fill="black" stroke="black" points="3872.89,-259.25 3879.19,-250.734 3868.95,-253.46 3872.89,-259.25"/>
</g>
<!-- rx.scheduler&#45;&gt;std.range -->
<g id="edge144" class="edge"><title>rx.scheduler&#45;&gt;std.range</title>
<path fill="none" stroke="black" d="M3801.47,-287.957C3802.94,-268.141 3802.09,-235.648 3784.34,-216 3703.38,-126.398 3641.85,-161.329 3522.34,-144 3122.44,-86.0158 2106.31,-149.242 1704.34,-108 1690.19,-106.548 1674.94,-104.068 1661.05,-101.444"/>
<polygon fill="black" stroke="black" points="1661.7,-98.0039 1651.21,-99.5205 1660.36,-104.874 1661.7,-98.0039"/>
</g>
<!-- rx.subject&#45;&gt;core.atomic -->
<g id="edge145" class="edge"><title>rx.subject&#45;&gt;core.atomic</title>
<path fill="none" stroke="black" d="M67.9754,-288.031C62.437,-277.957 56.187,-264.707 53.3404,-252 42.0104,-201.423 53.5159,-171.674 97.3404,-144 287.888,-23.6757 1008.07,-17.4175 1228.1,-18.3926"/>
<polygon fill="black" stroke="black" points="1228.18,-21.8929 1238.19,-18.4441 1228.21,-14.893 1228.18,-21.8929"/>
</g>
<!-- rx.subject&#45;&gt;rx.disposable -->
<g id="edge146" class="edge"><title>rx.subject&#45;&gt;rx.disposable</title>
<path fill="none" stroke="black" d="M112.962,-294.081C177.4,-274.321 320.45,-233.098 444.34,-216 722.305,-177.638 1601.38,-166.179 1856.37,-163.621"/>
<polygon fill="black" stroke="black" points="1856.65,-167.119 1866.61,-163.52 1856.58,-160.119 1856.65,-167.119"/>
</g>
<!-- rx.subject&#45;&gt;rx.observable -->
<g id="edge147" class="edge"><title>rx.subject&#45;&gt;rx.observable</title>
<path fill="none" stroke="black" d="M123.673,-302.619C189.774,-299.183 316.489,-292.726 424.34,-288 925.543,-266.035 1529.66,-244.467 1731.18,-237.405"/>
<polygon fill="black" stroke="black" points="1731.45,-240.897 1741.32,-237.05 1731.21,-233.902 1731.45,-240.897"/>
</g>
<!-- rx.subject&#45;&gt;rx.observer -->
<g id="edge148" class="edge"><title>rx.subject&#45;&gt;rx.observer</title>
<path fill="none" stroke="black" d="M119.01,-297.482C217.601,-279.621 477.363,-234.739 696.34,-216 1271.79,-166.755 1423.15,-258.502 1995.34,-180 2001.67,-179.132 2008.26,-177.904 2014.75,-176.502"/>
<polygon fill="black" stroke="black" points="2015.83,-179.843 2024.79,-174.181 2014.26,-173.023 2015.83,-179.843"/>
</g>
<!-- rx.subject&#45;&gt;rx.util -->
<g id="edge149" class="edge"><title>rx.subject&#45;&gt;rx.util</title>
<path fill="none" stroke="black" d="M69.0425,-288.219C59.7567,-268.949 48.9032,-237.265 64.3404,-216 125.028,-132.402 183.741,-162.685 285.34,-144 491.204,-106.139 1155.83,-94.0879 1328.85,-91.5534"/>
<polygon fill="black" stroke="black" points="1329.11,-95.05 1339.06,-91.4065 1329.01,-88.0508 1329.11,-95.05"/>
</g>
<!-- rx.subject&#45;&gt;std.range -->
<g id="edge150" class="edge"><title>rx.subject&#45;&gt;std.range</title>
<path fill="none" stroke="black" d="M78.3711,-287.994C79.3246,-268.213 83.8665,-235.753 102.34,-216 136.038,-179.969 163.858,-203.303 207.34,-180 230.532,-167.571 229.555,-152.834 254.34,-144 375.388,-100.856 1282.04,-115.365 1410.34,-108 1461.61,-105.057 1520.02,-99.9839 1560.98,-96.1435"/>
<polygon fill="black" stroke="black" points="1561.38,-99.6217 1571.01,-95.1958 1560.72,-92.6528 1561.38,-99.6217"/>
</g>
<!-- rx.util&#45;&gt;core.atomic -->
<g id="edge151" class="edge"><title>rx.util&#45;&gt;core.atomic</title>
<path fill="none" stroke="black" d="M1354.18,-74.496C1343.71,-65.1008 1329.85,-52.6635 1317.91,-41.9446"/>
<polygon fill="black" stroke="black" points="1320.17,-39.2725 1310.39,-35.1982 1315.49,-44.4822 1320.17,-39.2725"/>
</g>
<!-- rx.util&#45;&gt;core.sync.condition -->
<g id="edge152" class="edge"><title>rx.util&#45;&gt;core.sync.condition</title>
<path fill="none" stroke="black" d="M1386.29,-74.496C1396.39,-65.3205 1409.67,-53.2433 1421.27,-42.6991"/>
<polygon fill="black" stroke="black" points="1423.93,-45.0152 1428.97,-35.6986 1419.22,-39.8356 1423.93,-45.0152"/>
</g>
<!-- rx.util&#45;&gt;core.sync.mutex -->
<g id="edge153" class="edge"><title>rx.util&#45;&gt;core.sync.mutex</title>
<path fill="none" stroke="black" d="M1399.69,-83.5655C1460.19,-72.3604 1600.08,-46.4547 1683.11,-31.0801"/>
<polygon fill="black" stroke="black" points="1683.75,-34.5215 1692.94,-29.259 1682.47,-27.6385 1683.75,-34.5215"/>
</g>
<!-- rx.range.zip&#45;&gt;rx.disposable -->
<g id="edge155" class="edge"><title>rx.range.zip&#45;&gt;rx.disposable</title>
<path fill="none" stroke="#2cbe4e" d="M3152.05,-291.883C3098.24,-271.375 2988.36,-232.376 2891.34,-216 2501.42,-150.186 2394.42,-231.367 2002.34,-180 1995.15,-179.058 1987.64,-177.765 1980.26,-176.309"/>
<polygon fill="#2cbe4e" stroke="#2cbe4e" points="1980.81,-172.85 1970.31,-174.24 1979.39,-179.703 1980.81,-172.85"/>
</g>
<!-- rx.range.zip&#45;&gt;rx.observable -->
<g id="edge156" class="edge"><title>rx.range.zip&#45;&gt;rx.observable</title>
<path fill="none" stroke="#2cbe4e" d="M3147.05,-293.366C3138.65,-291.227 3129.75,-289.27 3121.34,-288 3059.09,-278.6 2132.9,-246.371 1869.65,-237.359"/>
<polygon fill="#2cbe4e" stroke="#2cbe4e" points="1869.57,-233.854 1859.46,-237.01 1869.33,-240.85 1869.57,-233.854"/>
</g>
<!-- rx.range.zip&#45;&gt;rx.observer -->
<g id="edge157" class="edge"><title>rx.range.zip&#45;&gt;rx.observer</title>
<path fill="none" stroke="#2cbe4e" d="M3237.11,-301.658C3320.19,-294.534 3468.64,-273.508 3413.34,-216 3368.22,-169.071 2385.72,-163.678 2125.9,-163.073"/>
<polygon fill="#2cbe4e" stroke="#2cbe4e" points="2125.53,-159.572 2115.52,-163.051 2125.51,-166.572 2125.53,-159.572"/>
</g>
<!-- rx.range.zip&#45;&gt;std.meta -->
<g id="edge159" class="edge"><title>rx.range.zip&#45;&gt;std.meta</title>
<path fill="none" stroke="#2cbe4e" d="M3145.92,-293.72C3137.83,-291.635 3129.34,-289.61 3121.34,-288 3003.26,-264.241 2862.56,-247.751 2788.95,-240.012"/>
<polygon fill="#2cbe4e" stroke="#2cbe4e" points="2788.9,-236.487 2778.59,-238.934 2788.17,-243.45 2788.9,-236.487"/>
</g>
<!-- rx.range.zip&#45;&gt;std.range -->
<g id="edge160" class="edge"><title>rx.range.zip&#45;&gt;std.range</title>
<path fill="none" stroke="#2cbe4e" d="M3165.85,-289.13C3122.35,-254.823 3012.71,-174.398 2905.34,-144 2648.43,-71.2633 1969.81,-136.602 1704.34,-108 1690.2,-106.476 1674.95,-103.974 1661.06,-101.351"/>
<polygon fill="#2cbe4e" stroke="#2cbe4e" points="1661.71,-97.9114 1651.22,-99.4333 1660.37,-104.782 1661.71,-97.9114"/>
</g>
<!-- rx.range.zip&#45;&gt;std.typecons -->
<g id="edge161" class="edge"><title>rx.range.zip&#45;&gt;std.typecons</title>
<path fill="none" stroke="#2cbe4e" d="M3146.68,-293.463C3138.38,-291.345 3129.62,-289.373 3121.34,-288 3053.24,-276.708 2594.31,-249.054 2420.7,-238.858"/>
<polygon fill="#2cbe4e" stroke="#2cbe4e" points="2420.86,-235.361 2410.67,-238.27 2420.45,-242.349 2420.86,-235.361"/>
</g>
<!-- std.container.dlist -->
<g id="node44" class="node"><title>std.container.dlist</title>
<ellipse fill="#e6ffed" stroke="#bef5cb" cx="3329.34" cy="-234" rx="75.2868" ry="18"/>
<text text-anchor="middle" x="3329.34" y="-230.3" font-family="Times New Roman,serif" font-size="14.00">std.container.dlist</text>
</g>
<!-- rx.range.zip&#45;&gt;std.container.dlist -->
<g id="edge158" class="edge"><title>rx.range.zip&#45;&gt;std.container.dlist</title>
<path fill="none" stroke="#2cbe4e" d="M3214.48,-290.834C3235.81,-280.466 3265.03,-266.261 3288.66,-254.774"/>
<polygon fill="#2cbe4e" stroke="#2cbe4e" points="3290.28,-257.879 3297.74,-250.359 3287.22,-251.583 3290.28,-257.879"/>
</g>
</g>
</svg>
