<?xml version="1.0" encoding="UTF-8" standalone="no"?>
<!DOCTYPE svg PUBLIC "-//W3C//DTD SVG 1.1//EN"
 "http://www.w3.org/Graphics/SVG/1.1/DTD/svg11.dtd">
<!-- Generated by graphviz version 2.38.0 (20140413.2041)
 -->
<!-- Title: %3 Pages: 1 -->
<svg width="4234pt" height="548pt"
 viewBox="0.00 0.00 4234.00 548.00" xmlns="http://www.w3.org/2000/svg" xmlns:xlink="http://www.w3.org/1999/xlink">
<g id="graph0" class="graph" transform="scale(1 1) rotate(0) translate(4 544)">
<title>%3</title>
<polygon fill="white" stroke="none" points="-4,4 -4,-544 4230,-544 4230,4 -4,4"/>
<!-- core.atomic -->
<g id="node1" class="node"><title>core.atomic</title>
<ellipse fill="none" stroke="black" cx="1329" cy="-18" rx="53.8905" ry="18"/>
<text text-anchor="middle" x="1329" y="-14.3" font-family="Times New Roman,serif" font-size="14.00">core.atomic</text>
</g>
<!-- core.internal.traits -->
<g id="node2" class="node"><title>core.internal.traits</title>
<ellipse fill="none" stroke="black" cx="3150" cy="-90" rx="75.2868" ry="18"/>
<text text-anchor="middle" x="3150" y="-86.3" font-family="Times New Roman,serif" font-size="14.00">core.internal.traits</text>
</g>
<!-- core.stdc.string -->
<g id="node3" class="node"><title>core.stdc.string</title>
<ellipse fill="none" stroke="black" cx="1454" cy="-90" rx="67.6881" ry="18"/>
<text text-anchor="middle" x="1454" y="-86.3" font-family="Times New Roman,serif" font-size="14.00">core.stdc.string</text>
</g>
<!-- core.sync.condition -->
<g id="node4" class="node"><title>core.sync.condition</title>
<ellipse fill="none" stroke="black" cx="1174" cy="-18" rx="83.3857" ry="18"/>
<text text-anchor="middle" x="1174" y="-14.3" font-family="Times New Roman,serif" font-size="14.00">core.sync.condition</text>
</g>
<!-- core.sync.mutex -->
<g id="node5" class="node"><title>core.sync.mutex</title>
<ellipse fill="none" stroke="black" cx="1589" cy="-18" rx="70.6878" ry="18"/>
<text text-anchor="middle" x="1589" y="-14.3" font-family="Times New Roman,serif" font-size="14.00">core.sync.mutex</text>
</g>
<!-- core.thread -->
<g id="node6" class="node"><title>core.thread</title>
<ellipse fill="none" stroke="black" cx="3524" cy="-234" rx="51.9908" ry="18"/>
<text text-anchor="middle" x="3524" y="-230.3" font-family="Times New Roman,serif" font-size="14.00">core.thread</text>
</g>
<!-- core.time -->
<g id="node7" class="node"><title>core.time</title>
<ellipse fill="none" stroke="black" cx="3410" cy="-234" rx="44.393" ry="18"/>
<text text-anchor="middle" x="3410" y="-230.3" font-family="Times New Roman,serif" font-size="14.00">core.time</text>
</g>
<!-- rx -->
<g id="node8" class="node"><title>rx</title>
<ellipse fill="none" stroke="black" cx="1774" cy="-522" rx="27" ry="18"/>
<text text-anchor="middle" x="1774" y="-518.3" font-family="Times New Roman,serif" font-size="14.00">rx</text>
</g>
<!-- rx.algorithm -->
<g id="node9" class="node"><title>rx.algorithm</title>
<ellipse fill="none" stroke="black" cx="1628" cy="-450" rx="53.8905" ry="18"/>
<text text-anchor="middle" x="1628" y="-446.3" font-family="Times New Roman,serif" font-size="14.00">rx.algorithm</text>
</g>
<!-- rx&#45;&gt;rx.algorithm -->
<g id="edge1" class="edge"><title>rx&#45;&gt;rx.algorithm</title>
<path fill="none" stroke="black" d="M1752.77,-510.821C1730.34,-500.069 1694.49,-482.877 1666.95,-469.677"/>
<polygon fill="black" stroke="black" points="1668.13,-466.359 1657.6,-465.192 1665.1,-472.671 1668.13,-466.359"/>
</g>
<!-- rx.disposable -->
<g id="node23" class="node"><title>rx.disposable</title>
<ellipse fill="none" stroke="black" cx="1609" cy="-162" rx="59.5901" ry="18"/>
<text text-anchor="middle" x="1609" y="-158.3" font-family="Times New Roman,serif" font-size="14.00">rx.disposable</text>
</g>
<!-- rx&#45;&gt;rx.disposable -->
<g id="edge2" class="edge"><title>rx&#45;&gt;rx.disposable</title>
<path fill="none" stroke="black" d="M1746.95,-521.169C1584.37,-521.989 735.422,-523.516 482,-468 349.533,-438.981 273.03,-445.597 213,-324 146.905,-190.118 318.917,-237.255 437,-216 545.205,-196.523 1304.59,-172.199 1539.75,-165.059"/>
<polygon fill="black" stroke="black" points="1540,-168.553 1549.89,-164.752 1539.79,-161.556 1540,-168.553"/>
</g>
<!-- rx.observable -->
<g id="node24" class="node"><title>rx.observable</title>
<ellipse fill="none" stroke="black" cx="1836" cy="-234" rx="59.5901" ry="18"/>
<text text-anchor="middle" x="1836" y="-230.3" font-family="Times New Roman,serif" font-size="14.00">rx.observable</text>
</g>
<!-- rx&#45;&gt;rx.observable -->
<g id="edge3" class="edge"><title>rx&#45;&gt;rx.observable</title>
<path fill="none" stroke="black" d="M1785.89,-505.812C1809.8,-474.192 1863.03,-398.057 1882,-324 1885.97,-308.5 1887.6,-302.989 1882,-288 1877.95,-277.164 1870.58,-267.076 1862.91,-258.671"/>
<polygon fill="black" stroke="black" points="1865.35,-256.164 1855.86,-251.453 1860.34,-261.054 1865.35,-256.164"/>
</g>
<!-- rx.observer -->
<g id="node25" class="node"><title>rx.observer</title>
<ellipse fill="none" stroke="black" cx="1961" cy="-162" rx="51.9908" ry="18"/>
<text text-anchor="middle" x="1961" y="-158.3" font-family="Times New Roman,serif" font-size="14.00">rx.observer</text>
</g>
<!-- rx&#45;&gt;rx.observer -->
<g id="edge4" class="edge"><title>rx&#45;&gt;rx.observer</title>
<path fill="none" stroke="black" d="M1801.12,-520.906C2068.68,-519.808 4226,-506.989 4226,-379 4226,-379 4226,-379 4226,-305 4226,-258.027 4209.94,-239.037 4169,-216 4073.06,-162.011 2371.99,-162.236 2023.19,-162.853"/>
<polygon fill="black" stroke="black" points="2023.02,-159.354 2013.02,-162.872 2023.03,-166.354 2023.02,-159.354"/>
</g>
<!-- rx.range -->
<g id="node26" class="node"><title>rx.range</title>
<ellipse fill="none" stroke="black" cx="2922" cy="-378" rx="40.0939" ry="18"/>
<text text-anchor="middle" x="2922" y="-374.3" font-family="Times New Roman,serif" font-size="14.00">rx.range</text>
</g>
<!-- rx&#45;&gt;rx.range -->
<g id="edge5" class="edge"><title>rx&#45;&gt;rx.range</title>
<path fill="none" stroke="black" d="M1800.41,-517.733C1948.68,-499.393 2677.9,-409.194 2873.59,-384.988"/>
<polygon fill="black" stroke="black" points="2874.08,-388.454 2883.58,-383.753 2873.22,-381.507 2874.08,-388.454"/>
</g>
<!-- rx.scheduler -->
<g id="node30" class="node"><title>rx.scheduler</title>
<ellipse fill="none" stroke="black" cx="3623" cy="-306" rx="55.4913" ry="18"/>
<text text-anchor="middle" x="3623" y="-302.3" font-family="Times New Roman,serif" font-size="14.00">rx.scheduler</text>
</g>
<!-- rx&#45;&gt;rx.scheduler -->
<g id="edge6" class="edge"><title>rx&#45;&gt;rx.scheduler</title>
<path fill="none" stroke="black" d="M1800.88,-519.959C1985.34,-512.66 3066.4,-467.351 3387,-396 3458.83,-380.014 3538.05,-346.665 3584.01,-325.637"/>
<polygon fill="black" stroke="black" points="3585.68,-328.718 3593.29,-321.347 3582.75,-322.363 3585.68,-328.718"/>
</g>
<!-- rx.subject -->
<g id="node31" class="node"><title>rx.subject</title>
<ellipse fill="none" stroke="black" cx="268" cy="-306" rx="46.2923" ry="18"/>
<text text-anchor="middle" x="268" y="-302.3" font-family="Times New Roman,serif" font-size="14.00">rx.subject</text>
</g>
<!-- rx&#45;&gt;rx.subject -->
<g id="edge7" class="edge"><title>rx&#45;&gt;rx.subject</title>
<path fill="none" stroke="black" d="M1746.95,-521.103C1573.55,-521.397 617.151,-517.425 357,-396 326.719,-381.866 300.855,-352.858 284.938,-331.791"/>
<polygon fill="black" stroke="black" points="287.67,-329.597 278.94,-323.595 282.021,-333.731 287.67,-329.597"/>
</g>
<!-- rx.util -->
<g id="node32" class="node"><title>rx.util</title>
<ellipse fill="none" stroke="black" cx="1299" cy="-90" rx="31.3957" ry="18"/>
<text text-anchor="middle" x="1299" y="-86.3" font-family="Times New Roman,serif" font-size="14.00">rx.util</text>
</g>
<!-- rx&#45;&gt;rx.util -->
<g id="edge8" class="edge"><title>rx&#45;&gt;rx.util</title>
<path fill="none" stroke="black" d="M1746.87,-520.872C1572.87,-519.925 611.813,-512.713 322,-468 175.259,-445.361 0,-527.477 0,-379 0,-379 0,-379 0,-233 0,-164.075 61.7547,-166.219 127,-144 235.684,-106.989 1062.1,-94.0593 1257.62,-91.5022"/>
<polygon fill="black" stroke="black" points="1257.81,-95.0002 1267.77,-91.3715 1257.72,-88.0008 1257.81,-95.0002"/>
</g>
<!-- rx.algorithm.all -->
<g id="node10" class="node"><title>rx.algorithm.all</title>
<ellipse fill="none" stroke="black" cx="1250" cy="-306" rx="64.189" ry="18"/>
<text text-anchor="middle" x="1250" y="-302.3" font-family="Times New Roman,serif" font-size="14.00">rx.algorithm.all</text>
</g>
<!-- rx.algorithm&#45;&gt;rx.algorithm.all -->
<g id="edge9" class="edge"><title>rx.algorithm&#45;&gt;rx.algorithm.all</title>
<path fill="none" stroke="black" d="M1593.45,-436.022C1525.2,-410.383 1373.06,-353.227 1296.25,-324.374"/>
<polygon fill="black" stroke="black" points="1297.41,-321.072 1286.82,-320.832 1294.95,-327.625 1297.41,-321.072"/>
</g>
<!-- rx.algorithm.any -->
<g id="node11" class="node"><title>rx.algorithm.any</title>
<ellipse fill="none" stroke="black" cx="621" cy="-306" rx="69.5877" ry="18"/>
<text text-anchor="middle" x="621" y="-302.3" font-family="Times New Roman,serif" font-size="14.00">rx.algorithm.any</text>
</g>
<!-- rx.algorithm&#45;&gt;rx.algorithm.any -->
<g id="edge10" class="edge"><title>rx.algorithm&#45;&gt;rx.algorithm.any</title>
<path fill="none" stroke="black" d="M1574.22,-447.344C1463.87,-443.332 1204.12,-430.721 989,-396 875.739,-377.719 745.856,-342.995 674.666,-322.747"/>
<polygon fill="black" stroke="black" points="675.595,-319.372 665.018,-319.989 673.671,-326.102 675.595,-319.372"/>
</g>
<!-- rx.algorithm.buffer -->
<g id="node12" class="node"><title>rx.algorithm.buffer</title>
<ellipse fill="none" stroke="black" cx="2694" cy="-306" rx="78.7863" ry="18"/>
<text text-anchor="middle" x="2694" y="-302.3" font-family="Times New Roman,serif" font-size="14.00">rx.algorithm.buffer</text>
</g>
<!-- rx.algorithm&#45;&gt;rx.algorithm.buffer -->
<g id="edge11" class="edge"><title>rx.algorithm&#45;&gt;rx.algorithm.buffer</title>
<path fill="none" stroke="black" d="M1677.28,-442.436C1847.51,-419.76 2411.62,-344.615 2617.74,-317.159"/>
<polygon fill="black" stroke="black" points="2618.42,-320.599 2627.87,-315.809 2617.49,-313.661 2618.42,-320.599"/>
</g>
<!-- rx.algorithm.combineLatest -->
<g id="node13" class="node"><title>rx.algorithm.combineLatest</title>
<ellipse fill="none" stroke="black" cx="2431" cy="-306" rx="109.681" ry="18"/>
<text text-anchor="middle" x="2431" y="-302.3" font-family="Times New Roman,serif" font-size="14.00">rx.algorithm.combineLatest</text>
</g>
<!-- rx.algorithm&#45;&gt;rx.algorithm.combineLatest -->
<g id="edge12" class="edge"><title>rx.algorithm&#45;&gt;rx.algorithm.combineLatest</title>
<path fill="none" stroke="black" d="M1671.35,-439.052C1707.62,-430 1760.3,-415.14 1804,-396 1832.84,-383.37 1835,-369.528 1865,-360 2051.58,-300.748 2109.36,-344.994 2304,-324 2315.84,-322.723 2328.27,-321.238 2340.54,-319.686"/>
<polygon fill="black" stroke="black" points="2341.32,-323.115 2350.79,-318.37 2340.43,-316.172 2341.32,-323.115"/>
</g>
<!-- rx.algorithm.debounce -->
<g id="node14" class="node"><title>rx.algorithm.debounce</title>
<ellipse fill="none" stroke="black" cx="3286" cy="-378" rx="92.0841" ry="18"/>
<text text-anchor="middle" x="3286" y="-374.3" font-family="Times New Roman,serif" font-size="14.00">rx.algorithm.debounce</text>
</g>
<!-- rx.algorithm&#45;&gt;rx.algorithm.debounce -->
<g id="edge13" class="edge"><title>rx.algorithm&#45;&gt;rx.algorithm.debounce</title>
<path fill="none" stroke="black" d="M1681.43,-447.169C1862.51,-440.906 2469.57,-419.424 2971,-396 3043.94,-392.593 3126.35,-388.123 3188.57,-384.622"/>
<polygon fill="black" stroke="black" points="3188.99,-388.105 3198.77,-384.047 3188.59,-381.116 3188.99,-388.105"/>
</g>
<!-- rx.algorithm.filter -->
<g id="node15" class="node"><title>rx.algorithm.filter</title>
<ellipse fill="none" stroke="black" cx="933" cy="-306" rx="72.5877" ry="18"/>
<text text-anchor="middle" x="933" y="-302.3" font-family="Times New Roman,serif" font-size="14.00">rx.algorithm.filter</text>
</g>
<!-- rx.algorithm&#45;&gt;rx.algorithm.filter -->
<g id="edge14" class="edge"><title>rx.algorithm&#45;&gt;rx.algorithm.filter</title>
<path fill="none" stroke="black" d="M1577.45,-443.613C1507,-435.654 1375.49,-419.156 1265,-396 1205.9,-383.615 1192.3,-375.698 1134,-360 1085.97,-347.069 1031.4,-332.7 991.252,-322.189"/>
<polygon fill="black" stroke="black" points="991.928,-318.748 981.368,-319.603 990.156,-325.521 991.928,-318.748"/>
</g>
<!-- rx.algorithm.fold -->
<g id="node16" class="node"><title>rx.algorithm.fold</title>
<ellipse fill="none" stroke="black" cx="1607" cy="-306" rx="71.4873" ry="18"/>
<text text-anchor="middle" x="1607" y="-302.3" font-family="Times New Roman,serif" font-size="14.00">rx.algorithm.fold</text>
</g>
<!-- rx.algorithm&#45;&gt;rx.algorithm.fold -->
<g id="edge15" class="edge"><title>rx.algorithm&#45;&gt;rx.algorithm.fold</title>
<path fill="none" stroke="black" d="M1625.47,-431.871C1621.89,-407.67 1615.31,-363.211 1611.05,-334.393"/>
<polygon fill="black" stroke="black" points="1614.47,-333.57 1609.54,-324.189 1607.54,-334.594 1614.47,-333.57"/>
</g>
<!-- rx.algorithm.groupby -->
<g id="node17" class="node"><title>rx.algorithm.groupby</title>
<ellipse fill="none" stroke="black" cx="453" cy="-378" rx="87.1846" ry="18"/>
<text text-anchor="middle" x="453" y="-374.3" font-family="Times New Roman,serif" font-size="14.00">rx.algorithm.groupby</text>
</g>
<!-- rx.algorithm&#45;&gt;rx.algorithm.groupby -->
<g id="edge16" class="edge"><title>rx.algorithm&#45;&gt;rx.algorithm.groupby</title>
<path fill="none" stroke="black" d="M1575.23,-445.856C1391.75,-434.925 779.998,-398.481 545.541,-384.513"/>
<polygon fill="black" stroke="black" points="545.528,-381.006 535.337,-383.905 545.111,-387.994 545.528,-381.006"/>
</g>
<!-- rx.algorithm.map -->
<g id="node18" class="node"><title>rx.algorithm.map</title>
<ellipse fill="none" stroke="black" cx="2223" cy="-306" rx="72.2875" ry="18"/>
<text text-anchor="middle" x="2223" y="-302.3" font-family="Times New Roman,serif" font-size="14.00">rx.algorithm.map</text>
</g>
<!-- rx.algorithm&#45;&gt;rx.algorithm.map -->
<g id="edge17" class="edge"><title>rx.algorithm&#45;&gt;rx.algorithm.map</title>
<path fill="none" stroke="black" d="M1662.73,-436.204C1689.21,-426.121 1726.39,-411.258 1758,-396 1787.39,-381.812 1790.94,-370.03 1822,-360 1957.77,-316.151 2000.11,-346.506 2141,-324 2147.56,-322.952 2154.39,-321.737 2161.18,-320.447"/>
<polygon fill="black" stroke="black" points="2161.93,-323.867 2171.08,-318.516 2160.59,-316.997 2161.93,-323.867"/>
</g>
<!-- rx.algorithm.merge -->
<g id="node19" class="node"><title>rx.algorithm.merge</title>
<ellipse fill="none" stroke="black" cx="1775" cy="-306" rx="78.7863" ry="18"/>
<text text-anchor="middle" x="1775" y="-302.3" font-family="Times New Roman,serif" font-size="14.00">rx.algorithm.merge</text>
</g>
<!-- rx.algorithm&#45;&gt;rx.algorithm.merge -->
<g id="edge18" class="edge"><title>rx.algorithm&#45;&gt;rx.algorithm.merge</title>
<path fill="none" stroke="black" d="M1643.12,-432.506C1659.99,-414.317 1688.28,-384.397 1714,-360 1724.63,-349.922 1736.73,-339.25 1747.34,-330.145"/>
<polygon fill="black" stroke="black" points="1749.77,-332.672 1755.11,-323.523 1745.23,-327.344 1749.77,-332.672"/>
</g>
<!-- rx.algorithm.scan -->
<g id="node20" class="node"><title>rx.algorithm.scan</title>
<ellipse fill="none" stroke="black" cx="2059" cy="-306" rx="73.387" ry="18"/>
<text text-anchor="middle" x="2059" y="-302.3" font-family="Times New Roman,serif" font-size="14.00">rx.algorithm.scan</text>
</g>
<!-- rx.algorithm&#45;&gt;rx.algorithm.scan -->
<g id="edge19" class="edge"><title>rx.algorithm&#45;&gt;rx.algorithm.scan</title>
<path fill="none" stroke="black" d="M1651.72,-433.781C1689.44,-409.677 1760.18,-364.927 1773,-360 1840.4,-334.102 1921.72,-320.6 1980.4,-313.726"/>
<polygon fill="black" stroke="black" points="1980.8,-317.202 1990.34,-312.598 1980.01,-310.247 1980.8,-317.202"/>
</g>
<!-- rx.algorithm.tee -->
<g id="node21" class="node"><title>rx.algorithm.tee</title>
<ellipse fill="none" stroke="black" cx="775" cy="-306" rx="66.8882" ry="18"/>
<text text-anchor="middle" x="775" y="-302.3" font-family="Times New Roman,serif" font-size="14.00">rx.algorithm.tee</text>
</g>
<!-- rx.algorithm&#45;&gt;rx.algorithm.tee -->
<g id="edge20" class="edge"><title>rx.algorithm&#45;&gt;rx.algorithm.tee</title>
<path fill="none" stroke="black" d="M1575.39,-445.718C1484.74,-439.537 1293.47,-424.187 1134,-396 1126.47,-394.67 931.437,-346.057 832.064,-321.252"/>
<polygon fill="black" stroke="black" points="832.726,-317.81 822.176,-318.784 831.03,-324.602 832.726,-317.81"/>
</g>
<!-- rx.algorithm.uniq -->
<g id="node22" class="node"><title>rx.algorithm.uniq</title>
<ellipse fill="none" stroke="black" cx="1096" cy="-306" rx="72.2875" ry="18"/>
<text text-anchor="middle" x="1096" y="-302.3" font-family="Times New Roman,serif" font-size="14.00">rx.algorithm.uniq</text>
</g>
<!-- rx.algorithm&#45;&gt;rx.algorithm.uniq -->
<g id="edge21" class="edge"><title>rx.algorithm&#45;&gt;rx.algorithm.uniq</title>
<path fill="none" stroke="black" d="M1582.77,-439.911C1534.9,-430.052 1457.27,-413.382 1391,-396 1305.15,-373.484 1206.68,-342.773 1148,-323.945"/>
<polygon fill="black" stroke="black" points="1148.82,-320.531 1138.23,-320.801 1146.67,-327.195 1148.82,-320.531"/>
</g>
<!-- rx.algorithm.all&#45;&gt;rx.disposable -->
<g id="edge22" class="edge"><title>rx.algorithm.all&#45;&gt;rx.disposable</title>
<path fill="none" stroke="black" d="M1268.89,-288.653C1293.05,-268.592 1336.93,-234.92 1380,-216 1433.08,-192.683 1497.78,-178.923 1544.85,-171.294"/>
<polygon fill="black" stroke="black" points="1545.58,-174.722 1554.91,-169.712 1544.49,-167.807 1545.58,-174.722"/>
</g>
<!-- rx.algorithm.all&#45;&gt;rx.observable -->
<g id="edge23" class="edge"><title>rx.algorithm.all&#45;&gt;rx.observable</title>
<path fill="none" stroke="black" d="M1296.16,-293.325C1305.03,-291.345 1314.27,-289.461 1323,-288 1481.21,-261.513 1669.23,-246.141 1767.85,-239.3"/>
<polygon fill="black" stroke="black" points="1768.24,-242.781 1777.98,-238.605 1767.77,-235.797 1768.24,-242.781"/>
</g>
<!-- rx.algorithm.all&#45;&gt;rx.observer -->
<g id="edge24" class="edge"><title>rx.algorithm.all&#45;&gt;rx.observer</title>
<path fill="none" stroke="black" d="M1297.71,-293.728C1349.46,-281.347 1428.6,-261.908 1458,-252 1496.88,-238.898 1503.39,-226.681 1543,-216 1666.78,-182.625 1816.98,-170.107 1899.42,-165.531"/>
<polygon fill="black" stroke="black" points="1899.82,-169.015 1909.62,-164.986 1899.45,-162.025 1899.82,-169.015"/>
</g>
<!-- rx.algorithm.all&#45;&gt;rx.util -->
<g id="edge25" class="edge"><title>rx.algorithm.all&#45;&gt;rx.util</title>
<path fill="none" stroke="black" d="M1202.06,-293.84C1144.41,-280.196 1054.74,-258.156 1050,-252 1020.73,-213.959 1019.8,-181.307 1050,-144 1075.68,-112.273 1193.94,-98.7377 1257.81,-93.6597"/>
<polygon fill="black" stroke="black" points="1258.24,-97.1372 1267.94,-92.8886 1257.71,-90.1574 1258.24,-97.1372"/>
</g>
<!-- std.functional -->
<g id="node36" class="node"><title>std.functional</title>
<ellipse fill="none" stroke="black" cx="836" cy="-162" rx="59.5901" ry="18"/>
<text text-anchor="middle" x="836" y="-158.3" font-family="Times New Roman,serif" font-size="14.00">std.functional</text>
</g>
<!-- rx.algorithm.all&#45;&gt;std.functional -->
<g id="edge26" class="edge"><title>rx.algorithm.all&#45;&gt;std.functional</title>
<path fill="none" stroke="black" d="M1202.51,-293.839C1194.02,-291.873 1185.25,-289.861 1177,-288 1103.78,-271.488 1082.72,-277.137 1012,-252 960.468,-233.684 904.725,-203.577 870.088,-183.523"/>
<polygon fill="black" stroke="black" points="871.725,-180.426 861.326,-178.403 868.194,-186.47 871.725,-180.426"/>
</g>
<!-- std.range -->
<g id="node39" class="node"><title>std.range</title>
<ellipse fill="none" stroke="black" cx="1840" cy="-90" rx="44.393" ry="18"/>
<text text-anchor="middle" x="1840" y="-86.3" font-family="Times New Roman,serif" font-size="14.00">std.range</text>
</g>
<!-- rx.algorithm.all&#45;&gt;std.range -->
<g id="edge27" class="edge"><title>rx.algorithm.all&#45;&gt;std.range</title>
<path fill="none" stroke="black" d="M1258.54,-288.074C1269.46,-268.063 1290.22,-235.074 1317,-216 1393.49,-161.521 1672.75,-115.472 1788.84,-98.247"/>
<polygon fill="black" stroke="black" points="1789.51,-101.686 1798.9,-96.7668 1788.5,-94.7605 1789.51,-101.686"/>
</g>
<!-- rx.algorithm.any&#45;&gt;rx.disposable -->
<g id="edge28" class="edge"><title>rx.algorithm.any&#45;&gt;rx.disposable</title>
<path fill="none" stroke="black" d="M660.687,-291.055C719.844,-270.897 835.027,-234.059 936,-216 1153.7,-177.065 1416.11,-166.732 1539.05,-163.99"/>
<polygon fill="black" stroke="black" points="1539.16,-167.489 1549.08,-163.777 1539.01,-160.49 1539.16,-167.489"/>
</g>
<!-- rx.algorithm.any&#45;&gt;rx.observable -->
<g id="edge29" class="edge"><title>rx.algorithm.any&#45;&gt;rx.observable</title>
<path fill="none" stroke="black" d="M669.877,-293.033C679.481,-291.054 689.518,-289.245 699,-288 907.072,-260.673 1552.54,-242.208 1766.39,-236.711"/>
<polygon fill="black" stroke="black" points="1766.64,-240.206 1776.54,-236.451 1766.46,-233.208 1766.64,-240.206"/>
</g>
<!-- rx.algorithm.any&#45;&gt;rx.observer -->
<g id="edge30" class="edge"><title>rx.algorithm.any&#45;&gt;rx.observer</title>
<path fill="none" stroke="black" d="M670.794,-293.399C680.135,-291.436 689.842,-289.538 699,-288 832.74,-265.534 868.467,-275.666 1002,-252 1070.36,-239.885 1085.35,-226.311 1154,-216 1190.73,-210.483 1718.29,-177.864 1900.02,-166.726"/>
<polygon fill="black" stroke="black" points="1900.44,-170.207 1910.2,-166.101 1900.01,-163.22 1900.44,-170.207"/>
</g>
<!-- rx.algorithm.any&#45;&gt;rx.util -->
<g id="edge31" class="edge"><title>rx.algorithm.any&#45;&gt;rx.util</title>
<path fill="none" stroke="black" d="M551.734,-304.054C464.77,-301.228 322.944,-290.639 290,-252 279.619,-239.825 279.677,-228.224 290,-216 353.683,-140.592 1076.32,-101.532 1257.83,-92.8693"/>
<polygon fill="black" stroke="black" points="1258.2,-96.3558 1268.03,-92.3877 1257.87,-89.3636 1258.2,-96.3558"/>
</g>
<!-- rx.algorithm.any&#45;&gt;std.functional -->
<g id="edge32" class="edge"><title>rx.algorithm.any&#45;&gt;std.functional</title>
<path fill="none" stroke="black" d="M632.043,-288.043C645.665,-268.309 670.543,-235.895 699,-216 723.927,-198.572 755.363,-185.88 781.832,-177.293"/>
<polygon fill="black" stroke="black" points="783.212,-180.529 791.71,-174.202 781.121,-173.848 783.212,-180.529"/>
</g>
<!-- rx.algorithm.any&#45;&gt;std.range -->
<g id="edge33" class="edge"><title>rx.algorithm.any&#45;&gt;std.range</title>
<path fill="none" stroke="black" d="M623.448,-287.749C629.428,-252.982 648.355,-175.16 701,-144 748.218,-116.052 1633.28,-112.052 1688,-108 1721.52,-105.518 1759.05,-101.334 1788.43,-97.7386"/>
<polygon fill="black" stroke="black" points="1788.97,-101.199 1798.47,-96.495 1788.11,-94.2517 1788.97,-101.199"/>
</g>
<!-- rx.algorithm.buffer&#45;&gt;rx.disposable -->
<g id="edge34" class="edge"><title>rx.algorithm.buffer&#45;&gt;rx.disposable</title>
<path fill="none" stroke="black" d="M2694.46,-287.71C2693.97,-267.014 2689.63,-233.022 2668,-216 2634.43,-189.586 1942.65,-182.246 1900,-180 1823.72,-175.984 1736.23,-170.794 1677.27,-167.211"/>
<polygon fill="black" stroke="black" points="1677.16,-163.697 1666.96,-166.583 1676.73,-170.685 1677.16,-163.697"/>
</g>
<!-- rx.algorithm.buffer&#45;&gt;rx.observable -->
<g id="edge35" class="edge"><title>rx.algorithm.buffer&#45;&gt;rx.observable</title>
<path fill="none" stroke="black" d="M2627.03,-296.482C2602.79,-293.56 2575.18,-290.42 2550,-288 2313.28,-265.252 2031.6,-246.904 1904.37,-239.084"/>
<polygon fill="black" stroke="black" points="1904.58,-235.59 1894.38,-238.472 1904.15,-242.577 1904.58,-235.59"/>
</g>
<!-- rx.algorithm.buffer&#45;&gt;rx.observer -->
<g id="edge36" class="edge"><title>rx.algorithm.buffer&#45;&gt;rx.observer</title>
<path fill="none" stroke="black" d="M2703.44,-287.83C2712.98,-267.892 2723.96,-235.281 2706,-216 2682.82,-191.114 2197.18,-171.418 2022.72,-165.122"/>
<polygon fill="black" stroke="black" points="2022.79,-161.623 2012.67,-164.762 2022.54,-168.618 2022.79,-161.623"/>
</g>
<!-- rx.algorithm.buffer&#45;&gt;std.range -->
<g id="edge37" class="edge"><title>rx.algorithm.buffer&#45;&gt;std.range</title>
<path fill="none" stroke="black" d="M2685.31,-287.813C2675.09,-268.742 2656.73,-237.788 2635,-216 2594.26,-175.155 2581.72,-162.279 2527,-144 2393.37,-99.3577 2032.59,-133.349 1894,-108 1890.03,-107.275 1885.95,-106.345 1881.9,-105.296"/>
<polygon fill="black" stroke="black" points="1882.51,-101.833 1871.94,-102.489 1880.61,-108.571 1882.51,-101.833"/>
</g>
<!-- rx.algorithm.combineLatest&#45;&gt;rx.disposable -->
<g id="edge38" class="edge"><title>rx.algorithm.combineLatest&#45;&gt;rx.disposable</title>
<path fill="none" stroke="black" d="M2426.71,-287.803C2420.48,-266.866 2406.77,-232.289 2381,-216 2373.59,-211.314 1864.18,-178.982 1677.01,-167.245"/>
<polygon fill="black" stroke="black" points="1677.21,-163.751 1667.01,-166.618 1676.77,-170.737 1677.21,-163.751"/>
</g>
<!-- rx.algorithm.combineLatest&#45;&gt;rx.observable -->
<g id="edge39" class="edge"><title>rx.algorithm.combineLatest&#45;&gt;rx.observable</title>
<path fill="none" stroke="black" d="M2349.73,-293.872C2334.54,-291.863 2318.79,-289.827 2304,-288 2160.61,-270.286 1992.21,-251.776 1901.64,-242.008"/>
<polygon fill="black" stroke="black" points="1901.83,-238.509 1891.52,-240.918 1901.08,-245.469 1901.83,-238.509"/>
</g>
<!-- rx.algorithm.combineLatest&#45;&gt;rx.observer -->
<g id="edge40" class="edge"><title>rx.algorithm.combineLatest&#45;&gt;rx.observer</title>
<path fill="none" stroke="black" d="M2502.16,-292.249C2561.68,-278.615 2631.71,-253.72 2597,-216 2558.63,-174.305 2175.53,-165.403 2023.09,-163.509"/>
<polygon fill="black" stroke="black" points="2023,-160.008 2012.96,-163.39 2022.91,-167.008 2023,-160.008"/>
</g>
<!-- rx.algorithm.combineLatest&#45;&gt;rx.util -->
<g id="edge41" class="edge"><title>rx.algorithm.combineLatest&#45;&gt;rx.util</title>
<path fill="none" stroke="black" d="M2432.21,-287.695C2432.6,-267.626 2429.96,-234.89 2411,-216 2305.89,-111.272 2232.05,-163.836 2085,-144 1772.75,-101.879 1689.3,-149.687 1377,-108 1363.78,-106.235 1349.47,-103.393 1336.76,-100.534"/>
<polygon fill="black" stroke="black" points="1337.5,-97.1125 1326.96,-98.2584 1335.91,-103.931 1337.5,-97.1125"/>
</g>
<!-- std.meta -->
<g id="node37" class="node"><title>std.meta</title>
<ellipse fill="none" stroke="black" cx="2546" cy="-234" rx="41.6928" ry="18"/>
<text text-anchor="middle" x="2546" y="-230.3" font-family="Times New Roman,serif" font-size="14.00">std.meta</text>
</g>
<!-- rx.algorithm.combineLatest&#45;&gt;std.meta -->
<g id="edge42" class="edge"><title>rx.algorithm.combineLatest&#45;&gt;std.meta</title>
<path fill="none" stroke="black" d="M2458.25,-288.411C2475,-278.22 2496.52,-265.118 2514.06,-254.442"/>
<polygon fill="black" stroke="black" points="2516.1,-257.297 2522.82,-249.108 2512.46,-251.317 2516.1,-257.297"/>
</g>
<!-- rx.algorithm.combineLatest&#45;&gt;std.range -->
<g id="edge43" class="edge"><title>rx.algorithm.combineLatest&#45;&gt;std.range</title>
<path fill="none" stroke="black" d="M2513.5,-294.073C2577.4,-282.112 2649.8,-258.678 2616,-216 2515.28,-88.8262 2053.13,-139.539 1894,-108 1890.1,-107.227 1886.08,-106.273 1882.08,-105.215"/>
<polygon fill="black" stroke="black" points="1882.83,-101.79 1872.25,-102.416 1880.91,-108.522 1882.83,-101.79"/>
</g>
<!-- std.typecons -->
<g id="node40" class="node"><title>std.typecons</title>
<ellipse fill="none" stroke="black" cx="2314" cy="-234" rx="57.6901" ry="18"/>
<text text-anchor="middle" x="2314" y="-230.3" font-family="Times New Roman,serif" font-size="14.00">std.typecons</text>
</g>
<!-- rx.algorithm.combineLatest&#45;&gt;std.typecons -->
<g id="edge44" class="edge"><title>rx.algorithm.combineLatest&#45;&gt;std.typecons</title>
<path fill="none" stroke="black" d="M2403.27,-288.411C2386.81,-278.564 2365.81,-266 2348.32,-255.532"/>
<polygon fill="black" stroke="black" points="2349.91,-252.405 2339.53,-250.274 2346.31,-258.412 2349.91,-252.405"/>
</g>
<!-- rx.algorithm.debounce&#45;&gt;core.thread -->
<g id="edge45" class="edge"><title>rx.algorithm.debounce&#45;&gt;core.thread</title>
<path fill="none" stroke="black" d="M3315.39,-360.828C3334.01,-350.482 3358.55,-336.672 3380,-324 3418.76,-301.109 3462.68,-273.753 3491.72,-255.467"/>
<polygon fill="black" stroke="black" points="3493.64,-258.394 3500.23,-250.099 3489.9,-252.474 3493.64,-258.394"/>
</g>
<!-- rx.algorithm.debounce&#45;&gt;core.time -->
<g id="edge46" class="edge"><title>rx.algorithm.debounce&#45;&gt;core.time</title>
<path fill="none" stroke="black" d="M3310.16,-360.497C3323.39,-350.779 3339.57,-337.725 3352,-324 3369.58,-304.587 3385.5,-279.325 3396.2,-260.677"/>
<polygon fill="black" stroke="black" points="3399.31,-262.284 3401.15,-251.851 3393.21,-258.857 3399.31,-262.284"/>
</g>
<!-- rx.algorithm.debounce&#45;&gt;rx.disposable -->
<g id="edge47" class="edge"><title>rx.algorithm.debounce&#45;&gt;rx.disposable</title>
<path fill="none" stroke="black" d="M3199.39,-371.705C3018.5,-360.453 2616.4,-334.347 2606,-324 2571.85,-290.033 2631.59,-249.518 2597,-216 2569.15,-189.018 1938.72,-182.131 1900,-180 1823.73,-175.803 1736.24,-170.645 1677.27,-167.119"/>
<polygon fill="black" stroke="black" points="1677.16,-163.606 1666.97,-166.502 1676.74,-170.593 1677.16,-163.606"/>
</g>
<!-- rx.algorithm.debounce&#45;&gt;rx.observable -->
<g id="edge48" class="edge"><title>rx.algorithm.debounce&#45;&gt;rx.observable</title>
<path fill="none" stroke="black" d="M3199.11,-371.896C3135.87,-368.282 3048.14,-363.478 2971,-360 2860.6,-355.022 2080.17,-363.615 1977,-324 1953.73,-315.066 1954.62,-301.999 1934,-288 1915.52,-275.453 1893.77,-263.441 1875.46,-254.034"/>
<polygon fill="black" stroke="black" points="1877.01,-250.895 1866.5,-249.499 1873.84,-257.14 1877.01,-250.895"/>
</g>
<!-- rx.algorithm.debounce&#45;&gt;rx.observer -->
<g id="edge49" class="edge"><title>rx.algorithm.debounce&#45;&gt;rx.observer</title>
<path fill="none" stroke="black" d="M3277.04,-359.867C3265.58,-339.651 3243.86,-306.462 3216,-288 3114.62,-220.813 3072.07,-235.357 2952,-216 2771.7,-186.933 2210.44,-169.662 2022.8,-164.583"/>
<polygon fill="black" stroke="black" points="2022.66,-161.078 2012.57,-164.308 2022.47,-168.076 2022.66,-161.078"/>
</g>
<!-- rx.algorithm.debounce&#45;&gt;rx.scheduler -->
<g id="edge50" class="edge"><title>rx.algorithm.debounce&#45;&gt;rx.scheduler</title>
<path fill="none" stroke="black" d="M3346.64,-364.405C3409.56,-351.336 3507.09,-331.077 3567.88,-318.449"/>
<polygon fill="black" stroke="black" points="3568.6,-321.874 3577.68,-316.413 3567.18,-315.02 3568.6,-321.874"/>
</g>
<!-- rx.algorithm.debounce&#45;&gt;std.range -->
<g id="edge51" class="edge"><title>rx.algorithm.debounce&#45;&gt;std.range</title>
<path fill="none" stroke="black" d="M3293.51,-359.737C3306.2,-327.611 3327.39,-258.098 3294,-216 3206.64,-105.861 3125.37,-162.405 2986,-144 2504.58,-80.4247 2372.68,-189.663 1894,-108 1890.03,-107.322 1885.94,-106.425 1881.88,-105.396"/>
<polygon fill="black" stroke="black" points="1882.49,-101.933 1871.91,-102.618 1880.61,-108.675 1882.49,-101.933"/>
</g>
<!-- rx.algorithm.filter&#45;&gt;rx.disposable -->
<g id="edge52" class="edge"><title>rx.algorithm.filter&#45;&gt;rx.disposable</title>
<path fill="none" stroke="black" d="M971.199,-290.629C1024.89,-270.967 1126.06,-235.861 1215,-216 1328.3,-190.699 1462.8,-175.765 1541.73,-168.498"/>
<polygon fill="black" stroke="black" points="1542.38,-171.954 1552.02,-167.565 1541.75,-164.983 1542.38,-171.954"/>
</g>
<!-- rx.algorithm.filter&#45;&gt;rx.observable -->
<g id="edge53" class="edge"><title>rx.algorithm.filter&#45;&gt;rx.observable</title>
<path fill="none" stroke="black" d="M984.427,-293.192C994.519,-291.199 1005.06,-289.345 1015,-288 1291.52,-250.598 1624.12,-239.416 1766.17,-236.217"/>
<polygon fill="black" stroke="black" points="1766.56,-239.709 1776.48,-235.991 1766.4,-232.711 1766.56,-239.709"/>
</g>
<!-- rx.algorithm.filter&#45;&gt;rx.observer -->
<g id="edge54" class="edge"><title>rx.algorithm.filter&#45;&gt;rx.observer</title>
<path fill="none" stroke="black" d="M986.807,-293.815C996.203,-291.87 1005.89,-289.872 1015,-288 1093.64,-271.852 1114.6,-273.292 1192,-252 1238.76,-239.138 1247.55,-226.006 1295,-216 1353.28,-203.71 1746.8,-177.021 1900.07,-166.952"/>
<polygon fill="black" stroke="black" points="1900.5,-170.432 1910.25,-166.285 1900.04,-163.447 1900.5,-170.432"/>
</g>
<!-- rx.algorithm.filter&#45;&gt;rx.util -->
<g id="edge55" class="edge"><title>rx.algorithm.filter&#45;&gt;rx.util</title>
<path fill="none" stroke="black" d="M883.496,-292.636C844.843,-282.128 795.221,-266.487 780,-252 743.999,-217.736 717.591,-180.796 751,-144 784.947,-106.611 1136.32,-94.8337 1257.89,-91.8625"/>
<polygon fill="black" stroke="black" points="1258,-95.3608 1267.92,-91.6247 1257.84,-88.3628 1258,-95.3608"/>
</g>
<!-- rx.algorithm.filter&#45;&gt;std.functional -->
<g id="edge56" class="edge"><title>rx.algorithm.filter&#45;&gt;std.functional</title>
<path fill="none" stroke="black" d="M880.996,-293.381C858.83,-285.577 835.1,-272.772 822,-252 810.259,-233.384 815.655,-208.344 822.896,-189.566"/>
<polygon fill="black" stroke="black" points="826.218,-190.696 826.89,-180.123 819.771,-187.969 826.218,-190.696"/>
</g>
<!-- rx.algorithm.filter&#45;&gt;std.range -->
<g id="edge57" class="edge"><title>rx.algorithm.filter&#45;&gt;std.range</title>
<path fill="none" stroke="black" d="M886.535,-291.984C862.347,-283.502 833.433,-270.516 812,-252 772.651,-218.005 730.956,-181.481 767,-144 802.494,-107.092 1636.94,-111.848 1688,-108 1721.52,-105.474 1759.05,-101.29 1788.43,-97.705"/>
<polygon fill="black" stroke="black" points="1788.97,-101.165 1798.46,-96.4656 1788.11,-94.218 1788.97,-101.165"/>
</g>
<!-- rx.algorithm.fold&#45;&gt;rx.disposable -->
<g id="edge58" class="edge"><title>rx.algorithm.fold&#45;&gt;rx.disposable</title>
<path fill="none" stroke="black" d="M1607.24,-287.871C1607.58,-263.67 1608.21,-219.211 1608.61,-190.393"/>
<polygon fill="black" stroke="black" points="1612.12,-190.238 1608.76,-180.189 1605.12,-190.139 1612.12,-190.238"/>
</g>
<!-- rx.algorithm.fold&#45;&gt;rx.observable -->
<g id="edge59" class="edge"><title>rx.algorithm.fold&#45;&gt;rx.observable</title>
<path fill="none" stroke="black" d="M1650.61,-291.669C1689.22,-279.869 1745.54,-262.651 1785.97,-250.294"/>
<polygon fill="black" stroke="black" points="1787.08,-253.613 1795.62,-247.343 1785.04,-246.919 1787.08,-253.613"/>
</g>
<!-- rx.algorithm.fold&#45;&gt;rx.observer -->
<g id="edge60" class="edge"><title>rx.algorithm.fold&#45;&gt;rx.observer</title>
<path fill="none" stroke="black" d="M1631.29,-289.039C1661.87,-269.53 1716.52,-236.582 1767,-216 1812.95,-197.264 1867.68,-182.996 1907.27,-174.009"/>
<polygon fill="black" stroke="black" points="1908.25,-177.376 1917.25,-171.783 1906.73,-170.544 1908.25,-177.376"/>
</g>
<!-- rx.algorithm.groupby&#45;&gt;rx.disposable -->
<g id="edge61" class="edge"><title>rx.algorithm.groupby&#45;&gt;rx.disposable</title>
<path fill="none" stroke="black" d="M471.218,-360.371C482.324,-350.084 496.7,-336.498 509,-324 524.225,-308.53 523.599,-299.511 542,-288 637.133,-228.487 673.532,-235.722 784,-216 1060.2,-166.691 1395.64,-161.783 1538.79,-162.218"/>
<polygon fill="black" stroke="black" points="1539.16,-165.72 1549.17,-162.261 1539.19,-158.72 1539.16,-165.72"/>
</g>
<!-- rx.algorithm.groupby&#45;&gt;rx.observable -->
<g id="edge62" class="edge"><title>rx.algorithm.groupby&#45;&gt;rx.observable</title>
<path fill="none" stroke="black" d="M540.062,-377.014C840.357,-376.641 1817.01,-371.749 1863,-324 1879.51,-306.855 1868.05,-279.942 1855.36,-260.197"/>
<polygon fill="black" stroke="black" points="1858.08,-257.966 1849.54,-251.69 1852.3,-261.919 1858.08,-257.966"/>
</g>
<!-- rx.algorithm.groupby&#45;&gt;rx.observer -->
<g id="edge63" class="edge"><title>rx.algorithm.groupby&#45;&gt;rx.observer</title>
<path fill="none" stroke="black" d="M539.949,-375.993C773.554,-372.803 1402.97,-360.856 1489,-324 1510.38,-314.839 1507.41,-300.543 1527,-288 1563.28,-264.772 1577.6,-269.435 1617,-252 1650.45,-237.199 1656.32,-227.62 1691,-216 1761.78,-192.283 1846.76,-177.772 1902.23,-170.065"/>
<polygon fill="black" stroke="black" points="1902.79,-173.52 1912.23,-168.705 1901.85,-166.584 1902.79,-173.52"/>
</g>
<!-- rx.algorithm.groupby&#45;&gt;rx.subject -->
<g id="edge64" class="edge"><title>rx.algorithm.groupby&#45;&gt;rx.subject</title>
<path fill="none" stroke="black" d="M412.858,-361.811C382.364,-350.273 340.551,-334.452 309.685,-322.773"/>
<polygon fill="black" stroke="black" points="310.668,-319.402 300.076,-319.137 308.19,-325.949 310.668,-319.402"/>
</g>
<!-- rx.algorithm.groupby&#45;&gt;rx.util -->
<g id="edge65" class="edge"><title>rx.algorithm.groupby&#45;&gt;rx.util</title>
<path fill="none" stroke="black" d="M375.792,-369.581C327.116,-362.619 264.042,-349.293 213,-324 168.639,-302.018 148.819,-296.919 128,-252 106.205,-204.975 127.402,-170.408 172,-144 266.804,-87.8625 1065.52,-89.4627 1257.59,-90.6737"/>
<polygon fill="black" stroke="black" points="1257.8,-94.175 1267.82,-90.7415 1257.84,-87.1752 1257.8,-94.175"/>
</g>
<!-- rx.algorithm.groupby&#45;&gt;std.functional -->
<g id="edge66" class="edge"><title>rx.algorithm.groupby&#45;&gt;std.functional</title>
<path fill="none" stroke="black" d="M460.198,-359.928C469.166,-340.385 486.139,-308.445 509,-288 585.213,-219.843 702.469,-187.285 773.915,-172.97"/>
<polygon fill="black" stroke="black" points="774.965,-176.332 784.114,-170.989 773.63,-169.46 774.965,-176.332"/>
</g>
<!-- rx.algorithm.groupby&#45;&gt;std.range -->
<g id="edge67" class="edge"><title>rx.algorithm.groupby&#45;&gt;std.range</title>
<path fill="none" stroke="black" d="M454.373,-359.946C456.593,-340.994 462.329,-310.147 477,-288 534.349,-201.428 563.435,-179.563 661,-144 768.277,-104.897 1574.12,-116.352 1688,-108 1721.52,-105.542 1759.05,-101.358 1788.43,-97.7568"/>
<polygon fill="black" stroke="black" points="1788.98,-101.217 1798.47,-96.5109 1788.11,-94.27 1788.98,-101.217"/>
</g>
<!-- rx.algorithm.map&#45;&gt;rx.disposable -->
<g id="edge68" class="edge"><title>rx.algorithm.map&#45;&gt;rx.disposable</title>
<path fill="none" stroke="black" d="M2194.54,-289.456C2151.98,-266.461 2073.48,-225.107 2043,-216 1918.12,-178.686 1765.52,-167.584 1678.56,-164.318"/>
<polygon fill="black" stroke="black" points="1678.67,-160.819 1668.55,-163.966 1678.42,-167.815 1678.67,-160.819"/>
</g>
<!-- rx.algorithm.map&#45;&gt;rx.observable -->
<g id="edge69" class="edge"><title>rx.algorithm.map&#45;&gt;rx.observable</title>
<path fill="none" stroke="black" d="M2170.14,-293.638C2160.46,-291.673 2150.44,-289.713 2141,-288 2038.76,-269.448 2012.03,-271.645 1910,-252 1903.88,-250.822 1897.5,-249.5 1891.17,-248.127"/>
<polygon fill="black" stroke="black" points="1891.81,-244.685 1881.29,-245.941 1890.3,-251.519 1891.81,-244.685"/>
</g>
<!-- rx.algorithm.map&#45;&gt;rx.observer -->
<g id="edge70" class="edge"><title>rx.algorithm.map&#45;&gt;rx.observer</title>
<path fill="none" stroke="black" d="M2209.26,-288.193C2192.16,-268.298 2161.15,-235.425 2128,-216 2093.01,-195.494 2049.16,-181.971 2015.18,-173.72"/>
<polygon fill="black" stroke="black" points="2015.96,-170.307 2005.42,-171.429 2014.36,-177.122 2015.96,-170.307"/>
</g>
<!-- rx.algorithm.map&#45;&gt;rx.util -->
<g id="edge71" class="edge"><title>rx.algorithm.map&#45;&gt;rx.util</title>
<path fill="none" stroke="black" d="M2215.34,-288.004C2205.85,-268.532 2188.09,-236.659 2165,-216 2111.97,-168.556 2090.75,-162.369 2022,-144 1744.62,-69.8841 1661.49,-146.692 1377,-108 1363.78,-106.202 1349.47,-103.352 1336.77,-100.496"/>
<polygon fill="black" stroke="black" points="1337.5,-97.074 1326.97,-98.2242 1335.92,-103.893 1337.5,-97.074"/>
</g>
<!-- rx.algorithm.map&#45;&gt;std.functional -->
<g id="edge72" class="edge"><title>rx.algorithm.map&#45;&gt;std.functional</title>
<path fill="none" stroke="black" d="M2177.51,-291.98C2092.91,-267.806 1918.67,-218.223 1905,-216 1711.56,-184.541 1111.11,-168.941 905.722,-164.424"/>
<polygon fill="black" stroke="black" points="905.736,-160.924 895.662,-164.205 905.583,-167.922 905.736,-160.924"/>
</g>
<!-- rx.algorithm.map&#45;&gt;std.range -->
<g id="edge73" class="edge"><title>rx.algorithm.map&#45;&gt;std.range</title>
<path fill="none" stroke="black" d="M2276.96,-293.941C2317.64,-284.379 2368.5,-269.381 2381,-252 2390.34,-239.011 2389.31,-229.67 2381,-216 2344.85,-156.557 2308.66,-163.929 2242,-144 2093.02,-99.4612 2046.27,-139.506 1894,-108 1890.1,-107.194 1886.09,-106.218 1882.1,-105.146"/>
<polygon fill="black" stroke="black" points="1882.85,-101.721 1872.27,-102.325 1880.92,-108.449 1882.85,-101.721"/>
</g>
<!-- rx.algorithm.merge&#45;&gt;rx.disposable -->
<g id="edge74" class="edge"><title>rx.algorithm.merge&#45;&gt;rx.disposable</title>
<path fill="none" stroke="black" d="M1748.06,-288.87C1732.31,-278.976 1712.38,-265.625 1696,-252 1671.87,-231.93 1647.12,-205.983 1630.21,-187.29"/>
<polygon fill="black" stroke="black" points="1632.75,-184.878 1623.47,-179.761 1627.53,-189.546 1632.75,-184.878"/>
</g>
<!-- rx.algorithm.merge&#45;&gt;rx.observable -->
<g id="edge75" class="edge"><title>rx.algorithm.merge&#45;&gt;rx.observable</title>
<path fill="none" stroke="black" d="M1789.77,-288.055C1797.26,-279.457 1806.5,-268.857 1814.74,-259.397"/>
<polygon fill="black" stroke="black" points="1817.44,-261.628 1821.37,-251.789 1812.16,-257.029 1817.44,-261.628"/>
</g>
<!-- rx.algorithm.merge&#45;&gt;rx.observer -->
<g id="edge76" class="edge"><title>rx.algorithm.merge&#45;&gt;rx.observer</title>
<path fill="none" stroke="black" d="M1826.16,-292.246C1851.88,-283.94 1882.32,-271.035 1905,-252 1925.22,-235.035 1940.46,-208.846 1949.9,-189.263"/>
<polygon fill="black" stroke="black" points="1953.17,-190.526 1954.18,-179.979 1946.81,-187.593 1953.17,-190.526"/>
</g>
<!-- rx.algorithm.merge&#45;&gt;rx.util -->
<g id="edge77" class="edge"><title>rx.algorithm.merge&#45;&gt;rx.util</title>
<path fill="none" stroke="black" d="M1733.62,-290.596C1672.54,-268.898 1555.12,-225.503 1459,-180 1412.19,-157.842 1360.16,-127.841 1328.51,-108.954"/>
<polygon fill="black" stroke="black" points="1330.14,-105.847 1319.76,-103.704 1326.54,-111.85 1330.14,-105.847"/>
</g>
<!-- rx.algorithm.merge&#45;&gt;std.range -->
<g id="edge78" class="edge"><title>rx.algorithm.merge&#45;&gt;std.range</title>
<path fill="none" stroke="black" d="M1769.98,-287.961C1765.44,-269.816 1760.39,-240.409 1767,-216 1777.29,-177.975 1802.35,-139.651 1820.23,-115.651"/>
<polygon fill="black" stroke="black" points="1823.18,-117.559 1826.45,-107.483 1817.61,-113.316 1823.18,-117.559"/>
</g>
<!-- rx.algorithm.scan&#45;&gt;rx.disposable -->
<g id="edge79" class="edge"><title>rx.algorithm.scan&#45;&gt;rx.disposable</title>
<path fill="none" stroke="black" d="M2055.4,-287.741C2050.12,-267.076 2038.16,-233.116 2014,-216 1961.49,-178.795 1779.83,-167.704 1678.57,-164.4"/>
<polygon fill="black" stroke="black" points="1678.53,-160.898 1668.43,-164.087 1678.31,-167.894 1678.53,-160.898"/>
</g>
<!-- rx.algorithm.scan&#45;&gt;rx.observable -->
<g id="edge80" class="edge"><title>rx.algorithm.scan&#45;&gt;rx.observable</title>
<path fill="none" stroke="black" d="M2015.74,-291.42C1978.37,-279.692 1924.4,-262.748 1885.36,-250.493"/>
<polygon fill="black" stroke="black" points="1886.36,-247.14 1875.77,-247.484 1884.26,-253.819 1886.36,-247.14"/>
</g>
<!-- rx.algorithm.scan&#45;&gt;rx.observer -->
<g id="edge81" class="edge"><title>rx.algorithm.scan&#45;&gt;rx.observer</title>
<path fill="none" stroke="black" d="M2062.09,-287.812C2064.57,-268.74 2065.69,-237.786 2052,-216 2041.58,-199.411 2023.94,-187.424 2006.95,-179.092"/>
<polygon fill="black" stroke="black" points="2008.17,-175.805 1997.62,-174.834 2005.27,-182.172 2008.17,-175.805"/>
</g>
<!-- rx.algorithm.scan&#45;&gt;rx.util -->
<g id="edge82" class="edge"><title>rx.algorithm.scan&#45;&gt;rx.util</title>
<path fill="none" stroke="black" d="M2037.47,-288.519C2008.91,-267.655 1956.15,-232.451 1905,-216 1749.82,-166.091 1690.29,-243.128 1540,-180 1517.02,-170.348 1519.28,-155.172 1497,-144 1434.94,-112.882 1411.46,-128.07 1345,-108 1341.36,-106.902 1337.6,-105.67 1333.86,-104.384"/>
<polygon fill="black" stroke="black" points="1334.72,-100.975 1324.12,-100.91 1332.36,-107.568 1334.72,-100.975"/>
</g>
<!-- rx.algorithm.scan&#45;&gt;std.functional -->
<g id="edge83" class="edge"><title>rx.algorithm.scan&#45;&gt;std.functional</title>
<path fill="none" stroke="black" d="M1994.11,-297.466C1782.27,-272.87 1112.44,-195.097 900.772,-170.52"/>
<polygon fill="black" stroke="black" points="901.082,-167.033 890.745,-169.356 900.274,-173.986 901.082,-167.033"/>
</g>
<!-- rx.algorithm.scan&#45;&gt;std.range -->
<g id="edge84" class="edge"><title>rx.algorithm.scan&#45;&gt;std.range</title>
<path fill="none" stroke="black" d="M2065.91,-287.914C2072.26,-269.73 2079.61,-240.29 2072,-216 2060.36,-178.821 2053.73,-166.605 2022,-144 1973.87,-109.712 1950.64,-124.875 1894,-108 1890.5,-106.956 1886.87,-105.857 1883.24,-104.741"/>
<polygon fill="black" stroke="black" points="1884.24,-101.388 1873.65,-101.771 1882.17,-108.074 1884.24,-101.388"/>
</g>
<!-- rx.algorithm.scan&#45;&gt;std.typecons -->
<g id="edge85" class="edge"><title>rx.algorithm.scan&#45;&gt;std.typecons</title>
<path fill="none" stroke="black" d="M2106.07,-292.079C2150.31,-279.934 2216.39,-261.794 2262.14,-249.237"/>
<polygon fill="black" stroke="black" points="2263.14,-252.59 2271.86,-246.568 2261.29,-245.84 2263.14,-252.59"/>
</g>
<!-- rx.algorithm.tee&#45;&gt;rx.disposable -->
<g id="edge86" class="edge"><title>rx.algorithm.tee&#45;&gt;rx.disposable</title>
<path fill="none" stroke="black" d="M814.22,-291.335C872.673,-271.529 986.452,-235.131 1086,-216 1246.95,-185.07 1439.45,-171.453 1540.04,-166.08"/>
<polygon fill="black" stroke="black" points="1540.27,-169.573 1550.07,-165.555 1539.9,-162.583 1540.27,-169.573"/>
</g>
<!-- rx.algorithm.tee&#45;&gt;rx.observable -->
<g id="edge87" class="edge"><title>rx.algorithm.tee&#45;&gt;rx.observable</title>
<path fill="none" stroke="black" d="M822.212,-293.164C831.693,-291.148 841.624,-289.292 851,-288 1191.52,-241.086 1603.59,-235.157 1765.68,-234.784"/>
<polygon fill="black" stroke="black" points="1765.99,-238.284 1775.99,-234.767 1765.98,-231.284 1765.99,-238.284"/>
</g>
<!-- rx.algorithm.tee&#45;&gt;rx.observer -->
<g id="edge88" class="edge"><title>rx.algorithm.tee&#45;&gt;rx.observer</title>
<path fill="none" stroke="black" d="M823.099,-293.465C832.327,-291.473 841.937,-289.548 851,-288 984.678,-265.169 1031.21,-309.557 1154,-252 1175.07,-242.126 1170.7,-225.35 1192,-216 1208.18,-208.898 1721.42,-177.42 1900.26,-166.638"/>
<polygon fill="black" stroke="black" points="1900.52,-170.129 1910.3,-166.034 1900.1,-163.141 1900.52,-170.129"/>
</g>
<!-- rx.algorithm.tee&#45;&gt;rx.util -->
<g id="edge89" class="edge"><title>rx.algorithm.tee&#45;&gt;rx.util</title>
<path fill="none" stroke="black" d="M761.638,-288.047C737.934,-255.825 694.399,-185.279 732,-144 767.257,-105.294 1132.37,-94.3549 1257.33,-91.7322"/>
<polygon fill="black" stroke="black" points="1257.7,-95.2255 1267.63,-91.5236 1257.56,-88.2269 1257.7,-95.2255"/>
</g>
<!-- rx.algorithm.tee&#45;&gt;std.functional -->
<g id="edge90" class="edge"><title>rx.algorithm.tee&#45;&gt;std.functional</title>
<path fill="none" stroke="black" d="M745.277,-289.805C731.214,-280.877 715.818,-268.153 708,-252 701.029,-237.598 699.11,-229.303 708,-216 722.806,-193.844 748.771,-180.939 773.463,-173.427"/>
<polygon fill="black" stroke="black" points="774.508,-176.769 783.2,-170.711 772.627,-170.026 774.508,-176.769"/>
</g>
<!-- rx.algorithm.tee&#45;&gt;std.range -->
<g id="edge91" class="edge"><title>rx.algorithm.tee&#45;&gt;std.range</title>
<path fill="none" stroke="black" d="M740.607,-290.291C724.9,-281.617 707.855,-268.971 699,-252 674.444,-204.938 703.325,-169.283 750,-144 841.709,-94.3235 1583.99,-115.802 1688,-108 1721.52,-105.486 1759.05,-101.302 1788.43,-97.7141"/>
<polygon fill="black" stroke="black" points="1788.97,-101.174 1798.46,-96.4736 1788.11,-94.2272 1788.97,-101.174"/>
</g>
<!-- rx.algorithm.uniq&#45;&gt;rx.disposable -->
<g id="edge92" class="edge"><title>rx.algorithm.uniq&#45;&gt;rx.disposable</title>
<path fill="none" stroke="black" d="M1127.85,-289.772C1170.16,-270.106 1247.66,-236.03 1317,-216 1393.74,-193.834 1484.62,-179.078 1544.37,-170.886"/>
<polygon fill="black" stroke="black" points="1544.98,-174.336 1554.42,-169.53 1544.04,-167.399 1544.98,-174.336"/>
</g>
<!-- rx.algorithm.uniq&#45;&gt;rx.observable -->
<g id="edge93" class="edge"><title>rx.algorithm.uniq&#45;&gt;rx.observable</title>
<path fill="none" stroke="black" d="M1147.25,-293.223C1157.08,-291.253 1167.33,-289.398 1177,-288 1390.86,-257.084 1646.57,-242.976 1766.92,-237.675"/>
<polygon fill="black" stroke="black" points="1767.26,-241.164 1777.09,-237.234 1766.95,-234.17 1767.26,-241.164"/>
</g>
<!-- rx.algorithm.uniq&#45;&gt;rx.observer -->
<g id="edge94" class="edge"><title>rx.algorithm.uniq&#45;&gt;rx.observer</title>
<path fill="none" stroke="black" d="M1141.01,-291.833C1209.06,-272.407 1342.45,-236.196 1458,-216 1616.15,-188.359 1804.98,-173.166 1899.99,-166.739"/>
<polygon fill="black" stroke="black" points="1900.25,-170.23 1909.99,-166.072 1899.78,-163.245 1900.25,-170.23"/>
</g>
<!-- rx.algorithm.uniq&#45;&gt;rx.util -->
<g id="edge95" class="edge"><title>rx.algorithm.uniq&#45;&gt;rx.util</title>
<path fill="none" stroke="black" d="M1042.85,-293.796C1033.57,-291.854 1024.01,-289.861 1015,-288 936.383,-271.755 908.583,-290.242 838,-252 787.493,-224.636 728.447,-186.584 767,-144 799.767,-107.807 1138.03,-95.3057 1257.49,-92.0007"/>
<polygon fill="black" stroke="black" points="1257.8,-95.4939 1267.7,-91.7262 1257.61,-88.4964 1257.8,-95.4939"/>
</g>
<!-- rx.algorithm.uniq&#45;&gt;std.functional -->
<g id="edge96" class="edge"><title>rx.algorithm.uniq&#45;&gt;std.functional</title>
<path fill="none" stroke="black" d="M1042.82,-293.768C974.259,-279.184 863.344,-255.205 860,-252 843.351,-236.043 837.841,-209.851 836.205,-190.002"/>
<polygon fill="black" stroke="black" points="839.699,-189.803 835.656,-180.01 832.71,-190.187 839.699,-189.803"/>
</g>
<!-- rx.algorithm.uniq&#45;&gt;std.range -->
<g id="edge97" class="edge"><title>rx.algorithm.uniq&#45;&gt;std.range</title>
<path fill="none" stroke="black" d="M1118.85,-288.875C1167.43,-255.507 1285.64,-179.072 1397,-144 1406.26,-141.085 1672.62,-110.24 1787.78,-96.9918"/>
<polygon fill="black" stroke="black" points="1788.25,-100.461 1797.79,-95.8415 1787.45,-93.5069 1788.25,-100.461"/>
</g>
<!-- rx.disposable&#45;&gt;core.atomic -->
<g id="edge98" class="edge"><title>rx.disposable&#45;&gt;core.atomic</title>
<path fill="none" stroke="black" d="M1562.82,-150.377C1553.6,-148.261 1543.99,-146.058 1535,-144 1464.79,-127.937 1434.33,-151.593 1377,-108 1356.68,-92.5471 1343.95,-65.9292 1336.75,-45.8186"/>
<polygon fill="black" stroke="black" points="1340.05,-44.6465 1333.57,-36.268 1333.41,-46.8617 1340.05,-44.6465"/>
</g>
<!-- rx.disposable&#45;&gt;core.internal.traits -->
<g id="edge99" class="edge"><title>rx.disposable&#45;&gt;core.internal.traits</title>
<path fill="none" stroke="black" d="M1666.96,-157.341C1725.68,-153.698 1819.13,-148.076 1900,-144 2338.71,-121.886 2864.36,-101.636 3065.8,-94.1052"/>
<polygon fill="black" stroke="black" points="3066.15,-97.5947 3076.01,-93.724 3065.89,-90.5995 3066.15,-97.5947"/>
</g>
<!-- rx.disposable&#45;&gt;core.stdc.string -->
<g id="edge100" class="edge"><title>rx.disposable&#45;&gt;core.stdc.string</title>
<path fill="none" stroke="black" d="M1577.26,-146.666C1553.86,-136.096 1521.78,-121.61 1496.21,-110.064"/>
<polygon fill="black" stroke="black" points="1497.32,-106.724 1486.77,-105.798 1494.44,-113.103 1497.32,-106.724"/>
</g>
<!-- rx.disposable&#45;&gt;core.sync.mutex -->
<g id="edge101" class="edge"><title>rx.disposable&#45;&gt;core.sync.mutex</title>
<path fill="none" stroke="black" d="M1643.48,-147.252C1660.13,-138.649 1678.52,-125.779 1688,-108 1695.53,-93.8822 1696.22,-85.7264 1688,-72 1678.2,-55.6303 1661.42,-44.0305 1644.43,-35.9462"/>
<polygon fill="black" stroke="black" points="1645.58,-32.6275 1635.01,-31.8086 1642.76,-39.036 1645.58,-32.6275"/>
</g>
<!-- rx.disposable&#45;&gt;rx.util -->
<g id="edge102" class="edge"><title>rx.disposable&#45;&gt;rx.util</title>
<path fill="none" stroke="black" d="M1563.27,-150.198C1553.93,-148.075 1544.16,-145.915 1535,-144 1450.44,-126.326 1427.17,-131.353 1344,-108 1340.6,-107.045 1337.1,-105.942 1333.61,-104.766"/>
<polygon fill="black" stroke="black" points="1334.56,-101.388 1323.97,-101.319 1332.21,-107.98 1334.56,-101.388"/>
</g>
<!-- std.concurrency -->
<g id="node34" class="node"><title>std.concurrency</title>
<ellipse fill="none" stroke="black" cx="1609" cy="-90" rx="69.5877" ry="18"/>
<text text-anchor="middle" x="1609" y="-86.3" font-family="Times New Roman,serif" font-size="14.00">std.concurrency</text>
</g>
<!-- rx.disposable&#45;&gt;std.concurrency -->
<g id="edge103" class="edge"><title>rx.disposable&#45;&gt;std.concurrency</title>
<path fill="none" stroke="black" d="M1609,-143.697C1609,-135.983 1609,-126.712 1609,-118.112"/>
<polygon fill="black" stroke="black" points="1612.5,-118.104 1609,-108.104 1605.5,-118.104 1612.5,-118.104"/>
</g>
<!-- rx.observable&#45;&gt;rx.disposable -->
<g id="edge104" class="edge"><title>rx.observable&#45;&gt;rx.disposable</title>
<path fill="none" stroke="black" d="M1795.68,-220.566C1757.54,-208.807 1700.2,-191.122 1659.13,-178.459"/>
<polygon fill="black" stroke="black" points="1659.91,-175.038 1649.33,-175.436 1657.85,-181.727 1659.91,-175.038"/>
</g>
<!-- rx.observable&#45;&gt;rx.observer -->
<g id="edge105" class="edge"><title>rx.observable&#45;&gt;rx.observer</title>
<path fill="none" stroke="black" d="M1863.12,-217.811C1881.55,-207.49 1906.11,-193.741 1926.01,-182.596"/>
<polygon fill="black" stroke="black" points="1927.77,-185.619 1934.79,-177.68 1924.35,-179.512 1927.77,-185.619"/>
</g>
<!-- rx.observable&#45;&gt;rx.util -->
<g id="edge106" class="edge"><title>rx.observable&#45;&gt;rx.util</title>
<path fill="none" stroke="black" d="M1776.6,-231.931C1708.84,-228.815 1595.93,-217.768 1507,-180 1482.46,-169.576 1482.72,-156.188 1459,-144 1411.74,-119.715 1395.27,-125.214 1345,-108 1341.49,-106.798 1337.84,-105.513 1334.21,-104.208"/>
<polygon fill="black" stroke="black" points="1335.3,-100.883 1324.71,-100.75 1332.91,-107.46 1335.3,-100.883"/>
</g>
<!-- rx.observable&#45;&gt;std.functional -->
<g id="edge107" class="edge"><title>rx.observable&#45;&gt;std.functional</title>
<path fill="none" stroke="black" d="M1778.28,-228.96C1604.99,-216.829 1089.8,-180.766 903.872,-167.751"/>
<polygon fill="black" stroke="black" points="903.905,-164.245 893.685,-167.038 903.416,-171.228 903.905,-164.245"/>
</g>
<!-- rx.observable&#45;&gt;std.range -->
<g id="edge108" class="edge"><title>rx.observable&#45;&gt;std.range</title>
<path fill="none" stroke="black" d="M1836.48,-215.871C1837.16,-191.67 1838.42,-147.211 1839.23,-118.393"/>
<polygon fill="black" stroke="black" points="1842.73,-118.284 1839.52,-108.189 1835.74,-118.087 1842.73,-118.284"/>
</g>
<!-- rx.observer&#45;&gt;std.range -->
<g id="edge109" class="edge"><title>rx.observer&#45;&gt;std.range</title>
<path fill="none" stroke="black" d="M1935.34,-146.155C1917.25,-135.692 1892.87,-121.583 1873.28,-110.255"/>
<polygon fill="black" stroke="black" points="1874.79,-107.086 1864.39,-105.108 1871.29,-113.145 1874.79,-107.086"/>
</g>
<!-- std.typetuple -->
<g id="node41" class="node"><title>std.typetuple</title>
<ellipse fill="none" stroke="black" cx="1961" cy="-90" rx="57.6901" ry="18"/>
<text text-anchor="middle" x="1961" y="-86.3" font-family="Times New Roman,serif" font-size="14.00">std.typetuple</text>
</g>
<!-- rx.observer&#45;&gt;std.typetuple -->
<g id="edge110" class="edge"><title>rx.observer&#45;&gt;std.typetuple</title>
<path fill="none" stroke="black" d="M1961,-143.697C1961,-135.983 1961,-126.712 1961,-118.112"/>
<polygon fill="black" stroke="black" points="1964.5,-118.104 1961,-108.104 1957.5,-118.104 1964.5,-118.104"/>
</g>
<!-- rx.range.drop -->
<g id="node27" class="node"><title>rx.range.drop</title>
<ellipse fill="none" stroke="black" cx="3147" cy="-306" rx="59.5901" ry="18"/>
<text text-anchor="middle" x="3147" y="-302.3" font-family="Times New Roman,serif" font-size="14.00">rx.range.drop</text>
</g>
<!-- rx.range&#45;&gt;rx.range.drop -->
<g id="edge111" class="edge"><title>rx.range&#45;&gt;rx.range.drop</title>
<path fill="none" stroke="black" d="M2954.24,-366.971C2991.63,-355.337 3053.71,-336.024 3097.29,-322.466"/>
<polygon fill="black" stroke="black" points="3098.33,-325.807 3106.84,-319.494 3096.25,-319.123 3098.33,-325.807"/>
</g>
<!-- rx.range.take -->
<g id="node28" class="node"><title>rx.range.take</title>
<ellipse fill="none" stroke="black" cx="2848" cy="-306" rx="57.3905" ry="18"/>
<text text-anchor="middle" x="2848" y="-302.3" font-family="Times New Roman,serif" font-size="14.00">rx.range.take</text>
</g>
<!-- rx.range&#45;&gt;rx.range.take -->
<g id="edge112" class="edge"><title>rx.range&#45;&gt;rx.range.take</title>
<path fill="none" stroke="black" d="M2905.58,-361.465C2895.91,-352.325 2883.51,-340.588 2872.69,-330.351"/>
<polygon fill="black" stroke="black" points="2874.82,-327.551 2865.15,-323.222 2870.01,-332.636 2874.82,-327.551"/>
</g>
<!-- rx.range.takeLast -->
<g id="node29" class="node"><title>rx.range.takeLast</title>
<ellipse fill="none" stroke="black" cx="2996" cy="-306" rx="72.5877" ry="18"/>
<text text-anchor="middle" x="2996" y="-302.3" font-family="Times New Roman,serif" font-size="14.00">rx.range.takeLast</text>
</g>
<!-- rx.range&#45;&gt;rx.range.takeLast -->
<g id="edge113" class="edge"><title>rx.range&#45;&gt;rx.range.takeLast</title>
<path fill="none" stroke="black" d="M2938.42,-361.465C2947.95,-352.454 2960.14,-340.92 2970.85,-330.788"/>
<polygon fill="black" stroke="black" points="2973.47,-333.129 2978.33,-323.714 2968.66,-328.043 2973.47,-333.129"/>
</g>
<!-- rx.range.drop&#45;&gt;rx.disposable -->
<g id="edge114" class="edge"><title>rx.range.drop&#45;&gt;rx.disposable</title>
<path fill="none" stroke="black" d="M3102.25,-293.938C3042.23,-279.089 2942.17,-254.294 2934,-252 2882.44,-237.528 2871.77,-225.128 2819,-216 2617.61,-181.168 2104.14,-189.96 1900,-180 1823.71,-176.277 1736.22,-171.035 1677.26,-167.359"/>
<polygon fill="black" stroke="black" points="1677.15,-163.845 1666.96,-166.714 1676.72,-170.832 1677.15,-163.845"/>
</g>
<!-- rx.range.drop&#45;&gt;rx.observable -->
<g id="edge115" class="edge"><title>rx.range.drop&#45;&gt;rx.observable</title>
<path fill="none" stroke="black" d="M3104.56,-293.141C3095.84,-291.101 3086.67,-289.241 3078,-288 3063.37,-285.906 2163.23,-248.541 1904.72,-237.841"/>
<polygon fill="black" stroke="black" points="1904.84,-234.344 1894.71,-237.427 1904.55,-241.338 1904.84,-234.344"/>
</g>
<!-- rx.range.drop&#45;&gt;rx.observer -->
<g id="edge116" class="edge"><title>rx.range.drop&#45;&gt;rx.observer</title>
<path fill="none" stroke="black" d="M3113.56,-291.041C3062.65,-270.511 2962.21,-232.793 2873,-216 2709.39,-185.203 2200.77,-169.273 2023.05,-164.539"/>
<polygon fill="black" stroke="black" points="2022.92,-161.034 2012.83,-164.269 2022.73,-168.032 2022.92,-161.034"/>
</g>
<!-- rx.range.drop&#45;&gt;rx.util -->
<g id="edge117" class="edge"><title>rx.range.drop&#45;&gt;rx.util</title>
<path fill="none" stroke="black" d="M3116.05,-290.436C3041.31,-256.196 2844.19,-171.411 2669,-144 2101.46,-55.2003 1947.23,-177.467 1377,-108 1363.76,-106.387 1349.44,-103.583 1336.74,-100.712"/>
<polygon fill="black" stroke="black" points="1337.48,-97.2908 1326.94,-98.4165 1335.88,-104.106 1337.48,-97.2908"/>
</g>
<!-- rx.range.drop&#45;&gt;std.range -->
<g id="edge118" class="edge"><title>rx.range.drop&#45;&gt;std.range</title>
<path fill="none" stroke="black" d="M3199.87,-297.484C3227.5,-290.577 3259.01,-277.342 3276,-252 3284.91,-238.709 3286.58,-227.998 3276,-216 3106.2,-23.5259 2958.75,-165.723 2703,-144 2344.38,-113.54 2248.43,-170.568 1894,-108 1890.03,-107.299 1885.95,-106.387 1881.89,-105.348"/>
<polygon fill="black" stroke="black" points="1882.5,-101.885 1871.92,-102.556 1880.61,-108.625 1882.5,-101.885"/>
</g>
<!-- rx.range.take&#45;&gt;rx.disposable -->
<g id="edge119" class="edge"><title>rx.range.take&#45;&gt;rx.disposable</title>
<path fill="none" stroke="black" d="M2827.41,-288.83C2799.03,-267.607 2745.44,-231.266 2693,-216 2523.63,-166.691 2076.17,-189.144 1900,-180 1823.72,-176.04 1736.23,-170.84 1677.26,-167.239"/>
<polygon fill="black" stroke="black" points="1677.16,-163.726 1666.96,-166.608 1676.73,-170.713 1677.16,-163.726"/>
</g>
<!-- rx.range.take&#45;&gt;rx.observable -->
<g id="edge120" class="edge"><title>rx.range.take&#45;&gt;rx.observable</title>
<path fill="none" stroke="black" d="M2807.42,-293.217C2799.07,-291.17 2790.3,-289.289 2782,-288 2696.17,-274.675 2108.07,-247.262 1904.88,-238.077"/>
<polygon fill="black" stroke="black" points="1904.78,-234.569 1894.64,-237.614 1904.47,-241.562 1904.78,-234.569"/>
</g>
<!-- rx.range.take&#45;&gt;rx.observer -->
<g id="edge121" class="edge"><title>rx.range.take&#45;&gt;rx.observer</title>
<path fill="none" stroke="black" d="M2840.9,-288.018C2831.09,-266.963 2811.23,-231.914 2782,-216 2748.76,-197.901 2207.58,-173.433 2022.5,-165.556"/>
<polygon fill="black" stroke="black" points="2022.53,-162.054 2012.39,-165.127 2022.23,-169.048 2022.53,-162.054"/>
</g>
<!-- rx.range.take&#45;&gt;rx.util -->
<g id="edge122" class="edge"><title>rx.range.take&#45;&gt;rx.util</title>
<path fill="none" stroke="black" d="M2846.81,-287.868C2844.39,-267.331 2837.09,-233.5 2815,-216 2697.4,-122.823 1502.07,-124.118 1377,-108 1363.77,-106.295 1349.46,-103.468 1336.75,-100.604"/>
<polygon fill="black" stroke="black" points="1337.49,-97.1829 1326.96,-98.3208 1335.9,-104 1337.49,-97.1829"/>
</g>
<!-- rx.range.take&#45;&gt;std.range -->
<g id="edge123" class="edge"><title>rx.range.take&#45;&gt;std.range</title>
<path fill="none" stroke="black" d="M2828.46,-288.794C2785.84,-254.559 2680,-175.443 2576,-144 2430.73,-100.08 2043.35,-135.001 1894,-108 1890.03,-107.283 1885.95,-106.359 1881.89,-105.313"/>
<polygon fill="black" stroke="black" points="1882.51,-101.85 1871.93,-102.511 1880.61,-108.589 1882.51,-101.85"/>
</g>
<!-- rx.range.takeLast&#45;&gt;rx.disposable -->
<g id="edge124" class="edge"><title>rx.range.takeLast&#45;&gt;rx.disposable</title>
<path fill="none" stroke="black" d="M2963.19,-289.791C2916.08,-268.789 2826.02,-231.721 2745,-216 2560.49,-180.197 2087.71,-189.481 1900,-180 1823.71,-176.147 1736.22,-170.928 1677.26,-167.293"/>
<polygon fill="black" stroke="black" points="1677.15,-163.78 1666.96,-166.656 1676.72,-170.766 1677.15,-163.78"/>
</g>
<!-- rx.range.takeLast&#45;&gt;rx.observable -->
<g id="edge125" class="edge"><title>rx.range.takeLast&#45;&gt;rx.observable</title>
<path fill="none" stroke="black" d="M2944.59,-293.07C2934.5,-291.088 2923.95,-289.268 2914,-288 2814.51,-275.319 2127.42,-246.778 1905.18,-237.775"/>
<polygon fill="black" stroke="black" points="1905.09,-234.269 1894.95,-237.362 1904.8,-241.263 1905.09,-234.269"/>
</g>
<!-- rx.range.takeLast&#45;&gt;rx.observer -->
<g id="edge126" class="edge"><title>rx.range.takeLast&#45;&gt;rx.observer</title>
<path fill="none" stroke="black" d="M2971.47,-288.991C2937.78,-267.95 2874.57,-231.813 2815,-216 2665.33,-176.266 2193.01,-166.099 2022.86,-163.693"/>
<polygon fill="black" stroke="black" points="2022.86,-160.193 2012.81,-163.555 2022.76,-167.192 2022.86,-160.193"/>
</g>
<!-- rx.range.takeLast&#45;&gt;rx.util -->
<g id="edge127" class="edge"><title>rx.range.takeLast&#45;&gt;rx.util</title>
<path fill="none" stroke="black" d="M2978.35,-288.479C2955.72,-268.24 2914.44,-234.384 2873,-216 2731.81,-153.365 2686.35,-162.477 2533,-144 2022.66,-82.5123 1887.15,-170.996 1377,-108 1363.76,-106.365 1349.45,-103.556 1336.74,-100.686"/>
<polygon fill="black" stroke="black" points="1337.48,-97.2653 1326.95,-98.3939 1335.89,-104.081 1337.48,-97.2653"/>
</g>
<!-- rx.range.takeLast&#45;&gt;std.range -->
<g id="edge128" class="edge"><title>rx.range.takeLast&#45;&gt;std.range</title>
<path fill="none" stroke="black" d="M2969.44,-289.065C2911.06,-254.997 2766.15,-175.607 2633,-144 2313.06,-68.0518 2217.71,-165.846 1894,-108 1890.03,-107.291 1885.95,-106.373 1881.89,-105.33"/>
<polygon fill="black" stroke="black" points="1882.5,-101.867 1871.93,-102.533 1880.61,-108.606 1882.5,-101.867"/>
</g>
<!-- rx.scheduler&#45;&gt;core.internal.traits -->
<g id="edge129" class="edge"><title>rx.scheduler&#45;&gt;core.internal.traits</title>
<path fill="none" stroke="black" d="M3677.88,-303.767C3809.83,-300.236 4136.4,-287.922 4169,-252 4179.75,-240.152 4179.43,-228.132 4169,-216 4108.21,-145.297 3465.9,-106.659 3233.41,-94.9078"/>
<polygon fill="black" stroke="black" points="3233.48,-91.407 3223.31,-94.4016 3233.13,-98.3982 3233.48,-91.407"/>
</g>
<!-- rx.scheduler&#45;&gt;core.thread -->
<g id="edge130" class="edge"><title>rx.scheduler&#45;&gt;core.thread</title>
<path fill="none" stroke="black" d="M3601.03,-289.465C3587.31,-279.768 3569.47,-267.148 3554.4,-256.498"/>
<polygon fill="black" stroke="black" points="3556.1,-253.407 3545.91,-250.492 3552.05,-259.123 3556.1,-253.407"/>
</g>
<!-- rx.scheduler&#45;&gt;core.time -->
<g id="edge131" class="edge"><title>rx.scheduler&#45;&gt;core.time</title>
<path fill="none" stroke="black" d="M3585.41,-292.647C3548.46,-280.505 3492.13,-261.99 3453.32,-249.237"/>
<polygon fill="black" stroke="black" points="3453.96,-245.761 3443.36,-245.964 3451.77,-252.411 3453.96,-245.761"/>
</g>
<!-- rx.scheduler&#45;&gt;rx.disposable -->
<g id="edge132" class="edge"><title>rx.scheduler&#45;&gt;rx.disposable</title>
<path fill="none" stroke="black" d="M3621.14,-287.768C3617.87,-266.795 3608.94,-232.181 3585,-216 3546.21,-189.786 1946.78,-181.865 1900,-180 1823.56,-176.952 1735.92,-171.575 1676.97,-167.684"/>
<polygon fill="black" stroke="black" points="1676.88,-164.17 1666.67,-166.999 1676.41,-171.155 1676.88,-164.17"/>
</g>
<!-- rx.scheduler&#45;&gt;rx.observable -->
<g id="edge133" class="edge"><title>rx.scheduler&#45;&gt;rx.observable</title>
<path fill="none" stroke="black" d="M3568.69,-302.652C3490.66,-299.296 3342.32,-292.984 3216,-288 2785.37,-271.007 2677.63,-268.905 2247,-252 2126.73,-247.279 1986.68,-241.405 1905.02,-237.944"/>
<polygon fill="black" stroke="black" points="1905.01,-234.44 1894.87,-237.513 1904.71,-241.434 1905.01,-234.44"/>
</g>
<!-- rx.scheduler&#45;&gt;rx.observer -->
<g id="edge134" class="edge"><title>rx.scheduler&#45;&gt;rx.observer</title>
<path fill="none" stroke="black" d="M3628.06,-287.838C3632.85,-267.594 3636.83,-234.377 3618,-216 3559.93,-159.311 2317.65,-161.374 2023.19,-162.666"/>
<polygon fill="black" stroke="black" points="2023.1,-159.166 2013.12,-162.711 2023.13,-166.166 2023.1,-159.166"/>
</g>
<!-- std.algorithm.internal -->
<g id="node33" class="node"><title>std.algorithm.internal</title>
<ellipse fill="none" stroke="black" cx="3794" cy="-234" rx="86.3847" ry="18"/>
<text text-anchor="middle" x="3794" y="-230.3" font-family="Times New Roman,serif" font-size="14.00">std.algorithm.internal</text>
</g>
<!-- rx.scheduler&#45;&gt;std.algorithm.internal -->
<g id="edge135" class="edge"><title>rx.scheduler&#45;&gt;std.algorithm.internal</title>
<path fill="none" stroke="black" d="M3655.97,-291.503C3681.87,-280.902 3718.26,-266.004 3747.18,-254.167"/>
<polygon fill="black" stroke="black" points="3748.74,-257.308 3756.67,-250.281 3746.09,-250.83 3748.74,-257.308"/>
</g>
<!-- std.exception -->
<g id="node35" class="node"><title>std.exception</title>
<ellipse fill="none" stroke="black" cx="3958" cy="-234" rx="59.5901" ry="18"/>
<text text-anchor="middle" x="3958" y="-230.3" font-family="Times New Roman,serif" font-size="14.00">std.exception</text>
</g>
<!-- rx.scheduler&#45;&gt;std.exception -->
<g id="edge136" class="edge"><title>rx.scheduler&#45;&gt;std.exception</title>
<path fill="none" stroke="black" d="M3669.74,-296.345C3722.97,-286.336 3812.47,-269.042 3889,-252 3893.92,-250.905 3899.02,-249.727 3904.13,-248.52"/>
<polygon fill="black" stroke="black" points="3904.99,-251.912 3913.9,-246.178 3903.36,-245.105 3904.99,-251.912"/>
</g>
<!-- std.parallelism -->
<g id="node38" class="node"><title>std.parallelism</title>
<ellipse fill="none" stroke="black" cx="4098" cy="-234" rx="62.2891" ry="18"/>
<text text-anchor="middle" x="4098" y="-230.3" font-family="Times New Roman,serif" font-size="14.00">std.parallelism</text>
</g>
<!-- rx.scheduler&#45;&gt;std.parallelism -->
<g id="edge137" class="edge"><title>rx.scheduler&#45;&gt;std.parallelism</title>
<path fill="none" stroke="black" d="M3675.25,-299.911C3752.51,-291.987 3901.61,-275.17 4027,-252 4032.3,-251.021 4037.79,-249.899 4043.27,-248.707"/>
<polygon fill="black" stroke="black" points="4044.09,-252.111 4053.08,-246.505 4042.56,-245.282 4044.09,-252.111"/>
</g>
<!-- rx.scheduler&#45;&gt;std.range -->
<g id="edge138" class="edge"><title>rx.scheduler&#45;&gt;std.range</title>
<path fill="none" stroke="black" d="M3633.12,-288.052C3643.26,-268.626 3655.22,-236.795 3639,-216 3558.11,-112.311 3482.31,-161.731 3352,-144 3030.86,-100.302 2213.71,-161.183 1894,-108 1889.86,-107.311 1885.59,-106.377 1881.36,-105.301"/>
<polygon fill="black" stroke="black" points="1882.19,-101.9 1871.62,-102.577 1880.31,-108.641 1882.19,-101.9"/>
</g>
<!-- rx.subject&#45;&gt;core.atomic -->
<g id="edge139" class="edge"><title>rx.subject&#45;&gt;core.atomic</title>
<path fill="none" stroke="black" d="M223.269,-301.125C190.907,-295.714 149.268,-282.793 128,-252 98.5442,-209.353 128.095,-171.546 172,-144 378.936,-14.1679 1025.7,-79.9718 1266,-36 1270.7,-35.1404 1275.56,-34.1029 1280.4,-32.9694"/>
<polygon fill="black" stroke="black" points="1281.38,-36.3322 1290.25,-30.5342 1279.7,-29.5368 1281.38,-36.3322"/>
</g>
<!-- rx.subject&#45;&gt;rx.disposable -->
<g id="edge140" class="edge"><title>rx.subject&#45;&gt;rx.disposable</title>
<path fill="none" stroke="black" d="M301.268,-293.36C359.669,-273.507 484.811,-233.547 594,-216 776.711,-186.638 1341.38,-169.811 1539.47,-164.69"/>
<polygon fill="black" stroke="black" points="1539.84,-168.181 1549.74,-164.426 1539.66,-161.184 1539.84,-168.181"/>
</g>
<!-- rx.subject&#45;&gt;rx.observable -->
<g id="edge141" class="edge"><title>rx.subject&#45;&gt;rx.observable</title>
<path fill="none" stroke="black" d="M313.074,-301.912C367.361,-298.26 461.322,-292.155 542,-288 1009.94,-263.903 1573.53,-243.917 1766.95,-237.317"/>
<polygon fill="black" stroke="black" points="1767.1,-240.814 1776.97,-236.975 1766.86,-233.818 1767.1,-240.814"/>
</g>
<!-- rx.subject&#45;&gt;rx.observer -->
<g id="edge142" class="edge"><title>rx.subject&#45;&gt;rx.observer</title>
<path fill="none" stroke="black" d="M310.505,-298.827C423.052,-282.704 738.249,-238.987 1002,-216 1301.73,-189.877 1377.61,-197.021 1678,-180 1754.56,-175.662 1842.76,-170.307 1900.06,-166.78"/>
<polygon fill="black" stroke="black" points="1900.63,-170.252 1910.4,-166.144 1900.2,-163.266 1900.63,-170.252"/>
</g>
<!-- rx.subject&#45;&gt;rx.util -->
<g id="edge143" class="edge"><title>rx.subject&#45;&gt;rx.util</title>
<path fill="none" stroke="black" d="M231.132,-294.961C196.64,-284.736 148.844,-268.132 138,-252 129.074,-238.721 128.449,-228.837 138,-216 204.476,-126.654 268.327,-163.331 378,-144 550.689,-113.562 1101.78,-96.4182 1257.6,-92.0954"/>
<polygon fill="black" stroke="black" points="1257.81,-95.5912 1267.71,-91.8178 1257.61,-88.5938 1257.81,-95.5912"/>
</g>
<!-- rx.subject&#45;&gt;std.range -->
<g id="edge144" class="edge"><title>rx.subject&#45;&gt;std.range</title>
<path fill="none" stroke="black" d="M245.88,-290.128C234.007,-280.754 220.507,-267.504 214,-252 207.808,-237.247 205.41,-229.499 214,-216 234.282,-184.128 256.86,-196.174 291,-180 324.414,-164.17 330.062,-152.695 366,-144 508.823,-109.446 1541.41,-118.175 1688,-108 1721.65,-105.664 1759.33,-101.461 1788.75,-97.8187"/>
<polygon fill="black" stroke="black" points="1789.31,-101.276 1798.8,-96.5577 1788.44,-94.3308 1789.31,-101.276"/>
</g>
<!-- rx.util&#45;&gt;core.atomic -->
<g id="edge145" class="edge"><title>rx.util&#45;&gt;core.atomic</title>
<path fill="none" stroke="black" d="M1306.11,-72.411C1309.57,-64.3352 1313.82,-54.4312 1317.71,-45.3547"/>
<polygon fill="black" stroke="black" points="1321.01,-46.5264 1321.73,-35.9562 1314.58,-43.7689 1321.01,-46.5264"/>
</g>
<!-- rx.util&#45;&gt;core.sync.condition -->
<g id="edge146" class="edge"><title>rx.util&#45;&gt;core.sync.condition</title>
<path fill="none" stroke="black" d="M1277.23,-76.8069C1259.11,-66.6617 1232.91,-51.9881 1211.44,-39.9638"/>
<polygon fill="black" stroke="black" points="1213,-36.8259 1202.56,-34.9936 1209.57,-42.9335 1213,-36.8259"/>
</g>
<!-- rx.util&#45;&gt;core.sync.mutex -->
<g id="edge147" class="edge"><title>rx.util&#45;&gt;core.sync.mutex</title>
<path fill="none" stroke="black" d="M1327.33,-82.1607C1373.98,-70.9016 1467.91,-48.229 1529.61,-33.3349"/>
<polygon fill="black" stroke="black" points="1530.71,-36.6718 1539.6,-30.923 1529.06,-29.8672 1530.71,-36.6718"/>
</g>
<!-- rx.range.takeUntil -->
<g id="node42" class="node"><title>rx.range.takeUntil</title>
<ellipse fill="#e6ffed" stroke="#bef5cb" cx="1406" cy="-306" rx="74.187" ry="18"/>
<text text-anchor="middle" x="1406" y="-302.3" font-family="Times New Roman,serif" font-size="14.00">rx.range.takeUntil</text>
</g>
<!-- rx.range.takeUntil&#45;&gt;rx.disposable -->
<g id="edge148" class="edge"><title>rx.range.takeUntil&#45;&gt;rx.disposable</title>
<path fill="none" stroke="#2cbe4e" d="M1396.42,-288.007C1386.87,-268.538 1375.77,-236.668 1392,-216 1410.61,-192.297 1486.6,-177.84 1543.45,-170.138"/>
<polygon fill="#2cbe4e" stroke="#2cbe4e" points="1544,-173.596 1553.46,-168.824 1543.09,-166.655 1544,-173.596"/>
</g>
<!-- rx.range.takeUntil&#45;&gt;rx.observable -->
<g id="edge149" class="edge"><title>rx.range.takeUntil&#45;&gt;rx.observable</title>
<path fill="none" stroke="#2cbe4e" d="M1465.79,-295.267C1547.31,-281.996 1692.58,-258.347 1774.82,-244.96"/>
<polygon fill="#2cbe4e" stroke="#2cbe4e" points="1775.46,-248.401 1784.77,-243.339 1774.34,-241.492 1775.46,-248.401"/>
</g>
<!-- rx.range.takeUntil&#45;&gt;rx.observer -->
<g id="edge150" class="edge"><title>rx.range.takeUntil&#45;&gt;rx.observer</title>
<path fill="none" stroke="#2cbe4e" d="M1442.13,-290.091C1490.54,-270.617 1579.46,-236.586 1658,-216 1741.75,-194.05 1840.94,-178.645 1902.43,-170.299"/>
<polygon fill="#2cbe4e" stroke="#2cbe4e" points="1903.27,-173.719 1912.71,-168.922 1902.34,-166.78 1903.27,-173.719"/>
</g>
<!-- rx.range.takeUntil&#45;&gt;rx.util -->
<g id="edge151" class="edge"><title>rx.range.takeUntil&#45;&gt;rx.util</title>
<path fill="none" stroke="#2cbe4e" d="M1397.42,-287.849C1378.67,-250.334 1333.91,-160.814 1311.8,-116.602"/>
<polygon fill="#2cbe4e" stroke="#2cbe4e" points="1314.92,-115.02 1307.32,-107.641 1308.66,-118.15 1314.92,-115.02"/>
</g>
<!-- rx.range.takeUntil&#45;&gt;std.range -->
<g id="edge152" class="edge"><title>rx.range.takeUntil&#45;&gt;std.range</title>
<path fill="none" stroke="#2cbe4e" d="M1426.62,-288.597C1452.44,-268.795 1498.68,-235.704 1543,-216 1599.74,-190.772 1620.37,-203.119 1678,-180 1725.57,-160.917 1776.85,-130.998 1808.69,-111.195"/>
<polygon fill="#2cbe4e" stroke="#2cbe4e" points="1810.92,-113.928 1817.52,-105.647 1807.19,-108 1810.92,-113.928"/>
</g>
</g>
</svg>
